fira-sans_extralight.sfdir
StartChar: exclam
Encoding: 33 33 2122
Width: 240
Flags: MW
HStem: -11 80<108.5 132> 664 20G<95 143 143 143>
VStem: 80 80<18 40> 96.5 45.5
LayerCount: 2
Back
Fore
SplineSet
143 684 m 1xd0
 141 214 l 1
 98 214 l 1
 95 684 l 1
 143 684 l 1xd0
120 69 m 0xe0
 144 69 160 51 160 29 c 0
 160 7 144 -11 120 -11 c 0
 97 -11 80 7 80 29 c 0
 80 51 97 69 120 69 c 0xe0
EndSplineSet
EndChar

StartChar: quotedbl
Encoding: 34 34 991
Width: 349
Flags: MW
HStem: 436 248<82 117 82 82 232 232 232 268> 664 20G<75 124 124 124 225 274 274 274>
VStem: 78.5 42 228.5 42.5
LayerCount: 2
Fore
SplineSet
75 684 m 1x70
 124 684 l 1
 117 436 l 1
 82 436 l 1xb0
 75 684 l 1x70
225 684 m 1
 274 684 l 1
 268 436 l 1
 232 436 l 1
 225 684 l 1
EndSplineSet
EndChar
StartChar: dollar
Encoding: 36 36 2200
Width: 524
GlyphClass: 2
Flags: MW
HStem: -10 40<241 241> 633 40<241 241>
VStem: 70 47<478 550 478 556.5> 241 41<-149 -10 -10 -10 673 817> 418 47<132.5 221.5>
LayerCount: 2
Back
Fore
SplineSet
465 180 m 0
 465 76 393 3 282 -9 c 1
 282 -149 l 1
 241 -149 l 1
 241 -10 l 1
 157 -8 95 23 44 71 c 1
 72 101 l 1
 117 59 171 30 250 30 c 0
 349 30 418 86 418 179 c 0
 418 264 376 298 256 335 c 0
 122 377 70 422 70 513 c 0
 70 600 138 666 241 673 c 1
 241 817 l 1
 282 817 l 1
 282 673 l 1
 353 668 399 642 445 601 c 1
 416 571 l 1
 369 615 323 633 259 633 c 0
 174 633 117 586 117 514 c 0
 117 442 156 411 274 375 c 0
 399 336 465 293 465 180 c 0
EndSplineSet
Substitution2: "'onum' Oldstyle Figures lookup 25 subtable" dollar.osf
Substitution2: "'tnum' Tabular Numbers lookup 24 subtable" dollar.tf
AlternateSubs2: "'aalt' Access All Alternates lookup 1 subtable" dollar.tf dollar.osf
EndChar

StartChar: ampersand
Encoding: 38 38 1219
Width: 736
Flags: MW
HStem: -11 40<255 346 255 352> 657 37<264.5 333>
VStem: 94 47<129 207.5 129 215.5> 137 46<519 575 519 586> 415 46<515 582>
LayerCount: 2
Fore
SplineSet
301 694 m 0xe8
 395 694 461 634 461 548 c 0
 461 468 405 419 304 363 c 1
 519 162 l 1
 548 222 570 283 587 360 c 1
 630 347 l 1
 610 263 583 195 547 134 c 1
 676 16 l 1
 640 -11 l 1
 523 98 l 1
 472 34 406 -11 298 -11 c 0
 183 -11 94 61 94 170 c 0xe8
 94 261 149 317 239 369 c 1
 172 432 137 473 137 543 c 0xd8
 137 629 202 694 301 694 c 0xe8
301 657 m 0xd8
 228 657 183 606 183 544 c 0
 183 494 197 464 276 390 c 1
 370 440 415 484 415 546 c 0
 415 618 365 657 301 657 c 0xd8
267 343 m 1xe8
 186 295 141 244 141 171 c 0
 141 87 209 29 301 29 c 0
 391 29 447 66 494 126 c 1
 267 343 l 1xe8
EndSplineSet
EndChar

StartChar: quotesingle
Encoding: 39 39 992
Width: 199
Flags: MW
HStem: 664 20G<75 124 124 124>
VStem: 78.5 42
LayerCount: 2
Fore
SplineSet
75 684 m 1
 124 684 l 1
 117 436 l 1
 82 436 l 1
 75 684 l 1
EndSplineSet
EndChar
StartChar: parenleft
Encoding: 40 40 2154
Width: 324
Flags: MW
HStem: -135 970<236 236>
VStem: 59 47<241 459.5 241 465.5>
LayerCount: 2
Back
Fore
SplineSet
236 835 m 1
 265 815 l 1
 176 684 106 569 106 350 c 0
 106 132 176 16 265 -115 c 1
 236 -135 l 1
 139 1 59 119 59 350 c 0
 59 581 139 699 236 835 c 1
EndSplineSet
Substitution2: "'case' Case-Sensitive Forms lookup 28 subtable" parenleft.case
Substitution2: "'dnom' Denominators lookup 16 subtable" parenleft.dnom
Substitution2: "'numr' Numerators lookup 15 subtable" parenleft.numr
Substitution2: "'sups' Superscript lookup 14 subtable" uni207D
Substitution2: "'subs' Subscript lookup 13 subtable" uni208D
AlternateSubs2: "'aalt' Access All Alternates lookup 1 subtable" uni208D uni207D parenleft.numr parenleft.dnom parenleft.case
EndChar

StartChar: parenright
Encoding: 41 41 1008
Width: 324
Flags: MW
HStem: -135 970<88 88>
VStem: 218 47<241 459.5>
LayerCount: 2
Fore
SplineSet
88 835 m 1
 185 699 265 581 265 350 c 0
 265 119 185 1 88 -135 c 1
 59 -115 l 1
 148 16 218 132 218 350 c 0
 218 569 148 684 59 815 c 1
 88 835 l 1
EndSplineSet
Substitution2: "'case' Case-Sensitive Forms lookup 25 subtable" parenright.case
Substitution2: "'dnom' Denominators lookup 14 subtable" parenright.dnom
Substitution2: "'numr' Numerators lookup 13 subtable" parenright.numr
Substitution2: "'sups' Superscript lookup 12 subtable" parenrightsuperior
Substitution2: "'subs' Subscript lookup 11 subtable" uni208E
AlternateSubs2: "'aalt' Access All Alternates lookup 1 subtable" uni208E parenrightsuperior parenright.numr parenright.dnom parenright.case
EndChar

StartChar: asterisk
Encoding: 42 42 978
Width: 435
Flags: MW
HStem: 555 20G<200 200> 715 20G<195 240 240 240>
VStem: 197.5 40
LayerCount: 2
Fore
SplineSet
244 547 m 1
 342 422 l 1
 305 395 l 1
 218 526 l 1
 130 395 l 1
 93 422 l 1
 191 546 l 1
 39 589 l 1
 52 630 l 1
 200 575 l 1
 195 735 l 1
 240 735 l 1
 235 577 l 1
 382 631 l 1
 396 589 l 1
 244 547 l 1
EndSplineSet
EndChar

StartChar: plus
Encoding: 43 43 1113
Width: 491
Flags: MW
HStem: 310 41<72 223 72 223 268 419>
VStem: 223 45<157 310 157 310 351 504>
LayerCount: 2
Fore
SplineSet
268 351 m 1
 419 351 l 1
 419 310 l 1
 268 310 l 1
 268 157 l 1
 223 157 l 1
 223 310 l 1
 72 310 l 1
 72 351 l 1
 223 351 l 1
 223 504 l 1
 268 504 l 1
 268 351 l 1
EndSplineSet
Substitution2: "'onum' Oldstyle Figures lookup 22 subtable" plus.osf
Substitution2: "'tnum' Tabular Numbers lookup 21 subtable" plus.tf
Substitution2: "'dnom' Denominators lookup 14 subtable" plus.dnom
Substitution2: "'numr' Numerators lookup 13 subtable" plus.numr
Substitution2: "'sups' Superscript lookup 12 subtable" plussuperior
Substitution2: "'subs' Subscript lookup 11 subtable" uni208A
AlternateSubs2: "'aalt' Access All Alternates lookup 1 subtable" uni208A plussuperior plus.numr plus.dnom plus.tf plus.osf
EndChar

StartChar: comma
Encoding: 44 44 983
Width: 195
Flags: MW
HStem: -5 21G<78 78>
VStem: 57 81<21.5 40>
LayerCount: 2
Fore
SplineSet
97 69 m 0
 122 69 138 51 138 29 c 0
 138 14 131 -3 124 -20 c 2
 72 -146 l 1
 38 -146 l 1
 78 -5 l 1
 65 1 57 14 57 29 c 0
 57 51 74 69 97 69 c 0
EndSplineSet
EndChar
StartChar: hyphen
Encoding: 45 45 2166
Width: 400
Flags: MW
HStem: 293 40<71 329 71 329>
VStem: 71 258<293 333 293 333>
LayerCount: 2
Back
Fore
SplineSet
71 293 m 1
 71 333 l 1
 329 333 l 1
 329 293 l 1
 71 293 l 1
EndSplineSet
Substitution2: "'case' Case-Sensitive Forms lookup 28 subtable" hyphen.case
Substitution2: "'aalt' Access All Alternates lookup 0 subtable" hyphen.case
EndChar

StartChar: period
Encoding: 46 46 988
Width: 195
Flags: MW
HStem: -11 80<85.5 109.5>
VStem: 57 81<18 40>
LayerCount: 2
Fore
SplineSet
97 69 m 0
 122 69 138 51 138 29 c 0
 138 7 122 -11 97 -11 c 0
 74 -11 57 7 57 29 c 0
 57 51 74 69 97 69 c 0
EndSplineSet
EndChar
StartChar: slash
Encoding: 47 47 2132
Width: 520
Flags: MW
HStem: -98 899<164 356>
VStem: 124 272
LayerCount: 2
Back
Fore
SplineSet
356 801 m 1
 396 791 l 1
 164 -98 l 1
 124 -88 l 1
 356 801 l 1
EndSplineSet
Substitution2: "'frac' Diagonal Fractions lookup 17 subtable" fraction
Substitution2: "'aalt' Access All Alternates lookup 0 subtable" fraction
EndChar

StartChar: zero
Encoding: 48 48 877
Width: 547
Flags: MW
HStem: -11 40<223.5 324 223.5 339.5> 636 39<224 324.5>
VStem: 70 48<229 436.5 229 446> 429 48<227.5 435>
LayerCount: 2
Fore
SplineSet
274 675 m 0
 406 675 477 559 477 331 c 0
 477 105 405 -11 274 -11 c 0
 142 -11 70 107 70 333 c 0
 70 559 142 675 274 675 c 0
274 636 m 0
 174 636 118 540 118 333 c 0
 118 125 173 29 274 29 c 0
 374 29 429 124 429 331 c 0
 429 539 375 636 274 636 c 0
EndSplineSet
Substitution2: "'zero' Slashed Zero lookup 28 subtable" zero.zero
Substitution2: "'onum' Oldstyle Figures lookup 22 subtable" zero.osf
Substitution2: "'tnum' Tabular Numbers lookup 21 subtable" zero.tf
Substitution2: "'frac' Diagonal Fractions lookup 16 subtable" zero.numr
Substitution2: "'dnom' Denominators lookup 14 subtable" zero.dnom
Substitution2: "'numr' Numerators lookup 13 subtable" zero.numr
Substitution2: "'sups' Superscript lookup 12 subtable" zerosuperior
Substitution2: "'subs' Subscript lookup 11 subtable" zeroinferior
AlternateSubs2: "'aalt' Access All Alternates lookup 1 subtable" zeroinferior zerosuperior zero.numr zero.dnom zero.tf zero.osf zero.zero
EndChar
StartChar: one
Encoding: 49 49 2012
Width: 406
Flags: MW
HStem: 0 21G<235 281 235 235>
VStem: 235 46<0 612 612 612>
LayerCount: 2
Back
Fore
SplineSet
281 664 m 1
 281 0 l 1
 235 0 l 1
 235 612 l 1
 68 507 l 1
 46 542 l 1
 242 664 l 1
 281 664 l 1
EndSplineSet
Substitution2: "'onum' Oldstyle Figures lookup 25 subtable" one.osf
Substitution2: "'tnum' Tabular Numbers lookup 24 subtable" one.tf
Substitution2: "'frac' Diagonal Fractions lookup 18 subtable" one.numr
Substitution2: "'dnom' Denominators lookup 16 subtable" one.dnom
Substitution2: "'numr' Numerators lookup 15 subtable" one.numr
Substitution2: "'sups' Superscript lookup 14 subtable" uni00B9
Substitution2: "'subs' Subscript lookup 13 subtable" uni2081
AlternateSubs2: "'aalt' Access All Alternates lookup 1 subtable" uni2081 uni00B9 one.numr one.dnom one.tf one.osf
EndChar

StartChar: two
Encoding: 50 50 879
Width: 473
Flags: MW
HStem: 0 42<99 412> 635 40<188.5 262>
VStem: 353 48<440 541.5>
LayerCount: 2
Fore
SplineSet
224 675 m 0
 335 675 401 601 401 503 c 0
 401 368 328 287 99 42 c 1
 419 42 l 1
 412 0 l 1
 44 0 l 1
 44 40 l 1
 295 310 353 380 353 500 c 0
 353 583 302 635 222 635 c 0
 155 635 108 606 69 558 c 1
 36 582 l 1
 88 645 145 675 224 675 c 0
EndSplineSet
Substitution2: "'onum' Oldstyle Figures lookup 22 subtable" two.osf
Substitution2: "'tnum' Tabular Numbers lookup 21 subtable" two.tf
Substitution2: "'frac' Diagonal Fractions lookup 16 subtable" two.numr
Substitution2: "'dnom' Denominators lookup 14 subtable" two.dnom
Substitution2: "'numr' Numerators lookup 13 subtable" two.numr
Substitution2: "'sups' Superscript lookup 12 subtable" twosuperior
Substitution2: "'subs' Subscript lookup 11 subtable" twoinferior
AlternateSubs2: "'aalt' Access All Alternates lookup 1 subtable" twoinferior twosuperior two.numr two.dnom two.tf two.osf
EndChar

StartChar: three
Encoding: 51 51 880
Width: 482
Flags: MW
HStem: -11 41<178 259 178 272> 332 38<177 209 209 213 171 209> 635 40<188.5 257.5>
VStem: 351 47<464 547.5> 368 48<139 237>
LayerCount: 2
Fore
SplineSet
219 675 m 0xf0
 331 675 398 604 398 510 c 0xf0
 398 418 339 365 264 354 c 1
 348 351 416 293 416 186 c 0
 416 71 335 -11 209 -11 c 0
 132 -11 72 18 22 74 c 1
 52 100 l 1
 100 48 148 30 208 30 c 0
 310 30 368 93 368 185 c 0xe8
 368 289 306 332 213 332 c 2
 171 332 l 1
 177 370 l 1
 209 370 l 2
 280 370 351 412 351 508 c 0
 351 587 298 635 217 635 c 0
 160 635 115 617 66 572 c 1
 41 601 l 1
 91 650 146 675 219 675 c 0xf0
EndSplineSet
Substitution2: "'onum' Oldstyle Figures lookup 22 subtable" three.osf
Substitution2: "'tnum' Tabular Numbers lookup 21 subtable" three.tf
Substitution2: "'frac' Diagonal Fractions lookup 16 subtable" three.numr
Substitution2: "'dnom' Denominators lookup 14 subtable" three.dnom
Substitution2: "'numr' Numerators lookup 13 subtable" three.numr
Substitution2: "'sups' Superscript lookup 12 subtable" threesuperior
Substitution2: "'subs' Subscript lookup 11 subtable" threeinferior
AlternateSubs2: "'aalt' Access All Alternates lookup 1 subtable" threeinferior threesuperior three.numr three.dnom three.tf three.osf
EndChar

StartChar: four
Encoding: 52 52 881
Width: 513
Flags: MW
HStem: 0 21G<340 385 340 340> 178 40<96 340 96 340 385 476>
VStem: 340 45<0 178 0 178 0 218>
LayerCount: 2
Fore
SplineSet
476 178 m 1
 385 178 l 1
 385 0 l 1
 340 0 l 1
 340 178 l 1
 47 178 l 1
 47 214 l 1
 251 675 l 1
 290 659 l 1
 96 218 l 1
 340 218 l 1
 345 418 l 1
 385 418 l 1
 385 218 l 1
 476 218 l 1
 476 178 l 1
EndSplineSet
Substitution2: "'onum' Oldstyle Figures lookup 22 subtable" four.osf
Substitution2: "'tnum' Tabular Numbers lookup 21 subtable" four.tf
Substitution2: "'frac' Diagonal Fractions lookup 16 subtable" four.numr
Substitution2: "'dnom' Denominators lookup 14 subtable" four.dnom
Substitution2: "'numr' Numerators lookup 13 subtable" four.numr
Substitution2: "'sups' Superscript lookup 12 subtable" foursuperior
Substitution2: "'subs' Subscript lookup 11 subtable" fourinferior
AlternateSubs2: "'aalt' Access All Alternates lookup 1 subtable" fourinferior foursuperior four.numr four.dnom four.tf four.osf
EndChar
StartChar: five
Encoding: 53 53 2016
Width: 482
Flags: MW
HStem: -11 41<188 270.5 188 285> 380 39<218.5 277.5> 624 40<127 400 127 127>
VStem: 82 45<386 624 386 664 386 664> 381 48<158.5 271.5>
LayerCount: 2
Back
Fore
SplineSet
408 664 m 1
 400 624 l 1
 127 624 l 1
 127 386 l 1
 157 405 194 419 243 419 c 0
 357 419 429 342 429 214 c 0
 429 83 349 -11 221 -11 c 0
 141 -11 84 19 36 68 c 1
 67 96 l 1
 109 52 154 30 222 30 c 0
 319 30 381 102 381 215 c 0
 381 328 320 380 235 380 c 0
 187 380 157 369 119 346 c 1
 82 346 l 1
 82 664 l 1
 408 664 l 1
EndSplineSet
Substitution2: "'onum' Oldstyle Figures lookup 25 subtable" five.osf
Substitution2: "'tnum' Tabular Numbers lookup 24 subtable" five.tf
Substitution2: "'frac' Diagonal Fractions lookup 18 subtable" five.numr
Substitution2: "'dnom' Denominators lookup 16 subtable" five.dnom
Substitution2: "'numr' Numerators lookup 15 subtable" five.numr
Substitution2: "'sups' Superscript lookup 14 subtable" uni2075
Substitution2: "'subs' Subscript lookup 13 subtable" uni2085
AlternateSubs2: "'aalt' Access All Alternates lookup 1 subtable" uni2085 uni2075 five.numr five.dnom five.tf five.osf
EndChar
StartChar: six
Encoding: 54 54 2017
Width: 520
Flags: MW
HStem: -11 40<220 323 220 330.5> 391 40<253.5 324.5> 636 39<245.5 323.5>
VStem: 70 47 419 47<166 281>
LayerCount: 2
Back
Fore
SplineSet
292 431 m 0
 387 431 466 365 466 223 c 0
 466 77 385 -11 276 -11 c 0
 124 -11 70 126 70 295 c 0
 70 532 160 675 305 675 c 0
 355 675 391 660 424 637 c 1
 403 604 l 1
 372 625 343 636 304 636 c 0
 187 636 121 506 117 327 c 1
 158 390 215 431 292 431 c 0
276 29 m 0
 370 29 419 110 419 222 c 0
 419 340 362 391 287 391 c 0
 214 391 156 345 117 276 c 1
 120 126 164 29 276 29 c 0
EndSplineSet
Substitution2: "'onum' Oldstyle Figures lookup 25 subtable" six.osf
Substitution2: "'tnum' Tabular Numbers lookup 24 subtable" six.tf
Substitution2: "'frac' Diagonal Fractions lookup 18 subtable" six.numr
Substitution2: "'dnom' Denominators lookup 16 subtable" six.dnom
Substitution2: "'numr' Numerators lookup 15 subtable" six.numr
Substitution2: "'sups' Superscript lookup 14 subtable" uni2076
Substitution2: "'subs' Subscript lookup 13 subtable" uni2086
AlternateSubs2: "'aalt' Access All Alternates lookup 1 subtable" uni2086 uni2076 six.numr six.dnom six.tf six.osf
EndChar
StartChar: seven
Encoding: 55 55 2018
Width: 434
Flags: MW
HStem: -7 21G<131 131> 624 40<32 348 32 397>
VStem: 32 365<627 664 627 664 627 664>
LayerCount: 2
Back
Fore
SplineSet
397 664 m 1
 397 627 l 1
 131 -7 l 1
 87 8 l 1
 348 624 l 1
 32 624 l 1
 32 664 l 1
 397 664 l 1
EndSplineSet
Substitution2: "'onum' Oldstyle Figures lookup 25 subtable" seven.osf
Substitution2: "'tnum' Tabular Numbers lookup 24 subtable" seven.tf
Substitution2: "'frac' Diagonal Fractions lookup 18 subtable" seven.numr
Substitution2: "'dnom' Denominators lookup 16 subtable" seven.dnom
Substitution2: "'numr' Numerators lookup 15 subtable" seven.numr
Substitution2: "'sups' Superscript lookup 14 subtable" uni2077
Substitution2: "'subs' Subscript lookup 13 subtable" uni2087
AlternateSubs2: "'aalt' Access All Alternates lookup 1 subtable" uni2087 uni2077 seven.numr seven.dnom seven.tf seven.osf
EndChar
StartChar: eight
Encoding: 56 56 2019
Width: 533
Flags: MW
HStem: -11 41<218 313.5 218 327.5> 637 38<229 306>
VStem: 56 48<124.5 212 124.5 215> 86 46<478 551 478 563.5> 402 47<477.5 550.5> 429 48<125 213>
LayerCount: 2
Back
Fore
SplineSet
326 350 m 1xe4
 429 309 477 261 477 171 c 0
 477 60 390 -11 265 -11 c 0
 137 -11 56 63 56 170 c 0xe4
 56 260 109 323 203 358 c 1
 123 393 86 435 86 511 c 0
 86 616 173 675 267 675 c 0
 360 675 449 620 449 511 c 0xd8
 449 439 410 393 326 350 c 1xe4
132 510 m 0xd8
 132 446 162 413 254 378 c 2
 291 364 l 1
 369 404 402 446 402 509 c 0
 402 592 345 637 267 637 c 0
 191 637 132 592 132 510 c 0xd8
266 30 m 0xe4
 361 30 429 79 429 171 c 0
 429 255 385 289 280 329 c 2
 244 343 l 1
 145 306 104 254 104 170 c 0
 104 79 170 30 266 30 c 0xe4
EndSplineSet
Substitution2: "'onum' Oldstyle Figures lookup 25 subtable" eight.osf
Substitution2: "'tnum' Tabular Numbers lookup 24 subtable" eight.tf
Substitution2: "'frac' Diagonal Fractions lookup 18 subtable" eight.numr
Substitution2: "'dnom' Denominators lookup 16 subtable" eight.dnom
Substitution2: "'numr' Numerators lookup 15 subtable" eight.numr
Substitution2: "'sups' Superscript lookup 14 subtable" uni2078
Substitution2: "'subs' Subscript lookup 13 subtable" uni2088
AlternateSubs2: "'aalt' Access All Alternates lookup 1 subtable" uni2088 uni2078 eight.numr eight.dnom eight.tf eight.osf
EndChar
StartChar: nine
Encoding: 57 57 2020
Width: 515
Flags: MW
HStem: 250 40<200.5 270.5> 636 39<208.5 308>
VStem: 56 48<403.5 514.5 403.5 525.5> 404 47<396 475>
LayerCount: 2
Back
Fore
SplineSet
254 675 m 0
 390 675 451 572 451 404 c 0
 451 146 335 48 124 -18 c 1
 112 18 l 1
 287 73 392 160 403 347 c 1
 363 286 306 250 235 250 c 0
 133 250 56 329 56 458 c 0
 56 593 140 675 254 675 c 0
242 290 m 0
 311 290 360 328 404 396 c 1
 404 554 361 636 255 636 c 0
 162 636 104 572 104 457 c 0
 104 350 159 290 242 290 c 0
EndSplineSet
Substitution2: "'onum' Oldstyle Figures lookup 25 subtable" nine.osf
Substitution2: "'tnum' Tabular Numbers lookup 24 subtable" nine.tf
Substitution2: "'frac' Diagonal Fractions lookup 18 subtable" nine.numr
Substitution2: "'dnom' Denominators lookup 16 subtable" nine.dnom
Substitution2: "'numr' Numerators lookup 15 subtable" nine.numr
Substitution2: "'sups' Superscript lookup 14 subtable" uni2079
Substitution2: "'subs' Subscript lookup 13 subtable" uni2089
AlternateSubs2: "'aalt' Access All Alternates lookup 1 subtable" uni2089 uni2079 nine.numr nine.dnom nine.tf nine.osf
EndChar
StartChar: semicolon
Encoding: 59 59 2131
Width: 195
Flags: MW
HStem: -5 21G<78 78> 388 80<85.5 109.5>
VStem: 57 81<21.5 40 416.5 438.5>
LayerCount: 2
Back
Fore
SplineSet
97 468 m 0
 122 468 138 450 138 427 c 0
 138 406 122 388 97 388 c 0
 74 388 57 406 57 427 c 0
 57 450 74 468 97 468 c 0
97 69 m 0
 122 69 138 51 138 29 c 0
 138 14 131 -3 124 -20 c 2
 72 -146 l 1
 38 -146 l 1
 78 -5 l 1
 65 1 57 14 57 29 c 0
 57 51 74 69 97 69 c 0
EndSplineSet
EndChar
StartChar: less
Encoding: 60 60 2259
Width: 496
GlyphClass: 2
Flags: MW
HStem: 142 379<410 410>
VStem: 69 44<333 333 333 353 333 353>
LayerCount: 2
Back
Fore
SplineSet
410 521 m 1
 427 482 l 1
 113 333 l 1
 427 181 l 1
 410 142 l 1
 69 313 l 1
 69 353 l 1
 410 521 l 1
EndSplineSet
Substitution2: "'onum' Oldstyle Figures lookup 25 subtable" less.osf
Substitution2: "'tnum' Tabular Numbers lookup 24 subtable" less.tf
AlternateSubs2: "'aalt' Access All Alternates lookup 1 subtable" less.tf less.osf
EndChar
StartChar: equal
Encoding: 61 61 2251
Width: 491
GlyphClass: 2
Flags: MW
HStem: 226 41<72 419 72 419> 394 42<72 419 72 419>
VStem: 72 347<226 267 226 267 394 436 226 436>
LayerCount: 2
Back
Fore
SplineSet
72 394 m 1
 72 436 l 1
 419 436 l 1
 419 394 l 1
 72 394 l 1
72 226 m 1
 72 267 l 1
 419 267 l 1
 419 226 l 1
 72 226 l 1
EndSplineSet
Substitution2: "'onum' Oldstyle Figures lookup 25 subtable" equal.osf
Substitution2: "'tnum' Tabular Numbers lookup 24 subtable" equal.tf
Substitution2: "'dnom' Denominators lookup 16 subtable" equal.dnom
Substitution2: "'numr' Numerators lookup 15 subtable" equal.numr
Substitution2: "'sups' Superscript lookup 14 subtable" uni207C
AlternateSubs2: "'aalt' Access All Alternates lookup 1 subtable" uni207C equal.numr equal.dnom equal.tf equal.osf
EndChar

StartChar: greater
Encoding: 62 62 1096
Width: 496
Flags: MW
HStem: 501 20G<86 86>
VStem: 383 44<333 333>
LayerCount: 2
Fore
SplineSet
427 353 m 1
 427 313 l 1
 86 142 l 1
 69 181 l 1
 383 333 l 1
 69 482 l 1
 86 521 l 1
 427 353 l 1
EndSplineSet
Substitution2: "'onum' Oldstyle Figures lookup 22 subtable" greater.osf
Substitution2: "'tnum' Tabular Numbers lookup 21 subtable" greater.tf
AlternateSubs2: "'aalt' Access All Alternates lookup 1 subtable" greater.tf greater.osf
EndChar
StartChar: question
Encoding: 63 63 2127
Width: 443
Flags: MW
HStem: -11 80<183.5 207.5> 654 40<199 267.5>
VStem: 155 81<18 40> 170 45<214 272 214 276 214 360> 350 49<486.5 581.5>
LayerCount: 2
Back
Fore
SplineSet
233 694 m 0xd8
 338 694 399 629 399 552 c 0
 399 401 215 421 215 272 c 2
 215 214 l 1
 170 214 l 1
 170 276 l 2
 170 444 350 423 350 550 c 0
 350 613 304 654 231 654 c 0
 167 654 124 630 77 579 c 1
 45 604 l 1
 98 665 155 694 233 694 c 0xd8
195 69 m 0xe8
 220 69 236 51 236 29 c 0
 236 7 220 -11 195 -11 c 0
 172 -11 155 7 155 29 c 0
 155 51 172 69 195 69 c 0xe8
EndSplineSet
EndChar

StartChar: at
Encoding: 64 64 1218
Width: 1020
Flags: MW
HStem: -203 41<408.5 563 408.5 568.5> 13 38<727 787.5 727 800.5> 15 39<453 521> 444 38<476 544.5> 654 40<409 641.5>
VStem: 90 47<118.5 355 118.5 366.5> 319 46<172.5 299.5 172.5 317.5> 622 44<166 189 189 421 421 421> 883 47<208 403>
LayerCount: 2
Fore
SplineSet
526 694 m 0xbf80
 793 694 930 513 930 308 c 0
 930 97 847 13 754 13 c 0xdf80
 688 13 647 61 635 124 c 1
 605 57 557 15 485 15 c 0xbf80
 393 15 319 91 319 232 c 0
 319 403 410 482 525 482 c 0
 576 482 624 467 666 446 c 1
 666 189 l 2
 666 94 700 51 754 51 c 0xdf80
 821 51 883 110 883 306 c 0
 883 500 757 654 526 654 c 0
 292 654 137 467 137 243 c 0
 137 -6 292 -162 525 -162 c 0
 601 -162 658 -149 713 -129 c 1
 725 -167 l 1
 667 -187 613 -203 524 -203 c 0
 272 -203 90 -36 90 243 c 0
 90 490 265 694 526 694 c 0xbf80
490 54 m 0
 558 54 604 110 622 166 c 1
 622 421 l 1
 592 436 563 444 526 444 c 0
 426 444 365 367 365 232 c 0
 365 113 416 54 490 54 c 0
EndSplineSet
EndChar

StartChar: C
Encoding: 67 67 14
Width: 547
GlyphClass: 2
Flags: MW
HStem: -11 43<281.5 380 281.5 383> 653 41<284.5 376>
VStem: 70 50<236.5 453 236.5 459.5>
AnchorPoint: "Anchor-11" 342 0 basechar 0
AnchorPoint: "Anchor-10" 0 0 basechar 0
AnchorPoint: "Anchor-9" 343 684 basechar 0
AnchorPoint: "Anchor-8" 0 0 basechar 0
LayerCount: 2
Fore
SplineSet
344 694 m 0
 422 694 468 671 515 633 c 1
 489 601 l 1
 443 637 405 653 347 653 c 0
 222 653 120 564 120 342 c 0
 120 131 219 32 344 32 c 0
 416 32 456 58 496 90 c 1
 523 58 l 1
 481 19 424 -11 342 -11 c 0
 186 -11 70 112 70 342 c 0
 70 577 193 694 344 694 c 0
EndSplineSet
Substitution2: "'c2sc' Capitals to Small Capitals lookup 23 subtable" c.sc
Substitution2: "'aalt' Access All Alternates lookup 0 subtable" c.sc
Position2: "'cpsp' Capital Spacing lookup 0 subtable" dx=5 dy=0 dh=10 dv=0
EndChar

StartChar: E
Encoding: 69 69 24
Width: 504
GlyphClass: 2
Flags: MW
HStem: 0 41<162 460 162 460> 336 41<162 409 162 409> 643 41<162 448 162 162>
VStem: 115 47<41 336 377 643>
AnchorPoint: "Anchor-11" 285 0 basechar 0
AnchorPoint: "Anchor-10" 90 684 basechar 0
AnchorPoint: "Anchor-9" 289 684 basechar 0
AnchorPoint: "Anchor-8" 441 0 basechar 0
LayerCount: 2
Fore
SplineSet
448 643 m 1
 162 643 l 1
 162 377 l 1
 409 377 l 1
 409 336 l 1
 162 336 l 1
 162 41 l 1
 460 41 l 1
 460 0 l 1
 115 0 l 1
 115 684 l 1
 454 684 l 1
 448 643 l 1
EndSplineSet
Substitution2: "'c2sc' Capitals to Small Capitals lookup 23 subtable" e.sc
Substitution2: "'aalt' Access All Alternates lookup 0 subtable" e.sc
Position2: "'cpsp' Capital Spacing lookup 0 subtable" dx=5 dy=0 dh=10 dv=0
EndChar

StartChar: F
Encoding: 70 70 34
Width: 477
GlyphClass: 2
Flags: MW
HStem: 0 21G<115 162 115 115> 324 40<162 404 162 404> 643 41<162 442 162 162>
VStem: 115 47<0 324 364 643>
LayerCount: 2
Fore
SplineSet
442 643 m 1
 162 643 l 1
 162 364 l 1
 404 364 l 1
 404 324 l 1
 162 324 l 1
 162 0 l 1
 115 0 l 1
 115 684 l 1
 448 684 l 1
 442 643 l 1
EndSplineSet
Substitution2: "'c2sc' Capitals to Small Capitals lookup 23 subtable" f.sc
Substitution2: "'aalt' Access All Alternates lookup 0 subtable" f.sc
Position2: "'cpsp' Capital Spacing lookup 0 subtable" dx=5 dy=0 dh=10 dv=0
EndChar

StartChar: H
Encoding: 72 72 40
Width: 667
GlyphClass: 2
Flags: MW
HStem: 0 21G<115 162 115 115 504 504 504 552> 339 42<162 504 162 504> 664 20G<115 162 162 162 504 552 552 552>
VStem: 115 47<0 339 0 381 381 684> 504 48<0 339 339 339 381 684 0 684>
AnchorPoint: "Anchor-11" 0 0 basechar 0
AnchorPoint: "Anchor-10" 90 684 basechar 0
AnchorPoint: "Anchor-9" 332 684 basechar 0
AnchorPoint: "Anchor-8" 0 0 basechar 0
LayerCount: 2
Fore
SplineSet
504 339 m 1
 162 339 l 1
 162 0 l 1
 115 0 l 1
 115 684 l 1
 162 684 l 1
 162 381 l 1
 504 381 l 1
 504 684 l 1
 552 684 l 1
 552 0 l 1
 504 0 l 1
 504 339 l 1
EndSplineSet
Substitution2: "'c2sc' Capitals to Small Capitals lookup 23 subtable" h.sc
Substitution2: "'aalt' Access All Alternates lookup 0 subtable" h.sc
Position2: "'cpsp' Capital Spacing lookup 0 subtable" dx=5 dy=0 dh=10 dv=0
EndChar

StartChar: I
Encoding: 73 73 43
Width: 277
GlyphClass: 2
Flags: MW
HStem: 0 21G<115 163 115 115> 664 20G<115 163 163 163>
VStem: 115 48<0 684>
AnchorPoint: "Anchor-11" 0 0 basechar 0
AnchorPoint: "Anchor-10" 90 684 basechar 0
AnchorPoint: "Anchor-9" 138 684 basechar 0
AnchorPoint: "Anchor-8" 173 0 basechar 0
LayerCount: 2
Fore
SplineSet
163 0 m 1
 115 0 l 1
 115 684 l 1
 163 684 l 1
 163 0 l 1
EndSplineSet
Substitution2: "'c2sc' Capitals to Small Capitals lookup 23 subtable" i.sc
Substitution2: "'aalt' Access All Alternates lookup 0 subtable" i.sc
Position2: "'cpsp' Capital Spacing lookup 0 subtable" dx=5 dy=0 dh=10 dv=0
EndChar
StartChar: J
Encoding: 74 74 137
Width: 286
GlyphClass: 2
Flags: MW
HStem: 664 20G<129 177 177 177>
VStem: 129 48<93 684>
AnchorPoint: "Anchor-14" 0 0 basechar 0
AnchorPoint: "Anchor-13" 0 0 basechar 0
AnchorPoint: "Anchor-12" 151 684 basechar 0
AnchorPoint: "Anchor-11" 0 0 basechar 0
AnchorPoint: "Anchor-10" 0 0 basechar 0
LayerCount: 2
Back
Fore
SplineSet
177 684 m 1
 177 90 l 2
 177 -24 141 -66 29 -113 c 1
 16 -78 l 1
 107 -36 129 0 129 93 c 2
 129 684 l 1
 177 684 l 1
EndSplineSet
Substitution2: "'c2sc' Capitals to Small Capitals lookup 26 subtable" j.sc
Substitution2: "'aalt' Access All Alternates lookup 0 subtable" j.sc
Position2: "'cpsp' Capital Spacing lookup 0 subtable" dx=5 dy=0 dh=10 dv=0
EndChar

StartChar: K
Encoding: 75 75 56
Width: 533
GlyphClass: 2
Flags: MW
HStem: 0 21G<115 162 115 115 474 474 474 533> 664 20G<115 162 162 162 461 516 516 516>
VStem: 115 47<0 684>
AnchorPoint: "Anchor-11" 304 0 basechar 0
AnchorPoint: "Anchor-10" 0 0 basechar 0
AnchorPoint: "Anchor-9" 300 684 basechar 0
AnchorPoint: "Anchor-8" 0 0 basechar 0
LayerCount: 2
Fore
SplineSet
162 0 m 1
 115 0 l 1
 115 684 l 1
 162 684 l 1
 162 0 l 1
224 369 m 1
 533 0 l 1
 474 0 l 1
 166 367 l 1
 461 684 l 1
 516 684 l 1
 224 369 l 1
EndSplineSet
Substitution2: "'c2sc' Capitals to Small Capitals lookup 23 subtable" k.sc
Substitution2: "'aalt' Access All Alternates lookup 0 subtable" k.sc
Position2: "'cpsp' Capital Spacing lookup 0 subtable" dx=5 dy=0 dh=10 dv=0
EndChar

StartChar: L
Encoding: 76 76 58
Width: 466
GlyphClass: 2
Flags: MW
HStem: 0 44<162 443> 664 20G<115 162 162 162>
VStem: 115 47<44 44 44 684>
AnchorPoint: "Anchor-11" 282 0 basechar 0
AnchorPoint: "Anchor-10" 0 0 basechar 0
AnchorPoint: "Anchor-9" 139 684 basechar 0
AnchorPoint: "Anchor-8" 0 0 basechar 0
LayerCount: 2
Fore
SplineSet
162 44 m 1
 450 44 l 1
 443 0 l 1
 115 0 l 1
 115 684 l 1
 162 684 l 1
 162 44 l 1
EndSplineSet
Substitution2: "'c2sc' Capitals to Small Capitals lookup 23 subtable" l.sc
Substitution2: "'aalt' Access All Alternates lookup 0 subtable" l.sc
Position2: "'cpsp' Capital Spacing lookup 0 subtable" dx=5 dy=0 dh=10 dv=0
EndChar

StartChar: N
Encoding: 78 78 65
Width: 669
GlyphClass: 2
Flags: MW
HStem: 0 53<515 515 515 554 493 515> 631 53<154 154>
VStem: 115 45<0 407 0 684> 509 45<253 684>
AnchorPoint: "Anchor-11" 335 0 basechar 0
AnchorPoint: "Anchor-10" 0 0 basechar 0
AnchorPoint: "Anchor-9" 343 684 basechar 0
AnchorPoint: "Anchor-8" 0 0 basechar 0
LayerCount: 2
Fore
SplineSet
554 0 m 1
 493 0 l 1
 154 631 l 1
 157 587 160 528 160 407 c 2
 160 0 l 1
 115 0 l 1
 115 684 l 1
 176 684 l 1
 515 53 l 1
 513 86 509 163 509 253 c 2
 509 684 l 1
 554 684 l 1
 554 0 l 1
EndSplineSet
Substitution2: "'c2sc' Capitals to Small Capitals lookup 23 subtable" n.sc
Substitution2: "'aalt' Access All Alternates lookup 0 subtable" n.sc
Position2: "'cpsp' Capital Spacing lookup 0 subtable" dx=5 dy=0 dh=10 dv=0
EndChar
StartChar: R
Encoding: 82 82 225
Width: 584
GlyphClass: 2
Flags: MW
HStem: 0 21G<115 162 115 115 490 548 490 490> 313 40<162 283 283 310 162 283> 643 41<162 273 162 162>
VStem: 115 47<0 313 353 643> 463 50<449.5 547.5>
AnchorPoint: "Anchor-14" 0 0 basechar 0
AnchorPoint: "Anchor-13" 0 0 basechar 0
AnchorPoint: "Anchor-12" 292 684 basechar 0
AnchorPoint: "Anchor-11" 0 0 basechar 0
AnchorPoint: "Anchor-10" 306 0 basechar 0
LayerCount: 2
Back
Fore
SplineSet
490 0 m 1
 310 313 l 1
 162 313 l 1
 162 0 l 1
 115 0 l 1
 115 684 l 1
 276 684 l 2
 438 684 513 619 513 501 c 0
 513 397 454 344 359 321 c 1
 548 0 l 1
 490 0 l 1
162 353 m 1
 283 353 l 2
 397 353 463 398 463 501 c 0
 463 594 411 643 273 643 c 2
 162 643 l 1
 162 353 l 1
EndSplineSet
Substitution2: "'c2sc' Capitals to Small Capitals lookup 26 subtable" r.sc
Substitution2: "'aalt' Access All Alternates lookup 0 subtable" r.sc
Position2: "'cpsp' Capital Spacing lookup 0 subtable" dx=5 dy=0 dh=10 dv=0
EndChar
StartChar: T
Encoding: 84 84 247
Width: 487
GlyphClass: 2
Flags: MW
HStem: 0 21G<220 267 220 220> 641 43<15 220 15 477 267 471 267 267>
VStem: 220 47<0 641 0 641>
AnchorPoint: "Anchor-14" 244 347 basechar 0
AnchorPoint: "Anchor-13" 0 0 basechar 0
AnchorPoint: "Anchor-12" 244 684 basechar 0
AnchorPoint: "Anchor-11" 0 0 basechar 0
AnchorPoint: "Anchor-10" 244 0 basechar 0
LayerCount: 2
Back
Fore
SplineSet
477 684 m 1
 471 641 l 1
 267 641 l 1
 267 0 l 1
 220 0 l 1
 220 641 l 1
 15 641 l 1
 15 684 l 1
 477 684 l 1
EndSplineSet
Substitution2: "'c2sc' Capitals to Small Capitals lookup 26 subtable" t.sc
Substitution2: "'aalt' Access All Alternates lookup 0 subtable" t.sc
Position2: "'cpsp' Capital Spacing lookup 0 subtable" dx=5 dy=0 dh=10 dv=0
EndChar
StartChar: V
Encoding: 86 86 291
Width: 543
GlyphClass: 2
Flags: MW
HStem: 0 48<272 272 272 299 244 272> 664 20G<20 71 71 71 473 523 523 523>
VStem: 20 503<684 684>
LayerCount: 2
Back
Fore
SplineSet
523 684 m 1
 299 0 l 1
 244 0 l 1
 20 684 l 1
 71 684 l 1
 272 48 l 1
 473 684 l 1
 523 684 l 1
EndSplineSet
Substitution2: "'c2sc' Capitals to Small Capitals lookup 26 subtable" v.sc
Substitution2: "'aalt' Access All Alternates lookup 0 subtable" v.sc
Position2: "'cpsp' Capital Spacing lookup 0 subtable" dx=5 dy=0 dh=10 dv=0
EndChar

StartChar: W
Encoding: 87 87 113
Width: 804
GlyphClass: 2
Flags: MW
HStem: 0 45<218 218 218 244 187 218> 633 51<402 402>
VStem: 32 739<684 684>
AnchorPoint: "Anchor-11" 0 0 basechar 0
AnchorPoint: "Anchor-10" 0 0 basechar 0
AnchorPoint: "Anchor-9" 402 684 basechar 0
AnchorPoint: "Anchor-8" 0 0 basechar 0
LayerCount: 2
Fore
SplineSet
617 0 m 1
 559 0 l 1
 402 633 l 1
 244 0 l 1
 187 0 l 1
 32 684 l 1
 81 684 l 1
 218 45 l 1
 375 684 l 1
 429 684 l 1
 588 45 l 1
 725 684 l 1
 771 684 l 1
 617 0 l 1
EndSplineSet
Substitution2: "'c2sc' Capitals to Small Capitals lookup 23 subtable" w.sc
Substitution2: "'aalt' Access All Alternates lookup 0 subtable" w.sc
Position2: "'cpsp' Capital Spacing lookup 0 subtable" dx=5 dy=0 dh=10 dv=0
EndChar

StartChar: X
Encoding: 88 88 118
Width: 502
GlyphClass: 2
Flags: MW
HStem: 0 21G<12 64 12 12 439 493 439 439> 664 20G<33 87 87 87 411 463 463 463>
VStem: 12 481<0 0>
LayerCount: 2
Fore
SplineSet
493 0 m 1
 439 0 l 1
 249 338 l 1
 64 0 l 1
 12 0 l 1
 222 368 l 1
 33 684 l 1
 87 684 l 1
 250 399 l 1
 411 684 l 1
 463 684 l 1
 278 371 l 1
 493 0 l 1
EndSplineSet
Substitution2: "'c2sc' Capitals to Small Capitals lookup 23 subtable" x.sc
Substitution2: "'aalt' Access All Alternates lookup 0 subtable" x.sc
Position2: "'cpsp' Capital Spacing lookup 0 subtable" dx=5 dy=0 dh=10 dv=0
EndChar
StartChar: Y
Encoding: 89 89 302
Width: 513
GlyphClass: 2
Flags: MW
HStem: 0 21G<234 281 234 234> 664 20G<16 69 69 69 445 497 497 497>
VStem: 234 47<0 268 268 268>
AnchorPoint: "Anchor-14" 0 0 basechar 0
AnchorPoint: "Anchor-13" 0 0 basechar 0
AnchorPoint: "Anchor-12" 256 684 basechar 0
AnchorPoint: "Anchor-11" 0 0 basechar 0
AnchorPoint: "Anchor-10" 258 0 basechar 0
LayerCount: 2
Back
Fore
SplineSet
497 684 m 1
 281 269 l 1
 281 0 l 1
 234 0 l 1
 234 268 l 1
 16 684 l 1
 69 684 l 1
 259 310 l 1
 445 684 l 1
 497 684 l 1
EndSplineSet
Substitution2: "'c2sc' Capitals to Small Capitals lookup 26 subtable" y.sc
Substitution2: "'aalt' Access All Alternates lookup 0 subtable" y.sc
Position2: "'cpsp' Capital Spacing lookup 0 subtable" dx=5 dy=0 dh=10 dv=0
EndChar
StartChar: Z
Encoding: 90 90 315
Width: 514
GlyphClass: 2
Flags: MW
HStem: 0 43<92 450> 642 42<75 412 75 465>
VStem: 37 428
AnchorPoint: "Anchor-14" 0 0 basechar 0
AnchorPoint: "Anchor-13" 0 0 basechar 0
AnchorPoint: "Anchor-12" 260 684 basechar 0
AnchorPoint: "Anchor-11" 0 0 basechar 0
AnchorPoint: "Anchor-10" 258 0 basechar 0
LayerCount: 2
Back
Fore
SplineSet
465 684 m 1
 465 644 l 1
 92 43 l 1
 456 43 l 1
 450 0 l 1
 37 0 l 1
 37 40 l 1
 412 642 l 1
 75 642 l 1
 75 684 l 1
 465 684 l 1
EndSplineSet
Substitution2: "'c2sc' Capitals to Small Capitals lookup 26 subtable" z.sc
Substitution2: "'aalt' Access All Alternates lookup 0 subtable" z.sc
Position2: "'cpsp' Capital Spacing lookup 0 subtable" dx=5 dy=0 dh=10 dv=0
EndChar

StartChar: bracketleft
Encoding: 91 91 1005
Width: 315
Flags: MW
HStem: -111 37<133 243 133 243> 766 37<133 243 133 133>
VStem: 91 42<-74 766 -74 803 -74 803>
LayerCount: 2
Fore
SplineSet
243 766 m 1
 133 766 l 1
 133 -74 l 1
 243 -74 l 1
 243 -111 l 1
 91 -111 l 1
 91 803 l 1
 243 803 l 1
 243 766 l 1
EndSplineSet
Substitution2: "'case' Case-Sensitive Forms lookup 25 subtable" bracketleft.case
Substitution2: "'aalt' Access All Alternates lookup 0 subtable" bracketleft.case
EndChar
StartChar: backslash
Encoding: 92 92 2113
Width: 520
Flags: MW
HStem: -98 899<164 355>
VStem: 124 272
LayerCount: 2
Back
Fore
SplineSet
164 801 m 1
 396 -88 l 1
 355 -98 l 1
 124 791 l 1
 164 801 l 1
EndSplineSet
EndChar
StartChar: bracketright
Encoding: 93 93 2143
Width: 315
Flags: MW
HStem: -111 37<72 182 72 224 72 182> 766 37<72 182 72 224>
VStem: 182 42<-74 766 766 766>
LayerCount: 2
Back
Fore
SplineSet
224 803 m 1
 224 -111 l 1
 72 -111 l 1
 72 -74 l 1
 182 -74 l 1
 182 766 l 1
 72 766 l 1
 72 803 l 1
 224 803 l 1
EndSplineSet
Substitution2: "'case' Case-Sensitive Forms lookup 28 subtable" bracketright.case
Substitution2: "'aalt' Access All Alternates lookup 0 subtable" bracketright.case
EndChar

StartChar: asciicircum
Encoding: 94 94 1228
Width: 527
Flags: MW
HStem: 527 303<62 282 62 282 245 465 245 412>
VStem: 62 403<527 527>
LayerCount: 2
Fore
SplineSet
465 527 m 1
 412 527 l 1
 264 781 l 1
 116 527 l 1
 62 527 l 1
 245 830 l 1
 282 830 l 1
 465 527 l 1
EndSplineSet
EndChar

StartChar: underscore
Encoding: 95 95 995
Width: 520
Flags: MW
HStem: -115 42<33 488 33 488>
VStem: 33 455<-115 -73 -115 -73>
LayerCount: 2
Fore
SplineSet
33 -73 m 1
 488 -73 l 1
 488 -115 l 1
 33 -115 l 1
 33 -73 l 1
EndSplineSet
EndChar

StartChar: grave
Encoding: 96 96 1257
Width: 265
Flags: MW
HStem: 648 128
VStem: 30 205<676 732>
LayerCount: 2
Fore
SplineSet
235 676 m 1
 220 648 l 1
 30 732 l 1
 51 776 l 1
 235 676 l 1
EndSplineSet
Substitution2: "'case' Case-Sensitive Forms lookup 25 subtable" grave.case
Substitution2: "'smcp' Lowercase to Small Capitals lookup 24 subtable" grave.sc
Substitution2: "'c2sc' Capitals to Small Capitals lookup 23 subtable" grave.sc
AlternateSubs2: "'aalt' Access All Alternates lookup 1 subtable" grave.sc grave.case
EndChar

StartChar: b
Encoding: 98 98 146
Width: 576
GlyphClass: 2
Flags: MW
HStem: -11 40<274 351 270.5 371.5> 0 21G<110 150 110 110> 493 39<281 356> 715 20G<110 110> 721 20G<156 156>
VStem: 110 46<115 401 447 735 735 735> 456 49<186.5 342>
LayerCount: 2
Fore
SplineSet
316 532 m 0xae
 436 532 505 437 505 264 c 0
 505 95 434 -11 309 -11 c 0
 239 -11 188 25 155 69 c 1xae
 150 0 l 1
 110 0 l 1
 110 735 l 1x76
 156 741 l 1
 156 447 l 1
 194 497 246 532 316 532 c 0xae
302 29 m 0
 400 29 456 109 456 264 c 0
 456 420 403 493 309 493 c 0
 238 493 195 454 156 401 c 1
 156 115 l 1
 190 65 239 29 302 29 c 0
EndSplineSet
Substitution2: "'smcp' Lowercase to Small Capitals lookup 24 subtable" b.sc
Substitution2: "'aalt' Access All Alternates lookup 0 subtable" b.sc
EndChar
StartChar: f
Encoding: 102 102 448
Width: 316
GlyphClass: 2
Flags: MW
HStem: 0 21G<114 160 114 114> 483 39<25 114 25 114 160 295> 701 40<225 272.5>
VStem: 114 46<0 483 0 483 522 610>
AnchorPoint: "Anchor-14" 0 0 basechar 0
AnchorPoint: "Anchor-13" 0 0 basechar 0
AnchorPoint: "Anchor-12" 253 735 basechar 0
AnchorPoint: "Anchor-11" 0 0 basechar 0
AnchorPoint: "Anchor-10" 137 0 basechar 0
LayerCount: 2
Back
Fore
SplineSet
255 701 m 0
 195 701 160 675 160 610 c 2
 160 522 l 1
 302 522 l 1
 295 483 l 1
 160 483 l 1
 160 0 l 1
 114 0 l 1
 114 483 l 1
 25 483 l 1
 25 522 l 1
 114 522 l 1
 114 612 l 2
 114 693 168 741 253 741 c 0
 296 741 336 731 373 713 c 1
 356 678 l 1
 322 693 290 701 255 701 c 0
EndSplineSet
Substitution2: "'smcp' Lowercase to Small Capitals lookup 27 subtable" f.sc
Substitution2: "'aalt' Access All Alternates lookup 0 subtable" f.sc
EndChar
StartChar: i
Encoding: 105 105 478
Width: 266
GlyphClass: 2
Flags: MW
HStem: 0 21G<110 156 110 110> 502 20G<110 156 156 156> 674 70<122 144>
VStem: 97 72<699.5 718.5> 110 46<0 522 0 522>
AnchorPoint: "Anchor-14" 0 0 basechar 0
AnchorPoint: "Anchor-13" 0 0 basechar 0
AnchorPoint: "Anchor-12" 134 680 basechar 0
AnchorPoint: "Anchor-11" 166 0 basechar 0
AnchorPoint: "Anchor-10" 133 0 basechar 0
LayerCount: 2
Back
Fore
SplineSet
133 744 m 0xf0
 155 744 169 728 169 709 c 0
 169 690 155 674 133 674 c 0
 111 674 97 690 97 709 c 0
 97 728 111 744 133 744 c 0xf0
156 522 m 1xe8
 156 0 l 1
 110 0 l 1
 110 522 l 1
 156 522 l 1xe8
EndSplineSet
Substitution2: "'smcp' Lowercase to Small Capitals lookup 27 subtable" i.sc
Substitution2: "'locl' Localized Forms in Latin lookup 10 subtable" i.loclTRK
Substitution2: "'locl' Localized Forms in Latin lookup 8 subtable" i.loclTRK
Substitution2: "'locl' Localized Forms in Latin lookup 6 subtable" i.loclTRK
Substitution2: "'locl' Localized Forms in Latin lookup 3 subtable" i.loclTRK
Substitution2: "'locl' Localized Forms in Latin lookup 2 subtable" i.loclTRK
AlternateSubs2: "'aalt' Access All Alternates lookup 1 subtable" i.loclTRK i.sc
EndChar

StartChar: j
Encoding: 106 106 188
Width: 266
GlyphClass: 2
Flags: MW
HStem: -200 21G<25 25> 502 20G<110 156 156 156> 674 70<122 144>
VStem: 97 72<699.5 718.5> 110 46<13 14 14 522>
AnchorPoint: "Anchor-11" 0 0 basechar 0
AnchorPoint: "Anchor-10" 0 0 basechar 0
AnchorPoint: "Anchor-9" 133 522 basechar 0
AnchorPoint: "Anchor-8" 0 0 basechar 0
LayerCount: 2
Fore
SplineSet
133 744 m 0xf0
 155 744 169 728 169 709 c 0
 169 690 155 674 133 674 c 0
 111 674 97 690 97 709 c 0
 97 728 111 744 133 744 c 0xf0
156 14 m 2xe8
 156 -122 114 -158 25 -200 c 1
 12 -167 l 1
 81 -132 110 -103 110 13 c 2
 110 522 l 1
 156 522 l 1
 156 14 l 2xe8
EndSplineSet
Substitution2: "'smcp' Lowercase to Small Capitals lookup 24 subtable" j.sc
Substitution2: "'aalt' Access All Alternates lookup 0 subtable" j.sc
EndChar

StartChar: k
Encoding: 107 107 191
Width: 480
GlyphClass: 2
Flags: MW
HStem: 0 21G<110 156 110 110 413 413 413 469> 502 20G<391 445 445 445> 715 20G<110 110> 721 20G<156 156>
VStem: 110 46<0 735 735 735>
AnchorPoint: "Anchor-11" 265 0 basechar 0
AnchorPoint: "Anchor-10" 0 0 basechar 0
AnchorPoint: "Anchor-9" 0 0 basechar 0
AnchorPoint: "Anchor-8" 0 0 basechar 0
LayerCount: 2
Fore
SplineSet
156 0 m 1xd8
 110 0 l 1
 110 735 l 1xe8
 156 741 l 1
 156 0 l 1xd8
217 287 m 1
 469 0 l 1
 413 0 l 1
 162 285 l 1
 391 522 l 1
 445 522 l 1
 217 287 l 1
EndSplineSet
Substitution2: "'smcp' Lowercase to Small Capitals lookup 24 subtable" k.sc
Substitution2: "'aalt' Access All Alternates lookup 0 subtable" k.sc
EndChar

StartChar: l
Encoding: 108 108 194
Width: 281
GlyphClass: 2
Flags: MW
HStem: -11 41<180.5 200> 715 20G<105 105> 721 20G<151 151>
VStem: 105 46<85 735 735 735>
AnchorPoint: "Anchor-11" 134 0 basechar 0
AnchorPoint: "Anchor-10" 0 0 basechar 0
AnchorPoint: "Anchor-9" 0 0 basechar 0
AnchorPoint: "Anchor-8" 0 0 basechar 0
LayerCount: 2
Fore
SplineSet
151 84 m 2xb0
 151 48 164 30 197 30 c 0
 209 30 222 33 233 37 c 1
 246 2 l 1
 230 -5 210 -11 190 -11 c 0
 137 -11 105 19 105 85 c 2
 105 735 l 1xd0
 151 741 l 1
 151 84 l 2xb0
EndSplineSet
Substitution2: "'smcp' Lowercase to Small Capitals lookup 24 subtable" l.sc
Substitution2: "'aalt' Access All Alternates lookup 0 subtable" l.sc
EndChar

StartChar: m
Encoding: 109 109 200
Width: 851
GlyphClass: 2
Flags: MW
HStem: 0 21G<110 156 110 110 405 451 405 405 700 746 700 700> 494 38<284 340.5 578.5 635.5> 502 20G<110 150 150 150>
VStem: 110 46<0 381 0 522> 405 46<0 366 366 381 0 410> 700 46<0 366 366 372 0 410>
LayerCount: 2
Fore
SplineSet
613 532 m 0xdc
 697 532 746 472 746 372 c 2
 746 0 l 1
 700 0 l 1
 700 366 l 2
 700 454 665 494 606 494 c 0
 541 494 492 447 451 381 c 1
 451 0 l 1
 405 0 l 1
 405 366 l 2
 405 454 370 494 311 494 c 0xdc
 246 494 197 447 156 381 c 1
 156 0 l 1
 110 0 l 1
 110 522 l 1
 150 522 l 1xbc
 154 430 l 1
 194 491 250 532 318 532 c 0
 386 532 431 492 446 425 c 1
 487 488 544 532 613 532 c 0xdc
EndSplineSet
Substitution2: "'smcp' Lowercase to Small Capitals lookup 24 subtable" m.sc
Substitution2: "'aalt' Access All Alternates lookup 0 subtable" m.sc
EndChar

StartChar: n
Encoding: 110 110 201
Width: 583
GlyphClass: 2
Flags: MW
HStem: 0 21G<110 156 110 110 432 478 432 432> 494 38<296 362> 502 20G<110 150 150 150>
VStem: 110 46<0 381 0 522> 432 46<0 366 366 372 0 410.5>
AnchorPoint: "Anchor-11" 290 0 basechar 0
AnchorPoint: "Anchor-10" 100 522 basechar 0
AnchorPoint: "Anchor-9" 297 522 basechar 0
AnchorPoint: "Anchor-8" 0 0 basechar 0
LayerCount: 2
Fore
SplineSet
335 532 m 0xd8
 430 532 478 474 478 372 c 2
 478 0 l 1
 432 0 l 1
 432 366 l 2
 432 455 396 494 328 494 c 0xd8
 252 494 201 447 156 381 c 1
 156 0 l 1
 110 0 l 1
 110 522 l 1
 150 522 l 1xb8
 154 429 l 1
 198 490 257 532 335 532 c 0xd8
EndSplineSet
Substitution2: "'smcp' Lowercase to Small Capitals lookup 24 subtable" n.sc
Substitution2: "'aalt' Access All Alternates lookup 0 subtable" n.sc
EndChar

StartChar: p
Encoding: 112 112 220
Width: 576
GlyphClass: 2
Flags: MW
HStem: -203 21G<110 110> -195 21G<156 156> -11 41<275 352 270.5 373> 493 39<281 358> 502 20G<110 150 150 150>
VStem: 110 46<-195 65 114 401> 456 49<187 340.5>
LayerCount: 2
Fore
SplineSet
316 532 m 0x76
 441 532 505 434 505 264 c 0
 505 97 437 -11 309 -11 c 0
 241 -11 188 23 156 65 c 1
 156 -195 l 1x76
 110 -203 l 1
 110 522 l 1
 150 522 l 1xae
 153 443 l 1
 191 496 246 532 316 532 c 0x76
302 30 m 0
 402 30 456 110 456 264 c 0
 456 417 406 493 310 493 c 0
 240 493 195 454 156 401 c 1
 156 114 l 1
 190 63 239 30 302 30 c 0
EndSplineSet
Substitution2: "'smcp' Lowercase to Small Capitals lookup 24 subtable" p.sc
Substitution2: "'aalt' Access All Alternates lookup 0 subtable" p.sc
EndChar

StartChar: r
Encoding: 114 114 223
Width: 369
GlyphClass: 2
Flags: MW
HStem: 0 21G<110 156 110 110> 489 43<265.5 309> 502 20G<110 150 150 150> 506 20G<355 355>
VStem: 110 46<0 326 0 522>
AnchorPoint: "Anchor-11" 132 0 basechar 0
AnchorPoint: "Anchor-10" 0 0 basechar 0
AnchorPoint: "Anchor-9" 231 522 basechar 0
AnchorPoint: "Anchor-8" 0 0 basechar 0
LayerCount: 2
Fore
SplineSet
303 532 m 0xc8
 325 532 343 530 355 526 c 1x98
 346 483 l 1
 333 487 318 489 300 489 c 0xc8
 225 489 185 435 156 326 c 1
 156 0 l 1
 110 0 l 1
 110 522 l 1
 150 522 l 1xa8
 153 401 l 1
 181 489 228 532 303 532 c 0xc8
EndSplineSet
Substitution2: "'smcp' Lowercase to Small Capitals lookup 24 subtable" r.sc
Substitution2: "'aalt' Access All Alternates lookup 0 subtable" r.sc
EndChar
StartChar: t
Encoding: 116 116 638
Width: 334
GlyphClass: 2
Flags: MW
HStem: -11 41<207.5 250.5 207.5 251> 483 39<21 108 21 108 154 286>
VStem: 108 46<123 126 126 483 522 649 649 649>
AnchorPoint: "Anchor-14" 163 261 basechar 0
AnchorPoint: "Anchor-13" 165 738 basechar 0
AnchorPoint: "Anchor-12" 131 649 basechar 0
AnchorPoint: "Anchor-11" 0 0 basechar 0
AnchorPoint: "Anchor-10" 225 0 basechar 0
LayerCount: 2
Back
Fore
SplineSet
319 54 m 1
 338 21 l 1
 307 1 272 -11 230 -11 c 0
 155 -11 108 34 108 123 c 2
 108 483 l 1
 21 483 l 1
 21 522 l 1
 108 522 l 1
 108 649 l 1
 154 654 l 1
 154 522 l 1
 292 522 l 1
 286 483 l 1
 154 483 l 1
 154 126 l 2
 154 62 180 30 235 30 c 0
 266 30 293 39 319 54 c 1
EndSplineSet
Substitution2: "'smcp' Lowercase to Small Capitals lookup 27 subtable" t.sc
Substitution2: "'aalt' Access All Alternates lookup 0 subtable" t.sc
EndChar

StartChar: v
Encoding: 118 118 250
Width: 462
GlyphClass: 2
Flags: MW
HStem: 0 40<235 235 235 264 206 235> 502 20G<17 68 68 68 395 445 445 445>
VStem: 17 428<522 522>
LayerCount: 2
Fore
SplineSet
264 0 m 1
 206 0 l 1
 17 522 l 1
 68 522 l 1
 235 40 l 1
 395 522 l 1
 445 522 l 1
 264 0 l 1
EndSplineSet
Substitution2: "'smcp' Lowercase to Small Capitals lookup 24 subtable" v.sc
Substitution2: "'aalt' Access All Alternates lookup 0 subtable" v.sc
EndChar
StartChar: w
Encoding: 119 119 694
Width: 692
GlyphClass: 2
Flags: MW
HStem: 0 37<503 503 503 534 472 503> 478 44<347 347>
VStem: 27 637<522 522>
AnchorPoint: "Anchor-14" 0 0 basechar 0
AnchorPoint: "Anchor-13" 0 0 basechar 0
AnchorPoint: "Anchor-12" 346 522 basechar 0
AnchorPoint: "Anchor-11" 0 0 basechar 0
AnchorPoint: "Anchor-10" 347 0 basechar 0
LayerCount: 2
Back
Fore
SplineSet
664 522 m 1
 534 0 l 1
 472 0 l 1
 347 478 l 1
 222 0 l 1
 161 0 l 1
 27 522 l 1
 76 522 l 1
 193 38 l 1
 321 522 l 1
 375 522 l 1
 503 37 l 1
 619 522 l 1
 664 522 l 1
EndSplineSet
Substitution2: "'smcp' Lowercase to Small Capitals lookup 27 subtable" w.sc
Substitution2: "'aalt' Access All Alternates lookup 0 subtable" w.sc
EndChar
StartChar: z
Encoding: 122 122 716
Width: 417
GlyphClass: 2
Flags: MW
HStem: 0 41<84 374> 481 41<53 328 53 382>
VStem: 29 353
AnchorPoint: "Anchor-14" 0 0 basechar 0
AnchorPoint: "Anchor-13" 0 0 basechar 0
AnchorPoint: "Anchor-12" 215 522 basechar 0
AnchorPoint: "Anchor-11" 0 0 basechar 0
AnchorPoint: "Anchor-10" 209 0 basechar 0
LayerCount: 2
Back
Fore
SplineSet
382 522 m 1
 382 485 l 1
 84 41 l 1
 379 41 l 1
 374 0 l 1
 29 0 l 1
 29 36 l 1
 328 481 l 1
 53 481 l 1
 53 522 l 1
 382 522 l 1
EndSplineSet
Substitution2: "'smcp' Lowercase to Small Capitals lookup 27 subtable" z.sc
Substitution2: "'aalt' Access All Alternates lookup 0 subtable" z.sc
EndChar
StartChar: braceleft
Encoding: 123 123 2140
Width: 327
Flags: MW
HStem: -127 35<225 256 225 256> 329 40<51 75.5> 790 36<225 256>
VStem: 129 43<-10 -9 -9 249 442 449 449 707>
LayerCount: 2
Back
Fore
SplineSet
256 826 m 1
 256 790 l 1
 194 790 172 764 172 707 c 2
 172 449 l 2
 172 381 147 361 97 349 c 1
 147 337 172 317 172 249 c 2
 172 -9 l 2
 172 -66 194 -92 256 -92 c 1
 256 -127 l 1
 172 -127 129 -92 129 -10 c 2
 129 257 l 2
 129 310 100 329 51 329 c 1
 51 369 l 1
 100 369 129 388 129 442 c 2
 129 709 l 2
 129 791 172 826 256 826 c 1
EndSplineSet
Substitution2: "'case' Case-Sensitive Forms lookup 28 subtable" braceleft.case
Substitution2: "'aalt' Access All Alternates lookup 0 subtable" braceleft.case
EndChar
StartChar: bar
Encoding: 124 124 2370
Width: 408
GlyphClass: 2
Flags: MW
HStem: -100 903<182 226 182 226>
VStem: 182 44<-100 803 -100 803>
LayerCount: 2
Back
Fore
SplineSet
226 803 m 1
 226 -100 l 1
 182 -100 l 1
 182 803 l 1
 226 803 l 1
EndSplineSet
EndChar

StartChar: braceright
Encoding: 125 125 1004
Width: 327
Flags: MW
HStem: -127 35<71 102 71 113> 329 40<252 276> 790 36<71 102>
VStem: 156 42<-9 249 249 257 449 707 707 709>
LayerCount: 2
Fore
SplineSet
71 826 m 1
 155 826 198 791 198 709 c 2
 198 442 l 2
 198 388 228 369 276 369 c 1
 276 329 l 1
 228 329 198 310 198 257 c 2
 198 -10 l 2
 198 -92 155 -127 71 -127 c 1
 71 -92 l 1
 133 -92 156 -66 156 -9 c 2
 156 249 l 2
 156 317 181 337 231 349 c 1
 181 361 156 381 156 449 c 2
 156 707 l 2
 156 764 133 790 71 790 c 1
 71 826 l 1
EndSplineSet
Substitution2: "'case' Case-Sensitive Forms lookup 25 subtable" braceright.case
Substitution2: "'aalt' Access All Alternates lookup 0 subtable" braceright.case
EndChar

StartChar: asciitilde
Encoding: 126 126 1087
Width: 466
Flags: MW
HStem: 269 41<288.5 328 288.5 334.5> 325 41<140 179.5>
VStem: 57 351<297 336>
LayerCount: 2
Fore
SplineSet
159 366 m 0
 222 366 265 310 312 310 c 0
 344 310 358 327 378 353 c 1
 408 336 l 1
 385 299 359 269 310 269 c 0xe0
 249 269 202 325 157 325 c 0
 123 325 108 306 88 280 c 1
 57 297 l 1
 81 335 108 366 159 366 c 0
EndSplineSet
Substitution2: "'onum' Oldstyle Figures lookup 22 subtable" asciitilde.osf
Substitution2: "'tnum' Tabular Numbers lookup 21 subtable" asciitilde.tf
AlternateSubs2: "'aalt' Access All Alternates lookup 1 subtable" asciitilde.tf asciitilde.osf
EndChar

StartChar: exclamdown
Encoding: 161 161 986
Width: 240
Flags: MW
HStem: -195 21G<97 145 97 97> 388 80<108 132>
VStem: 80 80<417 439> 98.5 45
LayerCount: 2
Fore
SplineSet
120 468 m 0xe0
 144 468 160 450 160 428 c 0
 160 406 144 388 120 388 c 0
 96 388 80 406 80 428 c 0
 80 450 96 468 120 468 c 0xe0
145 -195 m 1xd0
 97 -195 l 1
 100 250 l 1
 142 250 l 1
 145 -195 l 1xd0
EndSplineSet
Substitution2: "'case' Case-Sensitive Forms lookup 25 subtable" exclamdown.case
Substitution2: "'aalt' Access All Alternates lookup 0 subtable" exclamdown.case
EndChar

StartChar: cent
Encoding: 162 162 1060
Width: 466
Flags: MW
HStem: -149 179<264 305 264 264> -10 40<264 264 305 305> 492 39<265 265>
VStem: 67 49<181 336 181 337.5> 265 40<531 679>
LayerCount: 2
Fore
SplineSet
432 45 m 1x78
 397 14 355 -6 305 -10 c 1x78
 305 -149 l 1
 264 -149 l 1xb8
 264 -10 l 1
 144 0 67 98 67 258 c 0
 67 417 144 521 265 531 c 1
 265 679 l 1
 305 679 l 1
 305 531 l 1
 352 528 390 513 428 481 c 1
 404 449 l 1
 371 477 336 492 287 492 c 0
 187 492 116 414 116 258 c 0
 116 104 186 30 286 30 c 0
 336 30 373 47 408 77 c 1
 432 45 l 1x78
EndSplineSet
Substitution2: "'onum' Oldstyle Figures lookup 22 subtable" cent.osf
Substitution2: "'tnum' Tabular Numbers lookup 21 subtable" cent.tf
AlternateSubs2: "'aalt' Access All Alternates lookup 1 subtable" cent.tf cent.osf
EndChar
StartChar: sterling
Encoding: 163 163 2217
Width: 510
GlyphClass: 2
Flags: MW
HStem: 0 41<116 441> 335 36<73 138 73 138 184 400> 635 40<265 333>
VStem: 138 46<158 159 159 335 371 501>
LayerCount: 2
Back
Fore
SplineSet
184 159 m 2
 184 93 164 66 116 41 c 1
 447 41 l 1
 441 0 l 1
 55 0 l 1
 55 40 l 1
 116 68 138 92 138 158 c 2
 138 335 l 1
 73 335 l 1
 73 371 l 1
 138 371 l 1
 138 502 l 2
 138 599 194 675 304 675 c 0
 371 675 418 652 460 603 c 1
 429 577 l 1
 396 615 361 635 305 635 c 0
 225 635 184 580 184 501 c 2
 184 371 l 1
 400 371 l 1
 400 335 l 1
 184 335 l 1
 184 159 l 2
EndSplineSet
Substitution2: "'onum' Oldstyle Figures lookup 25 subtable" sterling.osf
Substitution2: "'tnum' Tabular Numbers lookup 24 subtable" sterling.tf
AlternateSubs2: "'aalt' Access All Alternates lookup 1 subtable" sterling.tf sterling.osf
EndChar
StartChar: currency
Encoding: 164 164 2199
Width: 560
GlyphClass: 2
Flags: MW
HStem: 151 38<257.5 303> 492 38<257.5 303 257.5 328> 553 20G<85 85 475 475>
VStem: 96 45<317 364.5> 421 45<316.5 365 316.5 385.5>
LayerCount: 2
Back
Fore
SplineSet
466 341 m 0
 466 292 451 248 424 214 c 1
 504 136 l 1
 475 107 l 1
 394 186 l 1
 364 164 326 151 280 151 c 0
 235 151 197 164 167 187 c 1
 85 107 l 1
 56 136 l 1
 137 216 l 1
 111 249 96 293 96 341 c 0
 96 388 111 431 137 464 c 1
 56 544 l 1
 85 573 l 1
 166 493 l 1
 196 517 235 530 280 530 c 0
 326 530 365 517 395 495 c 1
 475 573 l 1
 504 544 l 1
 425 466 l 1
 451 433 466 389 466 341 c 0
281 189 m 0
 375 189 421 252 421 341 c 0
 421 430 375 492 281 492 c 0
 188 492 141 430 141 341 c 0
 141 252 188 189 281 189 c 0
EndSplineSet
Substitution2: "'onum' Oldstyle Figures lookup 25 subtable" currency.osf
Substitution2: "'tnum' Tabular Numbers lookup 24 subtable" currency.tf
AlternateSubs2: "'aalt' Access All Alternates lookup 1 subtable" currency.tf currency.osf
EndChar
StartChar: brokenbar
Encoding: 166 166 2371
Width: 408
GlyphClass: 2
Flags: MW
HStem: 41 622<182 226 182 226>
VStem: 182 44<41 663 41 663>
LayerCount: 2
Back
Fore
SplineSet
182 663 m 1
 226 663 l 1
 226 41 l 1
 182 41 l 1
 182 663 l 1
EndSplineSet
EndChar

StartChar: dieresis
Encoding: 168 168 1255
Width: 310
Flags: MW
HStem: 666 66<54 74 236 255.5>
VStem: 30 68<689.5 708.5> 212 67<689.5 708.5>
AnchorPoint: "Anchor-12" 155 642 basemark 0
LayerCount: 2
Fore
SplineSet
64 732 m 0
 84 732 98 718 98 699 c 0
 98 680 84 666 64 666 c 0
 44 666 30 680 30 699 c 0
 30 718 44 732 64 732 c 0
246 732 m 0
 265 732 279 718 279 699 c 0
 279 680 265 666 246 666 c 0
 226 666 212 680 212 699 c 0
 212 718 226 732 246 732 c 0
EndSplineSet
Substitution2: "'case' Case-Sensitive Forms lookup 25 subtable" dieresis.case
Substitution2: "'smcp' Lowercase to Small Capitals lookup 24 subtable" dieresis.sc
Substitution2: "'c2sc' Capitals to Small Capitals lookup 23 subtable" dieresis.sc
AlternateSubs2: "'aalt' Access All Alternates lookup 1 subtable" dieresis.sc dieresis.case
EndChar

StartChar: ordfeminine
Encoding: 170 170 415
Width: 500
GlyphClass: 2
Flags: MW
HStem: 0 41<84 431 84 431> 275 38<193 241.5> 485 35<255 262 262 337> 645 39<223 276.5>
VStem: 84 48<367 425.5 367 433.5> 337 46<382 485 485 485 520 557 557 561>
LayerCount: 2
Fore
SplineSet
337 520 m 1
 337 557 l 2
 337 618 313 645 240 645 c 0
 206 645 168 637 128 623 c 1
 116 658 l 1
 160 674 200 684 244 684 c 0
 341 684 383 642 383 561 c 2
 383 371 l 2
 383 326 395 315 416 306 c 1
 406 275 l 1
 371 283 350 300 344 339 c 1
 313 296 269 275 214 275 c 0
 132 275 84 321 84 392 c 0
 84 475 151 520 255 520 c 2
 337 520 l 1
220 313 m 0
 274 313 312 339 337 382 c 1
 337 485 l 1
 262 485 l 2
 180 485 132 457 132 394 c 0
 132 340 166 313 220 313 c 0
431 41 m 1
 431 0 l 1
 84 0 l 1
 84 41 l 1
 431 41 l 1
EndSplineSet
EndChar
StartChar: guillemotleft
Encoding: 171 171 2175
Width: 548
Flags: MW
HStem: 62 452<237 237 237 442>
VStem: 77 394<81 303 81 303>
LayerCount: 2
Back
Fore
SplineSet
237 514 m 1
 266 495 l 1
 128 288 l 1
 266 81 l 1
 237 62 l 1
 77 272 l 1
 77 303 l 1
 237 514 l 1
442 514 m 1
 471 495 l 1
 333 288 l 1
 471 81 l 1
 442 62 l 1
 283 272 l 1
 283 303 l 1
 442 514 l 1
EndSplineSet
Substitution2: "'case' Case-Sensitive Forms lookup 28 subtable" guillemotleft.case
Substitution2: "'aalt' Access All Alternates lookup 0 subtable" guillemotleft.case
EndChar
StartChar: logicalnot
Encoding: 172 172 2261
Width: 499
GlyphClass: 2
Flags: MW
HStem: 300 42<72 382 72 427>
VStem: 382 45<178 300 300 300>
LayerCount: 2
Back
Fore
SplineSet
427 342 m 1
 427 178 l 1
 382 178 l 1
 382 300 l 1
 72 300 l 1
 72 342 l 1
 427 342 l 1
EndSplineSet
Substitution2: "'onum' Oldstyle Figures lookup 25 subtable" logicalnot.osf
Substitution2: "'tnum' Tabular Numbers lookup 24 subtable" logicalnot.tf
AlternateSubs2: "'aalt' Access All Alternates lookup 1 subtable" logicalnot.tf logicalnot.osf
EndChar

StartChar: softhyphen
Encoding: 173 173 1026
Width: 400
Flags: MW
HStem: 293 40<71 329 71 329>
VStem: 71 258<293 333 293 333>
LayerCount: 2
Fore
SplineSet
71 333 m 1
 329 333 l 1
 329 293 l 1
 71 293 l 1
 71 333 l 1
EndSplineSet
Substitution2: "'case' Case-Sensitive Forms lookup 25 subtable" softhyphen.case
Substitution2: "'aalt' Access All Alternates lookup 0 subtable" softhyphen.case
EndChar
StartChar: uni00AD
Encoding: 173 173 2168
Width: 400
Flags: MW
HStem: 293 40<71 329 71 329>
VStem: 71 258<293 333 293 333>
LayerCount: 2
Back
Fore
SplineSet
71 293 m 1
 71 333 l 1
 329 333 l 1
 329 293 l 1
 71 293 l 1
EndSplineSet
Substitution2: "'case' Case-Sensitive Forms lookup 28 subtable" uni00AD.case
Substitution2: "'aalt' Access All Alternates lookup 0 subtable" uni00AD.case
EndChar
StartChar: registered
Encoding: 174 174 2376
Width: 639
GlyphClass: 2
Flags: MW
HStem: 263 32<263.5 375 263.5 385> 479 31<276 316 276 318> 605 31<276 276 276 305 305 311> 700 32<263.5 376>
VStem: 84 35<438.5 552.5 438.5 561> 239 37<366 479 366 510 510 605> 378 37<539 575> 520 35<442 556.5>
LayerCount: 2
Back
Fore
SplineSet
319 732 m 0
 451 732 555 632 555 499 c 0
 555 369 451 263 319 263 c 0
 188 263 84 363 84 496 c 0
 84 626 188 732 319 732 c 0
319 295 m 0
 431 295 520 385 520 499 c 0
 520 614 433 700 319 700 c 0
 208 700 119 609 119 496 c 0
 119 381 208 295 319 295 c 0
415 556 m 0
 415 516 391 494 352 484 c 1
 427 366 l 1
 382 366 l 1
 316 479 l 1
 276 479 l 1
 276 366 l 1
 239 366 l 1
 239 636 l 1
 305 636 l 2
 380 636 415 610 415 556 c 0
276 605 m 1
 276 510 l 1
 318 510 l 2
 355 510 378 522 378 556 c 0
 378 594 354 605 311 605 c 2
 276 605 l 1
EndSplineSet
EndChar

StartChar: macron
Encoding: 175 175 1259
Width: 289
Flags: MW
HStem: 679 39<30 259 30 259>
VStem: 30 229<679 718 679 718>
LayerCount: 2
Fore
SplineSet
30 679 m 1
 30 718 l 1
 259 718 l 1
 259 679 l 1
 30 679 l 1
EndSplineSet
Substitution2: "'case' Case-Sensitive Forms lookup 25 subtable" macron.case
Substitution2: "'smcp' Lowercase to Small Capitals lookup 24 subtable" macron.sc
Substitution2: "'c2sc' Capitals to Small Capitals lookup 23 subtable" macron.sc
AlternateSubs2: "'aalt' Access All Alternates lookup 1 subtable" macron.sc macron.case
EndChar
StartChar: degree
Encoding: 176 176 2379
Width: 520
GlyphClass: 2
Flags: MW
HStem: 400 37<190.5 250 190.5 259> 657 37<190.5 250>
VStem: 74 42<514.5 581.5 514.5 593> 322 43<514 580.5>
LayerCount: 2
Back
Fore
SplineSet
219 400 m 0
 145 400 74 454 74 548 c 0
 74 638 145 694 219 694 c 0
 299 694 365 639 365 547 c 0
 365 457 299 400 219 400 c 0
219 437 m 0
 281 437 322 481 322 547 c 0
 322 614 281 657 219 657 c 0
 162 657 116 615 116 548 c 0
 116 481 162 437 219 437 c 0
EndSplineSet
Substitution2: "'onum' Oldstyle Figures lookup 25 subtable" degree.osf
Substitution2: "'tnum' Tabular Numbers lookup 24 subtable" degree.tf
AlternateSubs2: "'aalt' Access All Alternates lookup 1 subtable" degree.tf degree.osf
EndChar

StartChar: plusminus
Encoding: 177 177 1115
Width: 491
Flags: MW
HStem: 0 41<72 419 72 419> 316 41<72 224 72 224 268 419>
VStem: 224 44<163 316 163 316 357 510>
LayerCount: 2
Fore
SplineSet
268 357 m 1
 419 357 l 1
 419 316 l 1
 268 316 l 1
 268 163 l 1
 224 163 l 1
 224 316 l 1
 72 316 l 1
 72 357 l 1
 224 357 l 1
 224 510 l 1
 268 510 l 1
 268 357 l 1
72 41 m 1
 419 41 l 1
 419 0 l 1
 72 0 l 1
 72 41 l 1
EndSplineSet
Substitution2: "'onum' Oldstyle Figures lookup 22 subtable" plusminus.osf
Substitution2: "'tnum' Tabular Numbers lookup 21 subtable" plusminus.tf
AlternateSubs2: "'aalt' Access All Alternates lookup 1 subtable" plusminus.tf plusminus.osf
EndChar
StartChar: uni00B2
Encoding: 178 178 2104
Width: 400
Flags: MW
HStem: 323 37<128 323> 705 36<174 219>
VStem: 274 44<594.5 653>
LayerCount: 2
Back
Fore
SplineSet
197 741 m 0
 273 741 318 694 318 631 c 0
 318 550 273 502 128 360 c 1
 330 360 l 1
 323 323 l 1
 78 323 l 1
 78 358 l 1
 239 519 274 561 274 628 c 0
 274 678 243 705 195 705 c 0
 153 705 124 688 100 660 c 1
 70 681 l 1
 106 723 146 741 197 741 c 0
EndSplineSet
EndChar
StartChar: uni00B3
Encoding: 179 179 2105
Width: 400
Flags: MW
HStem: 315 36<172.5 222.5 172.5 235.5> 523 34<171 191 191 194 166 191> 708 35<179.5 222>
VStem: 279 42<613 659> 289 43<413 469.5>
LayerCount: 2
Back
Fore
SplineSet
200 743 m 0xf0
 274 743 321 700 321 640 c 0xf0
 321 586 286 551 236 543 c 1
 289 540 332 505 332 439 c 0
 332 367 279 315 192 315 c 0
 140 315 99 335 67 370 c 1
 93 393 l 1
 124 362 155 351 190 351 c 0
 255 351 289 387 289 439 c 0
 289 500 251 523 194 523 c 2xe8
 166 523 l 1
 171 557 l 1
 191 557 l 2
 234 557 279 581 279 636 c 0
 279 682 246 708 198 708 c 0
 161 708 134 698 101 670 c 1
 78 696 l 1
 113 726 148 743 200 743 c 0xf0
EndSplineSet
EndChar
StartChar: acute
Encoding: 180 180 2511
Width: 267
Flags: MW
HStem: 648 128
VStem: 30 205<676 732>
LayerCount: 2
Back
Fore
SplineSet
214 776 m 1
 235 732 l 1
 45 648 l 1
 30 676 l 1
 214 776 l 1
EndSplineSet
Substitution2: "Single Substitution lookup 41 subtable" acute.case
Substitution2: "'case' Case-Sensitive Forms lookup 28 subtable" acute.case
Substitution2: "'smcp' Lowercase to Small Capitals lookup 27 subtable" acute.sc
Substitution2: "'c2sc' Capitals to Small Capitals lookup 26 subtable" acute.sc
Substitution2: "'locl' Localized Forms in Latin lookup 7 subtable" acute.loclPLK
AlternateSubs2: "'aalt' Access All Alternates lookup 1 subtable" acute.loclPLK acute.sc acute.case
EndChar

StartChar: uni00B5
Encoding: 181 181 1104
Width: 584
Flags: MW
HStem: -200 21G<110 110> -195 21G<156 156> -11 42<234.5 294.5 234.5 300.5> -8 21G<452 452> -3 21G<494 494> 502 20G<110 156 156 156 420 466 466 466>
VStem: 110 46<-195 -74 104.5 148 148 522> 420 46<155 176 176 522>
LayerCount: 2
Fore
SplineSet
452 -8 m 1x57
 436 32 430 58 426 107 c 1
 390 44 340 -11 261 -11 c 0
 205 -11 164 14 147 59 c 1
 154 13 156 -22 156 -74 c 2
 156 -195 l 1x67
 110 -200 l 1
 110 522 l 1
 156 522 l 1
 156 148 l 2
 156 61 208 31 261 31 c 0xa7
 328 31 381 76 420 155 c 1
 420 522 l 1
 466 522 l 1
 466 176 l 2
 466 98 477 46 494 -3 c 1x4f
 452 -8 l 1x57
EndSplineSet
EndChar

StartChar: paragraph
Encoding: 182 182 1220
Width: 699
Flags: MW
HStem: -203 21G<324 324 501 501> -195 21G<367 367 544 544> 644 39<260 501 260 367>
VStem: 324 43<-195 298 298 298> 501 43<-195 644 644 644>
LayerCount: 2
Fore
SplineSet
544 684 m 1x78
 544 -195 l 1x78
 501 -203 l 1xb8
 501 644 l 1
 367 644 l 1
 367 -195 l 1x78
 324 -203 l 1xb8
 324 298 l 1
 161 303 105 388 105 491 c 0
 105 614 188 683 332 683 c 2
 544 684 l 1x78
EndSplineSet
EndChar

StartChar: cedilla
Encoding: 184 184 1253
Width: 235
Flags: MW
HStem: -222 35<92 120.5 92 132.5> -202 21G<30 30> -95 28<73 113>
VStem: 77.5 35.5 162 43<-156 -125>
LayerCount: 2
Fore
SplineSet
113 -67 m 1x78
 177 -72 205 -99 205 -140 c 0
 205 -193 159 -222 106 -222 c 0xb8
 73 -222 48 -213 30 -202 c 1x78
 46 -172 l 1
 61 -180 79 -187 105 -187 c 0xb8
 136 -187 162 -172 162 -140 c 0
 162 -110 136 -95 73 -95 c 1
 82 16 l 1
 113 16 l 1
 113 -67 l 1x78
EndSplineSet
Substitution2: "'case' Case-Sensitive Forms lookup 25 subtable" cedilla.case
Substitution2: "'smcp' Lowercase to Small Capitals lookup 24 subtable" cedilla.sc
Substitution2: "'c2sc' Capitals to Small Capitals lookup 23 subtable" cedilla.sc
AlternateSubs2: "'aalt' Access All Alternates lookup 1 subtable" cedilla.sc cedilla.case
EndChar

StartChar: onesuperior
Encoding: 185 185 969
Width: 400
Flags: MW
HStem: 689 47<211 252> 716 20G<218 252 252 252>
VStem: 211 41<323 689 689 689>
LayerCount: 2
Fore
SplineSet
252 323 m 1x60
 211 323 l 1
 211 689 l 1
 106 628 l 1
 87 658 l 1xa0
 218 736 l 1
 252 736 l 1
 252 323 l 1x60
EndSplineSet
EndChar
StartChar: ordmasculine
Encoding: 186 186 1051
Width: 500
GlyphClass: 2
Flags: MW
HStem: 0 41<75 422 75 422> 275 38<208.5 289 208.5 302.5> 645 39<210 290.5>
VStem: 72 48<425 535 425 542.5> 378 47<425 535.5>
LayerCount: 2
Back
Fore
SplineSet
249 684 m 0
 358 684 425 612 425 481 c 0
 425 352 357 275 248 275 c 0
 138 275 72 352 72 479 c 0
 72 606 141 684 249 684 c 0
250 645 m 0
 170 645 120 591 120 479 c 0
 120 371 168 313 249 313 c 0
 329 313 378 369 378 481 c 0
 378 590 331 645 250 645 c 0
75 0 m 1
 75 41 l 1
 422 41 l 1
 422 0 l 1
 75 0 l 1
EndSplineSet
EndChar

StartChar: guillemotright
Encoding: 187 187 1035
Width: 539
Flags: MW
HStem: 62 452<106 106 106 302>
VStem: 77 384<81 303 272 495>
LayerCount: 2
Fore
SplineSet
266 303 m 1
 266 272 l 1
 106 62 l 1
 77 81 l 1
 215 288 l 1
 77 495 l 1
 106 514 l 1
 266 303 l 1
461 303 m 1
 461 272 l 1
 302 62 l 1
 273 81 l 1
 411 288 l 1
 273 495 l 1
 302 514 l 1
 461 303 l 1
EndSplineSet
Substitution2: "'case' Case-Sensitive Forms lookup 25 subtable" guillemotright.case
Substitution2: "'aalt' Access All Alternates lookup 0 subtable" guillemotright.case
EndChar

StartChar: onequarter
Encoding: 188 188 926
Width: 908
Flags: MW
HStem: 0 141<608 794 608 753> 106 35<608 753 608 753 794 851> 637 47<211 252> 664 20G<218 252 252 252> 726 20G<641 641>
VStem: 211 41<271 637 637 637> 753 41<0 106 0 106 0 141>
LayerCount: 2
Fore
SplineSet
675 730 m 1x5e
 267 -68 l 1
 233 -52 l 1
 641 746 l 1
 675 730 l 1x5e
211 271 m 1
 211 637 l 1
 106 576 l 1
 87 606 l 1x6e
 218 684 l 1
 252 684 l 1
 252 271 l 1
 211 271 l 1
851 106 m 1
 794 106 l 1x5e
 794 0 l 1
 753 0 l 1x9e
 753 106 l 1
 564 106 l 1
 564 137 l 1
 694 420 l 1
 730 406 l 1
 608 141 l 1
 753 141 l 1
 758 260 l 1
 794 260 l 1
 794 141 l 1
 851 141 l 1
 851 106 l 1
EndSplineSet
EndChar
StartChar: onehalf
Encoding: 189 189 2057
Width: 908
Flags: MW
HStem: 0 37<636 831> 382 36<682 727> 637 47<211 252> 664 20G<218 252 252 252> 726 20G<641 641>
VStem: 211 41<271 637 637 637> 782 44<271.5 330>
LayerCount: 2
Back
Fore
SplineSet
641 746 m 1xde
 675 730 l 1
 267 -68 l 1
 233 -52 l 1
 641 746 l 1xde
252 684 m 1
 252 271 l 1
 211 271 l 1
 211 637 l 1
 106 576 l 1
 87 606 l 1xee
 218 684 l 1
 252 684 l 1
705 418 m 0
 781 418 826 371 826 308 c 0
 826 227 781 179 636 37 c 1
 838 37 l 1
 831 0 l 1
 586 0 l 1
 586 35 l 1
 747 196 782 238 782 305 c 0
 782 355 751 382 703 382 c 0
 661 382 632 365 608 337 c 1
 578 358 l 1
 614 400 654 418 705 418 c 0
EndSplineSet
EndChar

StartChar: threequarters
Encoding: 190 190 927
Width: 908
Flags: MW
HStem: 0 141<608 794 608 753> 106 35<608 753 608 753 794 851> 263 36<172.5 222.5 172.5 235.5> 471 34<171 191 191 194 166 191> 656 35<179.5 222> 726 20G<641 641>
VStem: 279 42<561 607> 289 43<361 417.5> 753 41<0 106 0 106 0 141>
LayerCount: 2
Fore
SplineSet
675 730 m 1x7d80
 267 -68 l 1
 233 -52 l 1
 641 746 l 1
 675 730 l 1x7d80
332 387 m 0
 332 315 279 263 192 263 c 0
 140 263 99 283 67 318 c 1
 93 341 l 1
 124 310 155 299 190 299 c 0
 255 299 289 335 289 387 c 0
 289 448 251 471 194 471 c 2x7d80
 166 471 l 1
 171 505 l 1
 191 505 l 2
 234 505 279 529 279 584 c 0
 279 630 246 656 198 656 c 0
 161 656 134 646 101 618 c 1
 78 644 l 1
 113 674 148 691 200 691 c 0
 274 691 321 648 321 588 c 0x7e80
 321 534 286 499 236 491 c 1
 289 488 332 453 332 387 c 0
851 106 m 1
 794 106 l 1x7d80
 794 0 l 1
 753 0 l 1xbd80
 753 106 l 1
 564 106 l 1
 564 137 l 1
 694 420 l 1
 730 406 l 1
 608 141 l 1
 753 141 l 1
 758 260 l 1
 794 260 l 1
 794 141 l 1
 851 141 l 1
 851 106 l 1
EndSplineSet
EndChar
StartChar: questiondown
Encoding: 191 191 2128
Width: 443
Flags: MW
HStem: -203 40<176 244 176 249.5> 388 80<236 259.5>
VStem: 45 48<-93 -2 -93 9.5> 208 80<417 439> 227 45<203 250>
LayerCount: 2
Back
Fore
SplineSet
248 388 m 0xf0
 224 388 208 406 208 428 c 0
 208 450 224 468 248 468 c 0
 271 468 288 450 288 428 c 0
 288 406 271 388 248 388 c 0xf0
211 -203 m 0
 105 -203 45 -137 45 -66 c 0
 45 85 227 70 227 203 c 2
 227 250 l 1
 272 250 l 1
 272 200 l 2xa8
 272 46 93 61 93 -65 c 0
 93 -121 140 -163 212 -163 c 0
 276 -163 320 -139 366 -88 c 1
 399 -113 l 1
 345 -174 288 -203 211 -203 c 0
EndSplineSet
Substitution2: "'case' Case-Sensitive Forms lookup 28 subtable" questiondown.case
Substitution2: "'aalt' Access All Alternates lookup 0 subtable" questiondown.case
EndChar

StartChar: Acircumflex
Encoding: 194 194 4
Width: 562
GlyphClass: 2
Flags: MW
HStem: 0 21G<20 68 20 20 491 491 491 542> 192 42<145 415 145 428 131 415> 645 39<281 281>
VStem: 20 522<0 0>
AnchorPoint: "Anchor-11" 0 0 basechar 0
AnchorPoint: "Anchor-10" 162 684 basechar 0
AnchorPoint: "Anchor-9" 281 684 basechar 0
AnchorPoint: "Anchor-8" 541 0 basechar 0
LayerCount: 2
Fore
SplineSet
161 763 m 1
 140 788 l 1
 268 887 l 1
 295 887 l 1
 422 788 l 1
 401 763 l 1
 282 843 l 1
 161 763 l 1
428 192 m 1
 131 192 l 1
 68 0 l 1
 20 0 l 1
 251 684 l 1
 311 684 l 1
 542 0 l 1
 491 0 l 1
 428 192 l 1
415 234 m 1
 281 645 l 1
 145 234 l 1
 415 234 l 1
EndSplineSet
Substitution2: "'c2sc' Capitals to Small Capitals lookup 23 subtable" acircumflex.sc
Substitution2: "'aalt' Access All Alternates lookup 0 subtable" acircumflex.sc
Position2: "'cpsp' Capital Spacing lookup 0 subtable" dx=5 dy=0 dh=10 dv=0
EndChar
StartChar: Atilde
Encoding: 195 195 32
Width: 562
GlyphClass: 2
Flags: MW
HStem: 0 21G<20 68 20 20 491 542 491 491> 192 42<145 415 145 429 131 415> 645 39<281 281> 796 38<319.5 349.5 319.5 356> 840 38<210.5 239>
VStem: 20 522<0 0>
AnchorPoint: "Anchor-14" 0 0 basechar 0
AnchorPoint: "Anchor-13" 0 0 basechar 0
AnchorPoint: "Anchor-12" 283 878 basechar 0
AnchorPoint: "Anchor-11" 541 0 basechar 0
AnchorPoint: "Anchor-10" 281 0 basechar 0
LayerCount: 2
Back
Fore
SplineSet
222 840 m 0
 199 840 184 829 165 803 c 1
 136 818 l 1
 158 854 186 878 222 878 c 0xec
 265 878 300 834 339 834 c 0
 360 834 375 846 396 877 c 1
 425 862 l 1
 402 815 373 796 339 796 c 0xf4
 289 796 256 840 222 840 c 0
491 0 m 1xf4
 429 192 l 1
 131 192 l 1
 68 0 l 1
 20 0 l 1
 251 684 l 1
 311 684 l 1
 542 0 l 1
 491 0 l 1xf4
145 234 m 1
 415 234 l 1
 281 645 l 1
 145 234 l 1
EndSplineSet
Substitution2: "'c2sc' Capitals to Small Capitals lookup 26 subtable" atilde.sc
Substitution2: "'aalt' Access All Alternates lookup 0 subtable" atilde.sc
Position2: "'cpsp' Capital Spacing lookup 0 subtable" dx=5 dy=0 dh=10 dv=0
EndChar

StartChar: Adieresis
Encoding: 196 196 5
Width: 562
GlyphClass: 2
Flags: MW
HStem: 0 21G<20 68 20 20 491 491 491 542> 192 42<145 415 145 428 131 415> 645 39<281 281> 792 66<180 200 362 381.5>
VStem: 156 68<815.5 834.5> 338 67<815.5 834.5>
AnchorPoint: "Anchor-11" 0 0 basechar 0
AnchorPoint: "Anchor-10" 162 684 basechar 0
AnchorPoint: "Anchor-9" 281 768 basechar 0
AnchorPoint: "Anchor-8" 541 0 basechar 0
LayerCount: 2
Fore
SplineSet
190 792 m 0
 170 792 156 806 156 825 c 0
 156 844 170 858 190 858 c 0
 210 858 224 844 224 825 c 0
 224 806 210 792 190 792 c 0
372 792 m 0
 352 792 338 806 338 825 c 0
 338 844 352 858 372 858 c 0
 391 858 405 844 405 825 c 0
 405 806 391 792 372 792 c 0
428 192 m 1
 131 192 l 1
 68 0 l 1
 20 0 l 1
 251 684 l 1
 311 684 l 1
 542 0 l 1
 491 0 l 1
 428 192 l 1
415 234 m 1
 281 645 l 1
 145 234 l 1
 415 234 l 1
EndSplineSet
Substitution2: "'c2sc' Capitals to Small Capitals lookup 23 subtable" adieresis.sc
Substitution2: "'aalt' Access All Alternates lookup 0 subtable" adieresis.sc
Position2: "'cpsp' Capital Spacing lookup 0 subtable" dx=5 dy=0 dh=10 dv=0
EndChar

StartChar: Aring
Encoding: 197 197 9
Width: 562
GlyphClass: 2
Flags: MW
HStem: 0 21G<20 68 20 20 491 491 491 542> 192 42<145 415 145 428 131 415> 645 39<281 281> 762 31<263 299 263 308.5> 911 30<263 299>
VStem: 188 37<833 870.5 833 878.5> 337 37<833 870.5>
AnchorPoint: "Anchor-11" 0 0 basechar 0
AnchorPoint: "Anchor-10" 162 684 basechar 0
AnchorPoint: "Anchor-9" 281 684 basechar 0
AnchorPoint: "Anchor-8" 541 0 basechar 0
LayerCount: 2
Fore
SplineSet
281 762 m 0
 226 762 188 798 188 852 c 0
 188 905 226 941 281 941 c 0
 336 941 374 905 374 852 c 0
 374 798 336 762 281 762 c 0
281 911 m 0
 245 911 225 889 225 852 c 0
 225 814 245 793 281 793 c 0
 317 793 337 814 337 852 c 0
 337 889 317 911 281 911 c 0
428 192 m 1
 131 192 l 1
 68 0 l 1
 20 0 l 1
 251 684 l 1
 311 684 l 1
 542 0 l 1
 491 0 l 1
 428 192 l 1
415 234 m 1
 281 645 l 1
 145 234 l 1
 415 234 l 1
EndSplineSet
Substitution2: "'c2sc' Capitals to Small Capitals lookup 23 subtable" aring.sc
Substitution2: "'aalt' Access All Alternates lookup 0 subtable" aring.sc
Position2: "'cpsp' Capital Spacing lookup 0 subtable" dx=5 dy=0 dh=10 dv=0
EndChar
StartChar: AE
Encoding: 198 198 33
Width: 772
GlyphClass: 2
Flags: MW
HStem: 0 41<499 729 499 729 462 729> 188 41<139 404 139 414 123 404> 336 41<423 671 423 423> 643 41<343 673 343 343>
VStem: 4 725<0 41>
AnchorPoint: "Anchor-14" 0 0 basechar 0
AnchorPoint: "Anchor-13" 0 0 basechar 0
AnchorPoint: "Anchor-12" 450 684 basechar 0
AnchorPoint: "Anchor-11" 0 0 basechar 0
AnchorPoint: "Anchor-10" 0 0 basechar 0
LayerCount: 2
Back
Fore
SplineSet
499 41 m 1
 729 41 l 1
 729 0 l 1
 462 0 l 1
 414 188 l 1
 123 188 l 1
 52 0 l 1
 4 0 l 1
 269 684 l 1
 679 684 l 1
 673 643 l 1
 343 643 l 1
 412 377 l 1
 671 377 l 1
 671 336 l 1
 423 336 l 1
 499 41 l 1
139 229 m 1
 404 229 l 1
 297 646 l 1
 139 229 l 1
EndSplineSet
Substitution2: "'c2sc' Capitals to Small Capitals lookup 26 subtable" ae.sc
Substitution2: "'aalt' Access All Alternates lookup 0 subtable" ae.sc
Position2: "'cpsp' Capital Spacing lookup 0 subtable" dx=5 dy=0 dh=10 dv=0
EndChar

StartChar: Ccedilla
Encoding: 199 199 17
Width: 547
GlyphClass: 2
Flags: MW
HStem: -222 35<332 360.5 332 372.5> -202 21G<270 270> -95 28<313 353> -11 43<353 353> -10 42<320 320> 653 41<284.5 376>
VStem: 70 50<236.5 453 236.5 459.5> 316.5 36.5 402 43<-156 -125>
AnchorPoint: "Anchor-11" 342 0 basechar 0
AnchorPoint: "Anchor-10" 0 0 basechar 0
AnchorPoint: "Anchor-9" 343 684 basechar 0
AnchorPoint: "Anchor-8" 0 0 basechar 0
LayerCount: 2
Fore
SplineSet
353 -67 m 1x7780
 417 -72 445 -99 445 -140 c 0
 445 -193 399 -222 346 -222 c 0xb780
 313 -222 288 -213 270 -202 c 1x7780
 286 -172 l 1
 301 -180 319 -187 345 -187 c 0
 376 -187 402 -172 402 -140 c 0
 402 -110 376 -95 313 -95 c 1
 320 -10 l 1xaf80
 175 1 70 123 70 342 c 0
 70 577 193 694 344 694 c 0
 422 694 468 671 515 633 c 1
 489 601 l 1
 443 637 405 653 347 653 c 0
 222 653 120 564 120 342 c 0
 120 131 219 32 344 32 c 0
 416 32 456 58 496 90 c 1
 523 58 l 1
 483 21 429 -8 353 -11 c 1
 353 -67 l 1x7780
EndSplineSet
Substitution2: "'c2sc' Capitals to Small Capitals lookup 23 subtable" ccedilla.sc
Substitution2: "'aalt' Access All Alternates lookup 0 subtable" ccedilla.sc
Position2: "'cpsp' Capital Spacing lookup 0 subtable" dx=5 dy=0 dh=10 dv=0
EndChar
StartChar: Ecircumflex
Encoding: 202 202 72
Width: 504
GlyphClass: 2
Flags: MW
HStem: 0 41<162 460 162 460> 336 41<162 409 162 409> 643 41<162 448 162 162>
VStem: 115 47<41 336 377 643>
AnchorPoint: "Anchor-14" 0 0 basechar 0
AnchorPoint: "Anchor-13" 380 744 basechar 0
AnchorPoint: "Anchor-12" 288 887 basechar 0
AnchorPoint: "Anchor-11" 441 0 basechar 0
AnchorPoint: "Anchor-10" 285 0 basechar 0
LayerCount: 2
Back
Fore
SplineSet
408 763 m 1
 289 843 l 1
 168 763 l 1
 147 788 l 1
 275 887 l 1
 302 887 l 1
 429 788 l 1
 408 763 l 1
454 684 m 1
 448 643 l 1
 162 643 l 1
 162 377 l 1
 409 377 l 1
 409 336 l 1
 162 336 l 1
 162 41 l 1
 460 41 l 1
 460 0 l 1
 115 0 l 1
 115 684 l 1
 454 684 l 1
EndSplineSet
Substitution2: "'c2sc' Capitals to Small Capitals lookup 26 subtable" ecircumflex.sc
Substitution2: "'aalt' Access All Alternates lookup 0 subtable" ecircumflex.sc
Position2: "'cpsp' Capital Spacing lookup 0 subtable" dx=5 dy=0 dh=10 dv=0
EndChar

StartChar: Edieresis
Encoding: 203 203 29
Width: 504
GlyphClass: 2
Flags: MW
HStem: 0 41<162 460 162 460> 336 41<162 409 162 409> 643 41<162 448 162 162> 792 66<187 207 369 388.5>
VStem: 115 47<41 336 377 643> 163 68<815.5 834.5> 345 67<815.5 834.5>
AnchorPoint: "Anchor-11" 285 0 basechar 0
AnchorPoint: "Anchor-10" 90 684 basechar 0
AnchorPoint: "Anchor-9" 288 768 basechar 0
AnchorPoint: "Anchor-8" 441 0 basechar 0
LayerCount: 2
Fore
SplineSet
197 858 m 0
 217 858 231 844 231 825 c 0
 231 806 217 792 197 792 c 0
 177 792 163 806 163 825 c 0
 163 844 177 858 197 858 c 0
379 858 m 0
 398 858 412 844 412 825 c 0
 412 806 398 792 379 792 c 0
 359 792 345 806 345 825 c 0
 345 844 359 858 379 858 c 0
448 643 m 1
 162 643 l 1
 162 377 l 1
 409 377 l 1
 409 336 l 1
 162 336 l 1
 162 41 l 1
 460 41 l 1
 460 0 l 1
 115 0 l 1
 115 684 l 1xe8
 454 684 l 1
 448 643 l 1
EndSplineSet
Substitution2: "'c2sc' Capitals to Small Capitals lookup 23 subtable" edieresis.sc
Substitution2: "'aalt' Access All Alternates lookup 0 subtable" edieresis.sc
Position2: "'cpsp' Capital Spacing lookup 0 subtable" dx=5 dy=0 dh=10 dv=0
EndChar
StartChar: Igrave
Encoding: 204 204 129
Width: 277
GlyphClass: 2
Flags: MW
HStem: 0 21G<115 162 115 115> 664 20G<115 162 162 162>
VStem: 115 47<0 684 0 684>
AnchorPoint: "Anchor-14" 0 0 basechar 0
AnchorPoint: "Anchor-13" 0 0 basechar 0
AnchorPoint: "Anchor-12" 140 880 basechar 0
AnchorPoint: "Anchor-11" 172 0 basechar 0
AnchorPoint: "Anchor-10" 139 0 basechar 0
LayerCount: 2
Back
Fore
SplineSet
55 880 m 1
 238 788 l 1
 225 759 l 1
 33 836 l 1
 55 880 l 1
162 684 m 1
 162 0 l 1
 115 0 l 1
 115 684 l 1
 162 684 l 1
EndSplineSet
Substitution2: "'c2sc' Capitals to Small Capitals lookup 26 subtable" igrave.sc
Substitution2: "'aalt' Access All Alternates lookup 0 subtable" igrave.sc
Position2: "'cpsp' Capital Spacing lookup 0 subtable" dx=5 dy=0 dh=10 dv=0
EndChar
StartChar: Iacute
Encoding: 205 205 120
Width: 277
GlyphClass: 2
Flags: MW
HStem: 0 21G<115 162 115 115> 664 20G<115 162 162 162>
VStem: 115 47<0 684 0 684>
AnchorPoint: "Anchor-14" 0 0 basechar 0
AnchorPoint: "Anchor-13" 0 0 basechar 0
AnchorPoint: "Anchor-12" 140 880 basechar 0
AnchorPoint: "Anchor-11" 172 0 basechar 0
AnchorPoint: "Anchor-10" 139 0 basechar 0
LayerCount: 2
Back
Fore
SplineSet
218 880 m 1
 240 836 l 1
 48 759 l 1
 35 788 l 1
 218 880 l 1
162 684 m 1
 162 0 l 1
 115 0 l 1
 115 684 l 1
 162 684 l 1
EndSplineSet
Substitution2: "'c2sc' Capitals to Small Capitals lookup 26 subtable" iacute.sc
Substitution2: "'aalt' Access All Alternates lookup 0 subtable" iacute.sc
Position2: "'cpsp' Capital Spacing lookup 0 subtable" dx=5 dy=0 dh=10 dv=0
EndChar
StartChar: Icircumflex
Encoding: 206 206 123
Width: 277
GlyphClass: 2
Flags: MW
HStem: 0 21G<115 162 115 115> 664 20G<115 162 162 162>
VStem: 115 47<0 684 0 684>
AnchorPoint: "Anchor-14" 0 0 basechar 0
AnchorPoint: "Anchor-13" 229 744 basechar 0
AnchorPoint: "Anchor-12" 137 887 basechar 0
AnchorPoint: "Anchor-11" 172 0 basechar 0
AnchorPoint: "Anchor-10" 139 0 basechar 0
LayerCount: 2
Back
Fore
SplineSet
257 763 m 1
 138 843 l 1
 17 763 l 1
 -4 788 l 1
 124 887 l 1
 151 887 l 1
 278 788 l 1
 257 763 l 1
162 684 m 1
 162 0 l 1
 115 0 l 1
 115 684 l 1
 162 684 l 1
EndSplineSet
Substitution2: "'c2sc' Capitals to Small Capitals lookup 26 subtable" icircumflex.sc
Substitution2: "'aalt' Access All Alternates lookup 0 subtable" icircumflex.sc
Position2: "'cpsp' Capital Spacing lookup 0 subtable" dx=5 dy=0 dh=10 dv=0
EndChar

StartChar: Idieresis
Encoding: 207 207 48
Width: 277
GlyphClass: 2
Flags: MW
HStem: 0 21G<115 163 115 115> 664 20G<115 163 163 163> 792 66<37 57 219 238.5>
VStem: 13 68<815.5 834.5> 115 48<0 684> 195 67<815.5 834.5>
AnchorPoint: "Anchor-11" 0 0 basechar 0
AnchorPoint: "Anchor-10" 90 684 basechar 0
AnchorPoint: "Anchor-9" 138 768 basechar 0
AnchorPoint: "Anchor-8" 173 0 basechar 0
LayerCount: 2
Fore
SplineSet
47 858 m 0
 67 858 81 844 81 825 c 0
 81 806 67 792 47 792 c 0
 27 792 13 806 13 825 c 0
 13 844 27 858 47 858 c 0
229 858 m 0
 248 858 262 844 262 825 c 0
 262 806 248 792 229 792 c 0
 209 792 195 806 195 825 c 0
 195 844 209 858 229 858 c 0
163 0 m 1
 115 0 l 1
 115 684 l 1
 163 684 l 1
 163 0 l 1
EndSplineSet
Substitution2: "'c2sc' Capitals to Small Capitals lookup 23 subtable" idieresis.sc
Substitution2: "'aalt' Access All Alternates lookup 0 subtable" idieresis.sc
Position2: "'cpsp' Capital Spacing lookup 0 subtable" dx=5 dy=0 dh=10 dv=0
EndChar
StartChar: Eth
Encoding: 208 208 56
Width: 630
GlyphClass: 2
Flags: MW
HStem: 0 41<165 258> 332 40<24 117 24 117 165 346> 643 41<165 250 250 253 165 165>
VStem: 117 48<41 332 41 332 41 332 372 643> 510 50<222 476.5>
AnchorPoint: "Anchor-14" 321 342 basechar 0
AnchorPoint: "Anchor-13" 0 0 basechar 0
AnchorPoint: "Anchor-12" 301 684 basechar 0
AnchorPoint: "Anchor-11" 0 0 basechar 0
AnchorPoint: "Anchor-10" 302 0 basechar 0
LayerCount: 2
Back
Fore
SplineSet
250 684 m 2
 404 684 560 629 560 348 c 0
 560 63 396 0 258 0 c 2
 117 0 l 1
 117 332 l 1
 24 332 l 1
 24 372 l 1
 117 372 l 1
 117 684 l 1
 250 684 l 2
260 41 m 2
 382 41 510 96 510 348 c 0
 510 605 377 643 253 643 c 2
 165 643 l 1
 165 372 l 1
 346 372 l 1
 346 332 l 1
 165 332 l 1
 165 41 l 1
 260 41 l 2
EndSplineSet
Substitution2: "'c2sc' Capitals to Small Capitals lookup 26 subtable" eth.sc
Substitution2: "'aalt' Access All Alternates lookup 0 subtable" eth.sc
Position2: "'cpsp' Capital Spacing lookup 0 subtable" dx=5 dy=0 dh=10 dv=0
EndChar
StartChar: Ntilde
Encoding: 209 209 175
Width: 669
GlyphClass: 2
Flags: MW
HStem: 0 53<515 515 515 554 493 515> 631 53<154 154> 796 38<381.5 411.5 381.5 418> 840 38<272.5 301>
VStem: 115 45<0 407 0 684> 509 45<253 684 0 684>
AnchorPoint: "Anchor-14" 0 0 basechar 0
AnchorPoint: "Anchor-13" 0 0 basechar 0
AnchorPoint: "Anchor-12" 345 878 basechar 0
AnchorPoint: "Anchor-11" 0 0 basechar 0
AnchorPoint: "Anchor-10" 335 0 basechar 0
LayerCount: 2
Back
Fore
SplineSet
401 796 m 0
 351 796 318 840 284 840 c 0
 261 840 246 829 227 803 c 1
 198 818 l 1
 220 854 248 878 284 878 c 0xdc
 327 878 362 834 401 834 c 0
 422 834 437 846 458 877 c 1
 487 862 l 1
 464 815 435 796 401 796 c 0
554 684 m 1
 554 0 l 1
 493 0 l 1
 154 631 l 1
 157 587 160 528 160 407 c 2
 160 0 l 1
 115 0 l 1
 115 684 l 1
 176 684 l 1
 515 53 l 1
 513 86 509 163 509 253 c 2
 509 684 l 1
 554 684 l 1
EndSplineSet
Substitution2: "'c2sc' Capitals to Small Capitals lookup 26 subtable" ntilde.sc
Substitution2: "'aalt' Access All Alternates lookup 0 subtable" ntilde.sc
Position2: "'cpsp' Capital Spacing lookup 0 subtable" dx=5 dy=0 dh=10 dv=0
EndChar

StartChar: Oacute
Encoding: 211 211 72
Width: 691
GlyphClass: 2
Flags: MW
HStem: -11 42<278.5 415 278.5 429> 653 41<278 413.5>
VStem: 70 50<236.5 445.5 236.5 453> 571 50<237 446.5>
AnchorPoint: "Anchor-11" 0 0 basechar 0
AnchorPoint: "Anchor-10" 106 684 basechar 0
AnchorPoint: "Anchor-9" 335 684 basechar 0
AnchorPoint: "Anchor-8" 0 0 basechar 0
LayerCount: 2
Fore
SplineSet
442 836 m 1
 250 759 l 1
 237 788 l 1
 420 880 l 1
 442 836 l 1
345 694 m 0
 509 694 621 572 621 341 c 0
 621 117 513 -11 345 -11 c 0
 182 -11 70 113 70 340 c 0
 70 566 183 694 345 694 c 0
345 653 m 0
 211 653 120 551 120 340 c 0
 120 133 212 31 345 31 c 0
 485 31 571 133 571 341 c 0
 571 552 482 653 345 653 c 0
EndSplineSet
Substitution2: "'c2sc' Capitals to Small Capitals lookup 23 subtable" oacute.sc
Substitution2: "'locl' Localized Forms in Latin lookup 7 subtable" Oacute.loclPLK
AlternateSubs2: "'aalt' Access All Alternates lookup 1 subtable" Oacute.loclPLK oacute.sc
Position2: "'cpsp' Capital Spacing lookup 0 subtable" dx=5 dy=0 dh=10 dv=0
EndChar
StartChar: Otilde
Encoding: 213 213 214
Width: 691
GlyphClass: 2
Flags: MW
HStem: -11 42<278.5 415 278.5 429> 653 41<278 413.5> 796 38<384.5 414.5 384.5 421> 840 38<275.5 304>
VStem: 70 50<236.5 445.5 236.5 453> 571 50<237 446.5>
AnchorPoint: "Anchor-14" 0 0 basechar 0
AnchorPoint: "Anchor-13" 539 684 basechar 0
AnchorPoint: "Anchor-12" 348 878 basechar 0
AnchorPoint: "Anchor-11" 434 0 basechar 0
AnchorPoint: "Anchor-10" 345 0 basechar 0
LayerCount: 2
Back
Fore
SplineSet
404 796 m 0
 354 796 321 840 287 840 c 0
 264 840 249 829 230 803 c 1
 201 818 l 1
 223 854 251 878 287 878 c 0xdc
 330 878 365 834 404 834 c 0
 425 834 440 846 461 877 c 1
 490 862 l 1
 467 815 438 796 404 796 c 0
345 694 m 0
 509 694 621 572 621 341 c 0
 621 117 513 -11 345 -11 c 0
 182 -11 70 113 70 340 c 0
 70 566 183 694 345 694 c 0
345 653 m 0
 211 653 120 551 120 340 c 0
 120 133 212 31 345 31 c 0
 485 31 571 133 571 341 c 0
 571 552 482 653 345 653 c 0
EndSplineSet
Substitution2: "'c2sc' Capitals to Small Capitals lookup 26 subtable" otilde.sc
Substitution2: "'aalt' Access All Alternates lookup 0 subtable" otilde.sc
Position2: "'cpsp' Capital Spacing lookup 0 subtable" dx=5 dy=0 dh=10 dv=0
EndChar
StartChar: Odieresis
Encoding: 214 214 190
Width: 691
GlyphClass: 2
Flags: MW
HStem: -11 42<278.5 415 278.5 429> 653 41<278 413.5> 792 66<244 264 426 445.5>
VStem: 70 50<236.5 445.5 236.5 453> 220 68<815.5 834.5> 402 67<815.5 834.5> 571 50<237 446.5>
AnchorPoint: "Anchor-14" 0 0 basechar 0
AnchorPoint: "Anchor-13" 539 684 basechar 0
AnchorPoint: "Anchor-12" 347 858 basechar 0
AnchorPoint: "Anchor-11" 434 0 basechar 0
AnchorPoint: "Anchor-10" 345 0 basechar 0
LayerCount: 2
Back
Fore
SplineSet
254 858 m 0
 274 858 288 844 288 825 c 0
 288 806 274 792 254 792 c 0
 234 792 220 806 220 825 c 0
 220 844 234 858 254 858 c 0
436 858 m 0
 455 858 469 844 469 825 c 0
 469 806 455 792 436 792 c 0
 416 792 402 806 402 825 c 0
 402 844 416 858 436 858 c 0
345 694 m 0
 509 694 621 572 621 341 c 0
 621 117 513 -11 345 -11 c 0
 182 -11 70 113 70 340 c 0
 70 566 183 694 345 694 c 0
345 653 m 0
 211 653 120 551 120 340 c 0
 120 133 212 31 345 31 c 0
 485 31 571 133 571 341 c 0
 571 552 482 653 345 653 c 0
EndSplineSet
Substitution2: "'c2sc' Capitals to Small Capitals lookup 26 subtable" odieresis.sc
Substitution2: "'aalt' Access All Alternates lookup 0 subtable" odieresis.sc
Position2: "'cpsp' Capital Spacing lookup 0 subtable" dx=5 dy=0 dh=10 dv=0
EndChar
StartChar: multiply
Encoding: 215 215 2266
Width: 491
GlyphClass: 2
Flags: MW
HStem: 149 317<120 120 120 371>
VStem: 89 313<178 178 178 436>
LayerCount: 2
Back
Fore
SplineSet
371 466 m 1
 402 436 l 1
 274 307 l 1
 402 178 l 1
 371 149 l 1
 245 278 l 1
 120 149 l 1
 89 178 l 1
 216 307 l 1
 89 436 l 1
 120 466 l 1
 245 336 l 1
 371 466 l 1
EndSplineSet
Substitution2: "'onum' Oldstyle Figures lookup 25 subtable" multiply.osf
Substitution2: "'tnum' Tabular Numbers lookup 24 subtable" multiply.tf
AlternateSubs2: "'aalt' Access All Alternates lookup 1 subtable" multiply.tf multiply.osf
EndChar

StartChar: Uacute
Encoding: 218 218 102
Width: 648
GlyphClass: 2
Flags: MW
HStem: -11 43<264 384.5 264 398.5> 664 20G<105 152 152 152 495 543 543 543>
VStem: 105 47<211 215 215 684> 495 48<215 684>
AnchorPoint: "Anchor-11" 0 0 basechar 0
AnchorPoint: "Anchor-10" 0 0 basechar 0
AnchorPoint: "Anchor-9" 327 684 basechar 0
AnchorPoint: "Anchor-8" 412 0 basechar 0
LayerCount: 2
Fore
SplineSet
434 836 m 1
 242 759 l 1
 229 788 l 1
 412 880 l 1
 434 836 l 1
543 211 m 2
 543 82 473 -11 324 -11 c 0
 173 -11 105 82 105 211 c 2
 105 684 l 1
 152 684 l 1
 152 215 l 2
 152 103 204 32 324 32 c 0
 445 32 495 105 495 215 c 2
 495 684 l 1
 543 684 l 1
 543 211 l 2
EndSplineSet
Substitution2: "'c2sc' Capitals to Small Capitals lookup 23 subtable" uacute.sc
Substitution2: "'aalt' Access All Alternates lookup 0 subtable" uacute.sc
Position2: "'cpsp' Capital Spacing lookup 0 subtable" dx=5 dy=0 dh=10 dv=0
EndChar
StartChar: Udieresis
Encoding: 220 220 269
Width: 648
GlyphClass: 2
Flags: MW
HStem: -11 43<264 384.5 264 398.5> 664 20G<105 152 152 152 495 543 543 543> 792 66<223 243 405 424.5>
VStem: 105 47<211 215 215 684> 199 68<815.5 834.5> 381 67<815.5 834.5> 495 48<215 684>
AnchorPoint: "Anchor-14" 0 0 basechar 0
AnchorPoint: "Anchor-13" 553 684 basechar 0
AnchorPoint: "Anchor-12" 326 858 basechar 0
AnchorPoint: "Anchor-11" 412 0 basechar 0
AnchorPoint: "Anchor-10" 324 0 basechar 0
LayerCount: 2
Back
Fore
SplineSet
233 858 m 0
 253 858 267 844 267 825 c 0
 267 806 253 792 233 792 c 0
 213 792 199 806 199 825 c 0
 199 844 213 858 233 858 c 0
415 858 m 0
 434 858 448 844 448 825 c 0
 448 806 434 792 415 792 c 0
 395 792 381 806 381 825 c 0
 381 844 395 858 415 858 c 0
543 684 m 1
 543 211 l 2
 543 82 473 -11 324 -11 c 0
 174 -11 105 82 105 211 c 2
 105 684 l 1
 152 684 l 1
 152 215 l 2
 152 103 204 32 324 32 c 0
 445 32 495 105 495 215 c 2
 495 684 l 1
 543 684 l 1
EndSplineSet
Substitution2: "'c2sc' Capitals to Small Capitals lookup 26 subtable" udieresis.sc
Substitution2: "'aalt' Access All Alternates lookup 0 subtable" udieresis.sc
Position2: "'cpsp' Capital Spacing lookup 0 subtable" dx=5 dy=0 dh=10 dv=0
EndChar
StartChar: Yacute
Encoding: 221 221 303
Width: 513
GlyphClass: 2
Flags: MW
HStem: 0 21G<234 281 234 234> 664 20G<16 69 69 69 445 497 497 497>
VStem: 234 47<0 268 268 268>
AnchorPoint: "Anchor-14" 0 0 basechar 0
AnchorPoint: "Anchor-13" 0 0 basechar 0
AnchorPoint: "Anchor-12" 259 880 basechar 0
AnchorPoint: "Anchor-11" 0 0 basechar 0
AnchorPoint: "Anchor-10" 258 0 basechar 0
LayerCount: 2
Back
Fore
SplineSet
337 880 m 1
 359 836 l 1
 167 759 l 1
 154 788 l 1
 337 880 l 1
497 684 m 1
 281 269 l 1
 281 0 l 1
 234 0 l 1
 234 268 l 1
 16 684 l 1
 69 684 l 1
 259 310 l 1
 445 684 l 1
 497 684 l 1
EndSplineSet
Substitution2: "'c2sc' Capitals to Small Capitals lookup 26 subtable" yacute.sc
Substitution2: "'aalt' Access All Alternates lookup 0 subtable" yacute.sc
Position2: "'cpsp' Capital Spacing lookup 0 subtable" dx=5 dy=0 dh=10 dv=0
EndChar
StartChar: Thorn
Encoding: 222 222 222
Width: 566
GlyphClass: 2
Flags: MW
HStem: 0 21G<115 162 115 115> 140 40<162 265 162 266> 519 41<162 268 162 268> 519 165<115 268 115 162>
VStem: 115 47<0 140 0 180 180 519 560 684> 467 50<287 416>
LayerCount: 2
Back
Fore
SplineSet
268 560 m 2xec
 425 560 517 499 517 356 c 0
 517 197 412 140 265 140 c 2
 162 140 l 1
 162 0 l 1
 115 0 l 1
 115 684 l 1
 162 684 l 1xdc
 162 560 l 1
 268 560 l 2xec
266 180 m 2
 384 180 467 219 467 355 c 0
 467 477 395 519 268 519 c 2
 162 519 l 1
 162 180 l 1
 266 180 l 2
EndSplineSet
Substitution2: "'c2sc' Capitals to Small Capitals lookup 26 subtable" thorn.sc
Substitution2: "'aalt' Access All Alternates lookup 0 subtable" thorn.sc
Position2: "'cpsp' Capital Spacing lookup 0 subtable" dx=5 dy=0 dh=10 dv=0
EndChar
StartChar: germandbls
Encoding: 223 223 634
Width: 578
GlyphClass: 2
Flags: MW
HStem: -11 40<348.5 400.5 348.5 417> 0 21G<110 156 110 110> 702 39<253 326>
VStem: 110 46<0 538 0 540 0 605.5> 288 45<379.5 456.5 379.5 463.5> 406 46<559.5 637> 480 47<113 232>
LayerCount: 2
Back
Fore
SplineSet
293 741 m 0x7e
 387 741 452 686 452 609 c 0xbe
 452 501 333 490 333 423 c 0
 333 336 527 329 527 153 c 0
 527 55 464 -11 370 -11 c 0
 327 -11 299 -1 275 12 c 1
 291 45 l 1
 309 37 330 29 367 29 c 0
 434 29 480 73 480 153 c 0xba
 480 311 288 307 288 421 c 0
 288 506 406 511 406 608 c 0
 406 666 359 702 293 702 c 0
 213 702 156 652 156 538 c 2
 156 0 l 1
 110 0 l 1
 110 540 l 2
 110 671 185 741 293 741 c 0x7e
EndSplineSet
Substitution2: "'smcp' Lowercase to Small Capitals lookup 27 subtable" germandbls.sc
Substitution2: "'aalt' Access All Alternates lookup 0 subtable" germandbls.sc
EndChar

StartChar: aacute
Encoding: 225 225 135
Width: 534
GlyphClass: 2
Flags: MW
HStem: -11 39<189.5 256> 276 37<272 279 279 379> 492 40<232 299.5>
VStem: 60 49<108.5 190 108.5 199> 379 46<127 276 276 276 313 367 367 370>
AnchorPoint: "Anchor-11" 0 0 basechar 0
AnchorPoint: "Anchor-10" 0 0 basechar 0
AnchorPoint: "Anchor-9" 257 522 basechar 0
AnchorPoint: "Anchor-8" 468 -11 basechar 0
LayerCount: 2
Fore
SplineSet
159 648 m 1
 144 676 l 1
 328 776 l 1
 349 732 l 1
 159 648 l 1
425 113 m 2
 425 51 440 33 469 22 c 1
 458 -11 l 1
 415 0 390 24 385 81 c 1
 347 20 292 -11 220 -11 c 0
 120 -11 60 52 60 145 c 0
 60 253 143 313 272 313 c 2
 379 313 l 1
 379 367 l 2
 379 452 345 492 254 492 c 0
 210 492 163 481 112 461 c 1
 99 498 l 1
 155 520 205 532 258 532 c 0
 374 532 425 475 425 370 c 2
 425 113 l 2
226 28 m 0
 297 28 346 64 379 127 c 1
 379 276 l 1
 279 276 l 2
 172 276 109 234 109 146 c 0
 109 71 153 28 226 28 c 0
EndSplineSet
Substitution2: "'smcp' Lowercase to Small Capitals lookup 24 subtable" aacute.sc
Substitution2: "'aalt' Access All Alternates lookup 0 subtable" aacute.sc
EndChar

StartChar: atilde
Encoding: 227 227 143
Width: 534
GlyphClass: 2
Flags: MW
HStem: -11 39<189.5 256> 276 37<272 279 279 379> 492 40<232 299.5> 670 38<297 327 297 335> 672 20G<113 113> 714 38<185 216.5> 716 20G<402 402>
VStem: 60 49<108.5 190 108.5 199> 379 46<127 276 276 276 313 367 367 370>
AnchorPoint: "Anchor-11" 0 0 basechar 0
AnchorPoint: "Anchor-10" 0 0 basechar 0
AnchorPoint: "Anchor-9" 257 522 basechar 0
AnchorPoint: "Anchor-8" 468 -11 basechar 0
LayerCount: 2
Fore
SplineSet
199 714 m 0xed80
 171 714 161 703 142 677 c 1
 113 692 l 1
 135 728 161 752 199 752 c 0xed80
 242 752 277 708 317 708 c 0
 337 708 352 720 373 751 c 1
 402 736 l 1
 379 689 350 670 320 670 c 0xf380
 263 670 234 714 199 714 c 0xed80
425 113 m 2xeb80
 425 51 440 33 469 22 c 1
 458 -11 l 1
 415 0 390 24 385 81 c 1
 347 20 292 -11 220 -11 c 0
 120 -11 60 52 60 145 c 0
 60 253 143 313 272 313 c 2
 379 313 l 1
 379 367 l 2
 379 452 345 492 254 492 c 0
 210 492 163 481 112 461 c 1
 99 498 l 1
 155 520 205 532 258 532 c 0
 374 532 425 475 425 370 c 2
 425 113 l 2xeb80
226 28 m 0
 297 28 346 64 379 127 c 1
 379 276 l 1
 279 276 l 2
 172 276 109 234 109 146 c 0
 109 71 153 28 226 28 c 0
EndSplineSet
Substitution2: "'smcp' Lowercase to Small Capitals lookup 24 subtable" atilde.sc
Substitution2: "'aalt' Access All Alternates lookup 0 subtable" atilde.sc
EndChar
StartChar: aring
Encoding: 229 229 363
Width: 534
GlyphClass: 2
Flags: MW
HStem: -11 39<189.5 256> 276 36<272 279 279 379> 492 40<232 299.5> 636 31<239 275 239 284.5> 785 30<239 275>
VStem: 60 49<108.5 190 108.5 199> 164 37<707 744.5 707 752.5> 313 37<707 744.5> 379 46<127 276 276 276 312 367 367 370>
AnchorPoint: "Anchor-14" 0 0 basechar 0
AnchorPoint: "Anchor-13" 0 0 basechar 0
AnchorPoint: "Anchor-12" 259 815 basechar 0
AnchorPoint: "Anchor-11" 468 -11 basechar 0
AnchorPoint: "Anchor-10" 257 0 basechar 0
LayerCount: 2
Back
Fore
SplineSet
257 636 m 0
 202 636 164 672 164 726 c 0
 164 779 202 815 257 815 c 0
 312 815 350 779 350 726 c 0
 350 672 312 636 257 636 c 0
257 785 m 0
 221 785 201 763 201 726 c 0
 201 688 221 667 257 667 c 0
 293 667 313 688 313 726 c 0
 313 763 293 785 257 785 c 0
425 113 m 2xfe80
 425 51 440 33 469 22 c 1
 458 -11 l 1
 415 0 390 24 385 80 c 1
 347 20 292 -11 220 -11 c 0
 120 -11 60 52 60 145 c 0
 60 253 143 312 272 312 c 2
 379 312 l 1
 379 367 l 2
 379 452 345 492 254 492 c 0
 210 492 163 481 112 461 c 1
 99 498 l 1
 155 520 205 532 258 532 c 0
 374 532 425 475 425 370 c 2
 425 113 l 2xfe80
226 28 m 0
 298 28 346 64 379 127 c 1
 379 276 l 1
 279 276 l 2
 172 276 109 234 109 146 c 0
 109 71 153 28 226 28 c 0
EndSplineSet
Substitution2: "'smcp' Lowercase to Small Capitals lookup 27 subtable" aring.sc
Substitution2: "'aalt' Access All Alternates lookup 0 subtable" aring.sc
EndChar

StartChar: ccedilla
Encoding: 231 231 150
Width: 466
GlyphClass: 2
Flags: MW
HStem: -222 35<274 302.5 274 314.5> -202 21G<212 212> -95 28<255 295> -11 41<295 295> -10 40<262 262> 492 40<237 311.5>
VStem: 67 49<181 336 181 342> 258.5 36.5 344 43<-156 -125>
AnchorPoint: "Anchor-11" 283 0 basechar 0
AnchorPoint: "Anchor-10" 0 0 basechar 0
AnchorPoint: "Anchor-9" 284 522 basechar 0
AnchorPoint: "Anchor-8" 0 0 basechar 0
LayerCount: 2
Fore
SplineSet
295 -67 m 1x7780
 359 -72 387 -99 387 -140 c 0
 387 -193 341 -222 288 -222 c 0xb780
 255 -222 230 -213 212 -202 c 1x7780
 228 -172 l 1
 243 -180 261 -187 287 -187 c 0
 318 -187 344 -172 344 -140 c 0
 344 -110 318 -95 255 -95 c 1
 262 -10 l 1xaf80
 144 2 67 99 67 258 c 0
 67 426 153 532 285 532 c 0
 342 532 385 517 428 481 c 1
 404 449 l 1
 371 477 336 492 287 492 c 0
 187 492 116 414 116 258 c 0
 116 104 186 30 286 30 c 0
 336 30 373 47 408 77 c 1
 432 45 l 1
 395 12 349 -9 295 -11 c 1
 295 -67 l 1x7780
EndSplineSet
Substitution2: "'smcp' Lowercase to Small Capitals lookup 24 subtable" ccedilla.sc
Substitution2: "'aalt' Access All Alternates lookup 0 subtable" ccedilla.sc
EndChar

StartChar: igrave
Encoding: 236 236 183
Width: 266
GlyphClass: 2
Flags: MW
HStem: 0 21G<110 156 110 110> 502 20G<110 156 156 156>
VStem: 110 46<0 522>
AnchorPoint: "Anchor-11" 0 0 basechar 0
AnchorPoint: "Anchor-10" 0 0 basechar 0
AnchorPoint: "Anchor-9" 133 522 basechar 0
AnchorPoint: "Anchor-8" 166 0 basechar 0
LayerCount: 2
Fore
SplineSet
241 676 m 1
 226 648 l 1
 36 732 l 1
 57 776 l 1
 241 676 l 1
156 0 m 1
 110 0 l 1
 110 522 l 1
 156 522 l 1
 156 0 l 1
EndSplineSet
Substitution2: "'smcp' Lowercase to Small Capitals lookup 24 subtable" igrave.sc
Substitution2: "'aalt' Access All Alternates lookup 0 subtable" igrave.sc
EndChar

StartChar: iacute
Encoding: 237 237 178
Width: 266
GlyphClass: 2
Flags: MW
HStem: 0 21G<110 156 110 110> 502 20G<110 156 156 156>
VStem: 110 46<0 522>
AnchorPoint: "Anchor-11" 0 0 basechar 0
AnchorPoint: "Anchor-10" 0 0 basechar 0
AnchorPoint: "Anchor-9" 133 522 basechar 0
AnchorPoint: "Anchor-8" 166 0 basechar 0
LayerCount: 2
Fore
SplineSet
225 732 m 1
 35 648 l 1
 20 676 l 1
 204 776 l 1
 225 732 l 1
156 0 m 1
 110 0 l 1
 110 522 l 1
 156 522 l 1
 156 0 l 1
EndSplineSet
Substitution2: "'smcp' Lowercase to Small Capitals lookup 24 subtable" iacute.sc
Substitution2: "'aalt' Access All Alternates lookup 0 subtable" iacute.sc
EndChar
StartChar: icircumflex
Encoding: 238 238 483
Width: 266
GlyphClass: 2
Flags: MW
HStem: 0 21G<110 156 110 110> 502 20G<110 156 156 156>
VStem: 110 46<0 522 0 522>
AnchorPoint: "Anchor-14" 0 0 basechar 0
AnchorPoint: "Anchor-13" 0 0 basechar 0
AnchorPoint: "Anchor-12" 135 775 basechar 0
AnchorPoint: "Anchor-11" 166 0 basechar 0
AnchorPoint: "Anchor-10" 133 0 basechar 0
LayerCount: 2
Back
Fore
SplineSet
12 647 m 1
 -9 672 l 1
 118 775 l 1
 145 775 l 1
 273 672 l 1
 252 647 l 1
 132 731 l 1
 12 647 l 1
156 522 m 1
 156 0 l 1
 110 0 l 1
 110 522 l 1
 156 522 l 1
EndSplineSet
Substitution2: "'smcp' Lowercase to Small Capitals lookup 27 subtable" icircumflex.sc
Substitution2: "'aalt' Access All Alternates lookup 0 subtable" icircumflex.sc
EndChar
StartChar: eth
Encoding: 240 240 392
Width: 558
GlyphClass: 2
Flags: MW
HStem: -11 40<221.5 321 221.5 333> 427 39<215 294.5 196.5 297.5> 550 20G<176 176> 665 20G<287 287> 722 20G<144 144>
VStem: 67 48<167.5 286 167.5 292.5> 432 47<203 297.5>
AnchorPoint: "Anchor-14" 0 0 basechar 0
AnchorPoint: "Anchor-13" 0 0 basechar 0
AnchorPoint: "Anchor-12" 291 735 basechar 0
AnchorPoint: "Anchor-11" 0 0 basechar 0
AnchorPoint: "Anchor-10" 271 0 basechar 0
LayerCount: 2
Back
Fore
SplineSet
318 664 m 1
 424 583 479 471 479 285 c 0
 479 87 395 -11 271 -11 c 0
 144 -11 67 83 67 232 c 0
 67 353 134 466 259 466 c 0
 330 466 383 434 427 380 c 1
 415 486 372 569 289 635 c 1
 211 556 l 1
 176 570 l 1
 259 655 l 1
 223 677 178 696 134 704 c 1
 144 742 l 1
 193 732 242 713 287 685 c 1
 356 757 l 1
 385 732 l 1
 318 664 l 1
271 29 m 0
 371 29 432 118 432 288 c 0
 432 307 432 320 431 332 c 1
 386 391 330 427 265 427 c 0
 165 427 115 340 115 232 c 0
 115 103 172 29 271 29 c 0
EndSplineSet
Substitution2: "'smcp' Lowercase to Small Capitals lookup 27 subtable" eth.sc
Substitution2: "'aalt' Access All Alternates lookup 0 subtable" eth.sc
EndChar
StartChar: ntilde
Encoding: 241 241 552
Width: 583
GlyphClass: 2
Flags: MW
HStem: 0 21G<110 156 110 110 432 478 432 432> 494 38<296 362> 502 20G<110 150 150 150> 670 38<336.5 366.5 336.5 373> 672 20G<153 153> 714 38<227.5 256> 716 20G<442 442>
VStem: 110 46<0 381 0 522> 432 46<0 366 366 372 0 410.5>
AnchorPoint: "Anchor-14" 0 0 basechar 0
AnchorPoint: "Anchor-13" 0 0 basechar 0
AnchorPoint: "Anchor-12" 298 709 basechar 0
AnchorPoint: "Anchor-11" 0 0 basechar 0
AnchorPoint: "Anchor-10" 290 0 basechar 0
LayerCount: 2
Back
Fore
SplineSet
239 714 m 0xcd80
 216 714 201 703 182 677 c 1
 153 692 l 1
 175 728 203 752 239 752 c 0xcd80
 282 752 317 708 356 708 c 0
 377 708 392 720 413 751 c 1
 442 736 l 1
 419 689 390 670 356 670 c 0xd380
 306 670 273 714 239 714 c 0xcd80
335 532 m 0xcb80
 430 532 478 474 478 372 c 2
 478 0 l 1
 432 0 l 1
 432 366 l 2
 432 455 396 494 328 494 c 0xcb80
 252 494 201 447 156 381 c 1
 156 0 l 1
 110 0 l 1
 110 522 l 1
 150 522 l 1xab80
 154 428 l 1
 198 490 257 532 335 532 c 0xcb80
EndSplineSet
Substitution2: "'smcp' Lowercase to Small Capitals lookup 27 subtable" ntilde.sc
Substitution2: "'aalt' Access All Alternates lookup 0 subtable" ntilde.sc
EndChar

StartChar: otilde
Encoding: 245 245 218
Width: 567
GlyphClass: 2
Flags: MW
HStem: -11 40<230.5 335 230.5 350> 492 40<232.5 337> 670 38<323 353 323 361> 672 20G<139 139> 714 38<211 242.5> 716 20G<428 428>
VStem: 67 48<185 337 185 345> 452 48<186 338.5>
AnchorPoint: "Anchor-11" 0 0 basechar 0
AnchorPoint: "Anchor-10" 0 0 basechar 0
AnchorPoint: "Anchor-9" 284 522 basechar 0
AnchorPoint: "Anchor-8" 0 0 basechar 0
LayerCount: 2
Fore
SplineSet
346 670 m 0xe7
 289 670 260 714 225 714 c 0
 197 714 187 703 168 677 c 1
 139 692 l 1
 161 728 187 752 225 752 c 0xdb
 268 752 303 708 343 708 c 0
 363 708 378 720 399 751 c 1xe7
 428 736 l 1xd7
 405 689 376 670 346 670 c 0xe7
284 532 m 0xd7
 419 532 500 435 500 263 c 0
 500 92 417 -11 283 -11 c 0
 148 -11 67 92 67 260 c 0
 67 430 151 532 284 532 c 0xd7
284 492 m 0
 181 492 115 414 115 260 c 0
 115 110 178 29 283 29 c 0
 387 29 452 109 452 263 c 0
 452 414 390 492 284 492 c 0
EndSplineSet
Substitution2: "'smcp' Lowercase to Small Capitals lookup 24 subtable" otilde.sc
Substitution2: "'aalt' Access All Alternates lookup 0 subtable" otilde.sc
EndChar

StartChar: divide
Encoding: 247 247 1089
Width: 491
Flags: MW
HStem: 76 79<234 258> 310 42<72 419 72 419> 507 79<234 258>
VStem: 205 81<104 126.5 535 557.5>
LayerCount: 2
Fore
SplineSet
246 586 m 0
 270 586 286 569 286 546 c 0
 286 524 270 507 246 507 c 0
 222 507 205 524 205 546 c 0
 205 569 222 586 246 586 c 0
72 352 m 1
 419 352 l 1
 419 310 l 1
 72 310 l 1
 72 352 l 1
246 155 m 0
 270 155 286 138 286 115 c 0
 286 93 270 76 246 76 c 0
 222 76 205 93 205 115 c 0
 205 138 222 155 246 155 c 0
EndSplineSet
Substitution2: "'onum' Oldstyle Figures lookup 22 subtable" divide.osf
Substitution2: "'tnum' Tabular Numbers lookup 21 subtable" divide.tf
AlternateSubs2: "'aalt' Access All Alternates lookup 1 subtable" divide.tf divide.osf
EndChar
StartChar: ugrave
Encoding: 249 249 674
Width: 578
GlyphClass: 2
Flags: MW
HStem: -11 40<226 294.5> 0 21G<429 468 429 429> 502 20G<105 151 151 151 422 468 468 468>
VStem: 105 46<149 153 153 522> 422 46<141 522 0 522>
AnchorPoint: "Anchor-14" 0 0 basechar 0
AnchorPoint: "Anchor-13" 478 522 basechar 0
AnchorPoint: "Anchor-12" 291 776 basechar 0
AnchorPoint: "Anchor-11" 478 0 basechar 0
AnchorPoint: "Anchor-10" 287 0 basechar 0
LayerCount: 2
Back
Fore
SplineSet
207 776 m 1xb8
 391 676 l 1
 376 648 l 1
 186 732 l 1
 207 776 l 1xb8
468 522 m 1
 468 0 l 1
 429 0 l 1x78
 426 97 l 1
 391 35 336 -11 253 -11 c 0
 159 -11 105 46 105 149 c 2
 105 522 l 1
 151 522 l 1
 151 153 l 2
 151 66 190 29 262 29 c 0
 335 29 385 76 422 141 c 1
 422 522 l 1
 468 522 l 1
EndSplineSet
Substitution2: "'smcp' Lowercase to Small Capitals lookup 27 subtable" ugrave.sc
Substitution2: "'aalt' Access All Alternates lookup 0 subtable" ugrave.sc
EndChar

StartChar: ucircumflex
Encoding: 251 251 242
Width: 578
GlyphClass: 2
Flags: MW
HStem: -11 40<226 294.5> 0 21G<429 468 429 429> 502 20G<105 151 151 151 422 468 468 468>
VStem: 105 46<149 153 153 522> 422 46<141 522>
AnchorPoint: "Anchor-11" 0 0 basechar 0
AnchorPoint: "Anchor-10" 0 0 basechar 0
AnchorPoint: "Anchor-9" 287 522 basechar 0
AnchorPoint: "Anchor-8" 478 0 basechar 0
LayerCount: 2
Fore
SplineSet
148 672 m 1xb8
 275 775 l 1
 302 775 l 1
 430 672 l 1
 409 647 l 1
 289 731 l 1
 169 647 l 1
 148 672 l 1xb8
468 0 m 1x78
 429 0 l 1x78
 426 97 l 1
 391 35 336 -11 253 -11 c 0
 159 -11 105 46 105 149 c 2
 105 522 l 1
 151 522 l 1
 151 153 l 2
 151 66 190 29 262 29 c 0xb8
 335 29 385 76 422 141 c 1
 422 522 l 1
 468 522 l 1
 468 0 l 1x78
EndSplineSet
Substitution2: "'smcp' Lowercase to Small Capitals lookup 24 subtable" ucircumflex.sc
Substitution2: "'aalt' Access All Alternates lookup 0 subtable" ucircumflex.sc
EndChar
StartChar: udieresis
Encoding: 252 252 668
Width: 578
GlyphClass: 2
Flags: MW
HStem: -11 40<226 294.5> 0 21G<429 468 429 429> 502 20G<105 151 151 151 422 468 468 468> 666 66<186 206 368 387.5>
VStem: 105 46<149 153 153 522> 162 68<689.5 708.5> 344 67<689.5 708.5> 422 46<141 522 0 522>
AnchorPoint: "Anchor-14" 0 0 basechar 0
AnchorPoint: "Anchor-13" 478 522 basechar 0
AnchorPoint: "Anchor-12" 289 732 basechar 0
AnchorPoint: "Anchor-11" 478 0 basechar 0
AnchorPoint: "Anchor-10" 287 0 basechar 0
LayerCount: 2
Back
Fore
SplineSet
196 732 m 0xbf
 216 732 230 718 230 699 c 0
 230 680 216 666 196 666 c 0
 176 666 162 680 162 699 c 0
 162 718 176 732 196 732 c 0xbf
378 732 m 0
 397 732 411 718 411 699 c 0
 411 680 397 666 378 666 c 0
 358 666 344 680 344 699 c 0
 344 718 358 732 378 732 c 0
468 522 m 1xb9
 468 0 l 1
 429 0 l 1x79
 426 97 l 1
 391 35 336 -11 253 -11 c 0
 159 -11 105 46 105 149 c 2
 105 522 l 1
 151 522 l 1
 151 153 l 2
 151 66 190 29 262 29 c 0
 335 29 385 76 422 141 c 1
 422 522 l 1
 468 522 l 1xb9
EndSplineSet
Substitution2: "'smcp' Lowercase to Small Capitals lookup 27 subtable" udieresis.sc
Substitution2: "'aalt' Access All Alternates lookup 0 subtable" udieresis.sc
EndChar

StartChar: thorn
Encoding: 254 254 221
Width: 576
GlyphClass: 2
Flags: MW
HStem: -203 21G<110 110> -194 21G<156 156> -11 41<275 352 270.5 373> 493 39<282 358> 715 20G<110 110> 721 20G<156 156>
VStem: 110 46<-194 65 114 401 446 735 735 735> 456 49<187 340.5>
LayerCount: 2
Fore
SplineSet
316 532 m 0x77
 441 532 505 434 505 264 c 0
 505 97 437 -11 309 -11 c 0
 241 -11 188 23 156 65 c 1
 156 -194 l 1x77
 110 -203 l 1
 110 735 l 1xbb
 156 741 l 1
 156 446 l 1
 194 498 248 532 316 532 c 0x77
302 30 m 0
 402 30 456 110 456 264 c 0
 456 417 406 493 310 493 c 0
 240 493 195 454 156 401 c 1
 156 114 l 1
 190 63 239 30 302 30 c 0
EndSplineSet
Substitution2: "'smcp' Lowercase to Small Capitals lookup 24 subtable" thorn.sc
Substitution2: "'aalt' Access All Alternates lookup 0 subtable" thorn.sc
EndChar

StartChar: Amacron
Encoding: 256 256 7
Width: 562
GlyphClass: 2
Flags: MW
HStem: 0 21G<20 68 20 20 491 491 491 542> 192 42<145 415 145 428 131 415> 645 39<281 281> 803 39<166 395 166 395>
VStem: 166 229<803 842 803 842>
AnchorPoint: "Anchor-11" 0 0 basechar 0
AnchorPoint: "Anchor-10" 162 684 basechar 0
AnchorPoint: "Anchor-9" 281 684 basechar 0
AnchorPoint: "Anchor-8" 541 0 basechar 0
LayerCount: 2
Fore
SplineSet
395 803 m 1
 166 803 l 1
 166 842 l 1
 395 842 l 1
 395 803 l 1
428 192 m 1
 131 192 l 1
 68 0 l 1
 20 0 l 1
 251 684 l 1
 311 684 l 1
 542 0 l 1
 491 0 l 1
 428 192 l 1
415 234 m 1
 281 645 l 1
 145 234 l 1
 415 234 l 1
EndSplineSet
Substitution2: "'c2sc' Capitals to Small Capitals lookup 23 subtable" amacron.sc
Substitution2: "'aalt' Access All Alternates lookup 0 subtable" amacron.sc
Position2: "'cpsp' Capital Spacing lookup 0 subtable" dx=5 dy=0 dh=10 dv=0
EndChar

StartChar: amacron
Encoding: 257 257 140
Width: 534
GlyphClass: 2
Flags: MW
HStem: -11 39<189.5 256> 276 37<272 279 279 379> 492 40<232 299.5> 679 39<143 372 143 372>
VStem: 60 49<108.5 190 108.5 199> 143 229<679 718 679 718> 379 46<127 276 276 276 313 367 367 370>
AnchorPoint: "Anchor-11" 0 0 basechar 0
AnchorPoint: "Anchor-10" 0 0 basechar 0
AnchorPoint: "Anchor-9" 257 522 basechar 0
AnchorPoint: "Anchor-8" 468 -11 basechar 0
LayerCount: 2
Fore
SplineSet
372 679 m 1
 143 679 l 1
 143 718 l 1
 372 718 l 1
 372 679 l 1
425 113 m 2xfa
 425 51 440 33 469 22 c 1
 458 -11 l 1
 415 0 390 24 385 81 c 1
 347 20 292 -11 220 -11 c 0
 120 -11 60 52 60 145 c 0
 60 253 143 313 272 313 c 2
 379 313 l 1
 379 367 l 2
 379 452 345 492 254 492 c 0
 210 492 163 481 112 461 c 1
 99 498 l 1
 155 520 205 532 258 532 c 0
 374 532 425 475 425 370 c 2
 425 113 l 2xfa
226 28 m 0
 297 28 346 64 379 127 c 1
 379 276 l 1
 279 276 l 2
 172 276 109 234 109 146 c 0
 109 71 153 28 226 28 c 0
EndSplineSet
Substitution2: "'smcp' Lowercase to Small Capitals lookup 24 subtable" amacron.sc
Substitution2: "'aalt' Access All Alternates lookup 0 subtable" amacron.sc
EndChar

StartChar: Abreve
Encoding: 258 258 3
Width: 562
GlyphClass: 2
Flags: MW
HStem: 0 21G<20 68 20 20 491 491 491 542> 192 42<145 415 145 428 131 415> 645 39<281 281> 767 39<257.5 304.5 257.5 313.5>
VStem: 20 522<0 0>
AnchorPoint: "Anchor-11" 0 0 basechar 0
AnchorPoint: "Anchor-10" 162 684 basechar 0
AnchorPoint: "Anchor-9" 281 684 basechar 0
AnchorPoint: "Anchor-8" 541 0 basechar 0
LayerCount: 2
Fore
SplineSet
281 767 m 0
 215 767 167 808 158 859 c 1
 190 867 l 1
 203 831 234 806 281 806 c 0
 328 806 359 831 372 867 c 1
 404 859 l 1
 395 808 346 767 281 767 c 0
428 192 m 1
 131 192 l 1
 68 0 l 1
 20 0 l 1
 251 684 l 1
 311 684 l 1
 542 0 l 1
 491 0 l 1
 428 192 l 1
415 234 m 1
 281 645 l 1
 145 234 l 1
 415 234 l 1
EndSplineSet
Substitution2: "'c2sc' Capitals to Small Capitals lookup 23 subtable" abreve.sc
Substitution2: "'aalt' Access All Alternates lookup 0 subtable" abreve.sc
Position2: "'cpsp' Capital Spacing lookup 0 subtable" dx=5 dy=0 dh=10 dv=0
EndChar

StartChar: Aogonek
Encoding: 260 260 8
Width: 562
GlyphClass: 2
Flags: MW
HStem: -213 41<454.5 482> -206 21G<528 528> 0 21G<20 68 20 20 532 532 532 542> 192 42<145 415 145 428 131 415> 645 39<281 281>
VStem: 365 45<-135 -95.5>
AnchorPoint: "Anchor-11" 0 0 basechar 0
AnchorPoint: "Anchor-10" 162 684 basechar 0
AnchorPoint: "Anchor-9" 281 684 basechar 0
AnchorPoint: "Anchor-8" 541 0 basechar 0
LayerCount: 2
Fore
SplineSet
410 -119 m 0xbc
 410 -151 432 -172 477 -172 c 0
 496 -172 511 -170 533 -166 c 1xbc
 528 -206 l 1x7c
 508 -210 492 -213 472 -213 c 0
 400 -213 365 -174 365 -124 c 0
 365 -67 407 -27 488 9 c 1
 428 192 l 1
 131 192 l 1
 68 0 l 1
 20 0 l 1
 251 684 l 1
 311 684 l 1
 542 0 l 1
 532 0 l 1
 448 -38 410 -68 410 -119 c 0xbc
415 234 m 1
 281 645 l 1
 145 234 l 1
 415 234 l 1
EndSplineSet
Substitution2: "'c2sc' Capitals to Small Capitals lookup 23 subtable" aogonek.sc
Substitution2: "'aalt' Access All Alternates lookup 0 subtable" aogonek.sc
Position2: "'cpsp' Capital Spacing lookup 0 subtable" dx=5 dy=0 dh=10 dv=0
EndChar

StartChar: aogonek
Encoding: 261 261 141
Width: 534
GlyphClass: 2
Flags: MW
HStem: -224 41<380.5 408> -11 39<189.5 256> 276 37<272 279 279 379> 492 40<232 299.5>
VStem: 60 49<108.5 190 108.5 199> 291 45<-146 -105.5> 379 46<127 276 276 276 313 367 367 370>
AnchorPoint: "Anchor-11" 0 0 basechar 0
AnchorPoint: "Anchor-10" 0 0 basechar 0
AnchorPoint: "Anchor-9" 257 522 basechar 0
AnchorPoint: "Anchor-8" 468 -11 basechar 0
LayerCount: 2
Fore
SplineSet
336 -130 m 0
 336 -162 358 -183 403 -183 c 0
 422 -183 437 -181 459 -177 c 1
 454 -217 l 1
 434 -221 418 -224 398 -224 c 0
 326 -224 291 -185 291 -135 c 0
 291 -76 337 -34 425 3 c 1
 402 17 388 41 385 81 c 1
 347 20 292 -11 220 -11 c 0
 120 -11 60 52 60 145 c 0
 60 253 143 313 272 313 c 2
 379 313 l 1
 379 367 l 2
 379 452 345 492 254 492 c 0
 210 492 163 481 112 461 c 1
 99 498 l 1
 155 520 205 532 258 532 c 0
 374 532 425 475 425 370 c 2
 425 113 l 2
 425 51 440 33 469 22 c 1
 458 -11 l 1
 374 -49 336 -79 336 -130 c 0
226 28 m 0
 297 28 346 64 379 127 c 1
 379 276 l 1
 279 276 l 2
 172 276 109 234 109 146 c 0
 109 71 153 28 226 28 c 0
EndSplineSet
Substitution2: "'smcp' Lowercase to Small Capitals lookup 24 subtable" aogonek.sc
Substitution2: "'aalt' Access All Alternates lookup 0 subtable" aogonek.sc
EndChar
StartChar: Cacute
Encoding: 262 262 44
Width: 547
GlyphClass: 2
Flags: MW
HStem: -11 43<281.5 380 281.5 383> 653 41<284.5 376>
VStem: 70 50<236.5 453 236.5 459.5>
AnchorPoint: "Anchor-14" 331 345 basechar 0
AnchorPoint: "Anchor-13" 0 0 basechar 0
AnchorPoint: "Anchor-12" 345 880 basechar 0
AnchorPoint: "Anchor-11" 0 0 basechar 0
AnchorPoint: "Anchor-10" 342 0 basechar 0
LayerCount: 2
Back
Fore
SplineSet
423 880 m 1
 445 836 l 1
 253 759 l 1
 240 788 l 1
 423 880 l 1
344 694 m 0
 422 694 468 671 515 633 c 1
 489 601 l 1
 443 637 405 653 347 653 c 0
 222 653 120 564 120 342 c 0
 120 131 219 32 344 32 c 0
 416 32 456 58 496 90 c 1
 523 58 l 1
 481 19 424 -11 342 -11 c 0
 186 -11 70 112 70 342 c 0
 70 577 193 694 344 694 c 0
EndSplineSet
Substitution2: "'c2sc' Capitals to Small Capitals lookup 26 subtable" cacute.sc
Substitution2: "'locl' Localized Forms in Latin lookup 7 subtable" Cacute.loclPLK
AlternateSubs2: "'aalt' Access All Alternates lookup 1 subtable" Cacute.loclPLK cacute.sc
Position2: "'cpsp' Capital Spacing lookup 0 subtable" dx=5 dy=0 dh=10 dv=0
EndChar
StartChar: Ccircumflex
Encoding: 264 264 48
Width: 547
GlyphClass: 2
Flags: MW
HStem: -11 43<281.5 380 281.5 383> 653 41<284.5 376>
VStem: 70 50<236.5 453 236.5 459.5>
AnchorPoint: "Anchor-14" 331 345 basechar 0
AnchorPoint: "Anchor-13" 435 744 basechar 0
AnchorPoint: "Anchor-12" 343 887 basechar 0
AnchorPoint: "Anchor-11" 0 0 basechar 0
AnchorPoint: "Anchor-10" 342 0 basechar 0
LayerCount: 2
Back
Fore
SplineSet
463 763 m 1
 344 843 l 1
 223 763 l 1
 202 788 l 1
 330 887 l 1
 357 887 l 1
 484 788 l 1
 463 763 l 1
344 694 m 0
 422 694 468 671 515 633 c 1
 489 601 l 1
 443 637 405 653 347 653 c 0
 222 653 120 564 120 342 c 0
 120 131 219 32 344 32 c 0
 416 32 456 58 496 90 c 1
 523 58 l 1
 481 19 424 -11 342 -11 c 0
 186 -11 70 112 70 342 c 0
 70 577 193 694 344 694 c 0
EndSplineSet
Substitution2: "'c2sc' Capitals to Small Capitals lookup 26 subtable" ccircumflex.sc
Substitution2: "'aalt' Access All Alternates lookup 0 subtable" ccircumflex.sc
Position2: "'cpsp' Capital Spacing lookup 0 subtable" dx=5 dy=0 dh=10 dv=0
EndChar

StartChar: ccircumflex
Encoding: 265 265 151
Width: 466
GlyphClass: 2
Flags: MW
HStem: -11 41<236 311 236 315> 492 40<237 311.5>
VStem: 67 49<181 336 181 342>
AnchorPoint: "Anchor-11" 283 0 basechar 0
AnchorPoint: "Anchor-10" 0 0 basechar 0
AnchorPoint: "Anchor-9" 284 522 basechar 0
AnchorPoint: "Anchor-8" 0 0 basechar 0
LayerCount: 2
Fore
SplineSet
145 672 m 1
 272 775 l 1
 299 775 l 1
 427 672 l 1
 406 647 l 1
 286 731 l 1
 166 647 l 1
 145 672 l 1
285 532 m 0
 342 532 385 517 428 481 c 1
 404 449 l 1
 371 477 336 492 287 492 c 0
 187 492 116 414 116 258 c 0
 116 104 186 30 286 30 c 0
 336 30 373 47 408 77 c 1
 432 45 l 1
 393 10 344 -11 286 -11 c 0
 154 -11 67 88 67 258 c 0
 67 426 153 532 285 532 c 0
EndSplineSet
Substitution2: "'smcp' Lowercase to Small Capitals lookup 24 subtable" ccircumflex.sc
Substitution2: "'aalt' Access All Alternates lookup 0 subtable" ccircumflex.sc
EndChar
StartChar: Cdotaccent
Encoding: 266 266 49
Width: 547
GlyphClass: 2
Flags: MW
HStem: -11 43<281.5 380 281.5 383> 653 41<284.5 376> 800 70<332 354>
VStem: 70 50<236.5 453 236.5 459.5> 307 72<825.5 844.5>
AnchorPoint: "Anchor-14" 331 345 basechar 0
AnchorPoint: "Anchor-13" 0 0 basechar 0
AnchorPoint: "Anchor-12" 345 870 basechar 0
AnchorPoint: "Anchor-11" 0 0 basechar 0
AnchorPoint: "Anchor-10" 342 0 basechar 0
LayerCount: 2
Back
Fore
SplineSet
343 870 m 0
 365 870 379 854 379 835 c 0
 379 816 365 800 343 800 c 0
 321 800 307 816 307 835 c 0
 307 854 321 870 343 870 c 0
344 694 m 0
 422 694 468 671 515 633 c 1
 489 601 l 1
 443 637 405 653 347 653 c 0
 222 653 120 564 120 342 c 0
 120 131 219 32 344 32 c 0
 416 32 456 58 496 90 c 1
 523 58 l 1
 481 19 424 -11 342 -11 c 0
 186 -11 70 112 70 342 c 0
 70 577 193 694 344 694 c 0
EndSplineSet
Substitution2: "'c2sc' Capitals to Small Capitals lookup 26 subtable" cdotaccent.sc
Substitution2: "'aalt' Access All Alternates lookup 0 subtable" cdotaccent.sc
Position2: "'cpsp' Capital Spacing lookup 0 subtable" dx=5 dy=0 dh=10 dv=0
EndChar

StartChar: cdotaccent
Encoding: 267 267 152
Width: 466
GlyphClass: 2
Flags: MW
HStem: -11 41<236 311 236 315> 492 40<237 311.5> 674 70<273 295>
VStem: 67 49<181 336 181 342> 248 72<699.5 718.5>
AnchorPoint: "Anchor-11" 283 0 basechar 0
AnchorPoint: "Anchor-10" 0 0 basechar 0
AnchorPoint: "Anchor-9" 284 522 basechar 0
AnchorPoint: "Anchor-8" 0 0 basechar 0
LayerCount: 2
Fore
SplineSet
284 744 m 0
 306 744 320 728 320 709 c 0
 320 690 306 674 284 674 c 0
 262 674 248 690 248 709 c 0
 248 728 262 744 284 744 c 0
285 532 m 0
 342 532 385 517 428 481 c 1
 404 449 l 1
 371 477 336 492 287 492 c 0
 187 492 116 414 116 258 c 0
 116 104 186 30 286 30 c 0
 336 30 373 47 408 77 c 1
 432 45 l 1
 393 10 344 -11 286 -11 c 0
 154 -11 67 88 67 258 c 0
 67 426 153 532 285 532 c 0
EndSplineSet
Substitution2: "'smcp' Lowercase to Small Capitals lookup 24 subtable" cdotaccent.sc
Substitution2: "'aalt' Access All Alternates lookup 0 subtable" cdotaccent.sc
EndChar

StartChar: ccaron
Encoding: 269 269 149
Width: 466
GlyphClass: 2
Flags: MW
HStem: -11 41<236 311 236 315> 492 40<237 311.5> 721 20G<146 146 428 428>
VStem: 67 49<181 336 181 342>
AnchorPoint: "Anchor-11" 283 0 basechar 0
AnchorPoint: "Anchor-10" 0 0 basechar 0
AnchorPoint: "Anchor-9" 284 522 basechar 0
AnchorPoint: "Anchor-8" 0 0 basechar 0
LayerCount: 2
Fore
SplineSet
428 741 m 1
 301 637 l 1
 274 637 l 1
 146 741 l 1
 167 765 l 1
 288 681 l 1
 407 765 l 1
 428 741 l 1
285 532 m 0
 342 532 385 517 428 481 c 1
 404 449 l 1
 371 477 336 492 287 492 c 0
 187 492 116 414 116 258 c 0
 116 104 186 30 286 30 c 0
 336 30 373 47 408 77 c 1
 432 45 l 1
 393 10 344 -11 286 -11 c 0
 154 -11 67 88 67 258 c 0
 67 426 153 532 285 532 c 0
EndSplineSet
Substitution2: "'smcp' Lowercase to Small Capitals lookup 24 subtable" ccaron.sc
Substitution2: "'aalt' Access All Alternates lookup 0 subtable" ccaron.sc
EndChar

StartChar: Dcaron
Encoding: 270 270 22
Width: 628
GlyphClass: 2
Flags: MW
HStem: 0 41<162 255> 643 41<162 162 162 248 248 251>
VStem: 115 47<41 643 41 684 41 684> 508 50<222 476.5>
AnchorPoint: "Anchor-11" 0 0 basechar 0
AnchorPoint: "Anchor-10" 0 0 basechar 0
AnchorPoint: "Anchor-9" 299 684 basechar 0
AnchorPoint: "Anchor-8" 0 0 basechar 0
LayerCount: 2
Fore
SplineSet
443 855 m 1
 316 757 l 1
 289 757 l 1
 161 855 l 1
 182 880 l 1
 303 801 l 1
 422 880 l 1
 443 855 l 1
248 684 m 2
 401 684 558 629 558 348 c 0
 558 63 393 0 255 0 c 2
 115 0 l 1
 115 684 l 1
 248 684 l 2
162 643 m 1
 162 41 l 1
 258 41 l 2
 380 41 508 96 508 348 c 0
 508 605 375 643 251 643 c 2
 162 643 l 1
EndSplineSet
Substitution2: "'c2sc' Capitals to Small Capitals lookup 23 subtable" dcaron.sc
Substitution2: "'aalt' Access All Alternates lookup 0 subtable" dcaron.sc
Position2: "'cpsp' Capital Spacing lookup 0 subtable" dx=5 dy=0 dh=10 dv=0
EndChar
StartChar: dcaron
Encoding: 271 271 394
Width: 581
GlyphClass: 2
Flags: MW
HStem: -11 40<225.5 306> 0 21G<431 471 431 431> 493 39<234 313.5 212 316.5> 715 20G<471 471> 720 20G<554 554> 721 20G<425 425>
VStem: 72 48<259 259> 425 46<133 410 410 410 459 735 0 741 0 741>
AnchorPoint: "Anchor-14" 296 261 basechar 0
AnchorPoint: "Anchor-13" 496 735 basechar 0
AnchorPoint: "Anchor-12" 285 735 basechar 0
AnchorPoint: "Anchor-11" 0 0 basechar 0
AnchorPoint: "Anchor-10" 301 0 basechar 0
LayerCount: 2
Back
Fore
SplineSet
425 459 m 1xa7
 425 741 l 1xa7
 471 735 l 1
 471 0 l 1
 431 0 l 1x73
 426 82 l 1
 397 31 346 -11 266 -11 c 0
 147 -11 72 92 72 259 c 0
 72 420 148 532 276 532 c 0
 351 532 396 496 425 459 c 1xa7
554 740 m 1xab
 600 734 l 1
 565 578 l 1
 535 582 l 1
 554 740 l 1xab
272 29 m 0
 346 29 389 67 425 133 c 1
 425 410 l 1
 394 455 351 493 282 493 c 0
 186 493 119 409 120 259 c 0
 121 111 179 29 272 29 c 0
EndSplineSet
Substitution2: "'smcp' Lowercase to Small Capitals lookup 27 subtable" dcaron.sc
Substitution2: "'aalt' Access All Alternates lookup 0 subtable" dcaron.sc
EndChar

StartChar: dcroat
Encoding: 273 273 156
Width: 587
GlyphClass: 2
Flags: MW
HStem: -11 40<225.5 306.5> 0 21G<431 471 431 431> 493 39<234 314 212 316> 620 38<262 425 262 262 471 547> 715 20G<471 471> 721 20G<425 425>
VStem: 72 48<259 259> 425 46<133 410 410 410 459 620 0 620 658 735>
LayerCount: 2
Fore
SplineSet
547 658 m 1xb7
 547 620 l 1
 471 620 l 1
 471 0 l 1
 431 0 l 1x77
 426 82 l 1
 397 32 347 -11 266 -11 c 0
 147 -11 72 92 72 259 c 0
 72 420 148 532 276 532 c 0
 352 532 396 496 425 459 c 1
 425 620 l 1
 262 620 l 1
 256 658 l 1
 425 658 l 1
 425 741 l 1xb7
 471 735 l 1xbb
 471 658 l 1
 547 658 l 1xb7
272 29 m 0xb7
 346 29 389 67 425 133 c 1
 425 410 l 1
 394 456 350 493 282 493 c 0
 186 493 119 409 120 259 c 0
 121 111 179 29 272 29 c 0xb7
EndSplineSet
Substitution2: "'smcp' Lowercase to Small Capitals lookup 24 subtable" dcroat.sc
Substitution2: "'aalt' Access All Alternates lookup 0 subtable" dcroat.sc
EndChar
StartChar: Emacron
Encoding: 274 274 85
Width: 504
GlyphClass: 2
Flags: MW
HStem: 0 41<162 460 162 460> 336 41<162 409 162 409> 643 41<162 448 162 162> 805 39<174 403 174 403>
VStem: 115 47<41 336 377 643> 174 229<805 844 805 844>
AnchorPoint: "Anchor-14" 0 0 basechar 0
AnchorPoint: "Anchor-13" 0 0 basechar 0
AnchorPoint: "Anchor-12" 291 844 basechar 0
AnchorPoint: "Anchor-11" 441 0 basechar 0
AnchorPoint: "Anchor-10" 285 0 basechar 0
LayerCount: 2
Back
Fore
SplineSet
403 805 m 1
 174 805 l 1
 174 844 l 1
 403 844 l 1
 403 805 l 1
454 684 m 1
 448 643 l 1
 162 643 l 1
 162 377 l 1
 409 377 l 1
 409 336 l 1
 162 336 l 1
 162 41 l 1
 460 41 l 1
 460 0 l 1
 115 0 l 1
 115 684 l 1xf8
 454 684 l 1
EndSplineSet
Substitution2: "'c2sc' Capitals to Small Capitals lookup 26 subtable" emacron.sc
Substitution2: "'aalt' Access All Alternates lookup 0 subtable" emacron.sc
Position2: "'cpsp' Capital Spacing lookup 0 subtable" dx=5 dy=0 dh=10 dv=0
EndChar

StartChar: emacron
Encoding: 275 275 165
Width: 534
GlyphClass: 2
Flags: MW
HStem: -11 41<239 315.5 239 318.5> 241 37<115 426 115 469 115 426> 493 39<231.5 326> 679 39<161 390 161 390>
VStem: 67 48<241 241 241 278 241 341> 161 229<679 718 679 718> 426 45<278 297 297 355.5>
AnchorPoint: "Anchor-11" 288 0 basechar 0
AnchorPoint: "Anchor-10" 0 0 basechar 0
AnchorPoint: "Anchor-9" 275 522 basechar 0
AnchorPoint: "Anchor-8" 381 5 basechar 0
LayerCount: 2
Fore
SplineSet
390 679 m 1
 161 679 l 1
 161 718 l 1
 390 718 l 1
 390 679 l 1
471 282 m 0
 471 266 470 251 469 241 c 1
 115 241 l 1
 122 93 192 30 286 30 c 0
 345 30 383 48 428 83 c 1
 451 53 l 1
 403 13 353 -11 284 -11 c 0
 150 -11 67 89 67 257 c 0
 67 425 147 532 272 532 c 0
 405 532 471 433 471 282 c 0
426 278 m 1
 426 297 l 2
 426 414 378 493 274 493 c 0
 189 493 121 429 115 278 c 1
 426 278 l 1
EndSplineSet
Substitution2: "'smcp' Lowercase to Small Capitals lookup 24 subtable" emacron.sc
Substitution2: "'aalt' Access All Alternates lookup 0 subtable" emacron.sc
EndChar

StartChar: Ebreve
Encoding: 276 276 26
Width: 504
GlyphClass: 2
Flags: MW
HStem: 0 41<162 460 162 460> 336 41<162 409 162 409> 643 41<162 448 162 162> 767 39<264.5 311.5 264.5 320.5>
VStem: 115 47<41 336 377 643>
AnchorPoint: "Anchor-11" 285 0 basechar 0
AnchorPoint: "Anchor-10" 90 684 basechar 0
AnchorPoint: "Anchor-9" 289 684 basechar 0
AnchorPoint: "Anchor-8" 441 0 basechar 0
LayerCount: 2
Fore
SplineSet
288 767 m 0
 222 767 174 808 165 859 c 1
 197 867 l 1
 210 831 241 806 288 806 c 0
 335 806 366 831 379 867 c 1
 411 859 l 1
 402 808 353 767 288 767 c 0
448 643 m 1
 162 643 l 1
 162 377 l 1
 409 377 l 1
 409 336 l 1
 162 336 l 1
 162 41 l 1
 460 41 l 1
 460 0 l 1
 115 0 l 1
 115 684 l 1
 454 684 l 1
 448 643 l 1
EndSplineSet
Substitution2: "'c2sc' Capitals to Small Capitals lookup 23 subtable" ebreve.sc
Substitution2: "'aalt' Access All Alternates lookup 0 subtable" ebreve.sc
Position2: "'cpsp' Capital Spacing lookup 0 subtable" dx=5 dy=0 dh=10 dv=0
EndChar

StartChar: Eogonek
Encoding: 280 280 33
Width: 504
GlyphClass: 2
Flags: MW
HStem: -213 41<353.5 381> -206 21G<427 427> 0 41<162 368 431 460 431 431> 336 41<162 409 162 409> 643 41<162 448 162 162>
VStem: 115 47<41 336 377 643> 264 45<-135 -98>
AnchorPoint: "Anchor-11" 285 0 basechar 0
AnchorPoint: "Anchor-10" 90 684 basechar 0
AnchorPoint: "Anchor-9" 289 684 basechar 0
AnchorPoint: "Anchor-8" 441 0 basechar 0
LayerCount: 2
Fore
SplineSet
431 0 m 1xbe
 347 -38 309 -68 309 -119 c 0
 309 -151 331 -172 376 -172 c 0
 395 -172 410 -170 432 -166 c 1xbe
 427 -206 l 1x7e
 407 -210 391 -213 371 -213 c 0
 299 -213 264 -174 264 -124 c 0
 264 -72 299 -34 368 0 c 1
 115 0 l 1
 115 684 l 1
 454 684 l 1
 448 643 l 1
 162 643 l 1
 162 377 l 1
 409 377 l 1
 409 336 l 1
 162 336 l 1
 162 41 l 1
 460 41 l 1
 460 0 l 1
 431 0 l 1xbe
EndSplineSet
Substitution2: "'c2sc' Capitals to Small Capitals lookup 23 subtable" eogonek.sc
Substitution2: "'aalt' Access All Alternates lookup 0 subtable" eogonek.sc
Position2: "'cpsp' Capital Spacing lookup 0 subtable" dx=5 dy=0 dh=10 dv=0
EndChar

StartChar: eogonek
Encoding: 281 281 166
Width: 534
GlyphClass: 2
Flags: MW
HStem: -208 41<293.5 321> -11 41<239 284> 241 37<115 426 115 469 115 426> 493 39<231.5 326>
VStem: 67 48<241 241 241 278 241 341> 204 45<-130 -96.5> 426 45<278 297 297 355.5>
AnchorPoint: "Anchor-11" 288 0 basechar 0
AnchorPoint: "Anchor-10" 0 0 basechar 0
AnchorPoint: "Anchor-9" 275 522 basechar 0
AnchorPoint: "Anchor-8" 381 5 basechar 0
LayerCount: 2
Fore
SplineSet
471 282 m 0
 471 266 470 251 469 241 c 1
 115 241 l 1
 122 93 192 30 286 30 c 0
 345 30 383 48 428 83 c 1
 451 53 l 1
 424 30 395 12 363 2 c 1
 285 -35 249 -65 249 -114 c 0
 249 -146 271 -167 316 -167 c 0
 335 -167 350 -165 372 -161 c 1
 367 -201 l 1
 347 -205 331 -208 311 -208 c 0
 239 -208 204 -169 204 -119 c 0
 204 -74 231 -39 284 -11 c 1
 150 -11 67 89 67 257 c 0
 67 425 147 532 272 532 c 0
 405 532 471 433 471 282 c 0
426 278 m 1
 426 297 l 2
 426 414 378 493 274 493 c 0
 189 493 121 429 115 278 c 1
 426 278 l 1
EndSplineSet
Substitution2: "'smcp' Lowercase to Small Capitals lookup 24 subtable" eogonek.sc
Substitution2: "'aalt' Access All Alternates lookup 0 subtable" eogonek.sc
EndChar
StartChar: Ecaron
Encoding: 282 282 70
Width: 504
GlyphClass: 2
Flags: MW
HStem: 0 41<162 460 162 460> 336 41<162 409 162 409> 643 41<162 448 162 162>
VStem: 115 47<41 336 377 643>
AnchorPoint: "Anchor-14" 0 0 basechar 0
AnchorPoint: "Anchor-13" 0 0 basechar 0
AnchorPoint: "Anchor-12" 291 880 basechar 0
AnchorPoint: "Anchor-11" 441 0 basechar 0
AnchorPoint: "Anchor-10" 285 0 basechar 0
LayerCount: 2
Back
Fore
SplineSet
408 880 m 1
 429 855 l 1
 302 757 l 1
 275 757 l 1
 147 855 l 1
 168 880 l 1
 289 801 l 1
 408 880 l 1
454 684 m 1
 448 643 l 1
 162 643 l 1
 162 377 l 1
 409 377 l 1
 409 336 l 1
 162 336 l 1
 162 41 l 1
 460 41 l 1
 460 0 l 1
 115 0 l 1
 115 684 l 1
 454 684 l 1
EndSplineSet
Substitution2: "'c2sc' Capitals to Small Capitals lookup 26 subtable" ecaron.sc
Substitution2: "'aalt' Access All Alternates lookup 0 subtable" ecaron.sc
Position2: "'cpsp' Capital Spacing lookup 0 subtable" dx=5 dy=0 dh=10 dv=0
EndChar
StartChar: ecaron
Encoding: 283 283 413
Width: 534
GlyphClass: 2
Flags: MW
HStem: -11 41<239 315.5 239 318.5> 241 37<115 426 115 469 115 426> 493 39<231.5 326> 719 20G<134 134 416 416>
VStem: 67 48<241 241 241 278 241 341> 426 45<278 297 297 355.5>
AnchorPoint: "Anchor-14" 0 0 basechar 0
AnchorPoint: "Anchor-13" 0 0 basechar 0
AnchorPoint: "Anchor-12" 278 763 basechar 0
AnchorPoint: "Anchor-11" 381 5 basechar 0
AnchorPoint: "Anchor-10" 288 0 basechar 0
LayerCount: 2
Back
Fore
SplineSet
289 635 m 1
 262 635 l 1
 134 739 l 1
 155 763 l 1
 276 679 l 1
 395 763 l 1
 416 739 l 1
 289 635 l 1
471 282 m 0
 471 266 470 251 469 241 c 1
 115 241 l 1
 122 93 192 30 286 30 c 0
 345 30 383 48 428 83 c 1
 451 53 l 1
 403 13 353 -11 284 -11 c 0
 150 -11 67 89 67 257 c 0
 67 425 147 532 272 532 c 0
 405 532 471 433 471 282 c 0
426 278 m 1
 426 297 l 2
 426 414 378 493 274 493 c 0
 189 493 120 428 115 278 c 1
 426 278 l 1
EndSplineSet
Substitution2: "'smcp' Lowercase to Small Capitals lookup 27 subtable" ecaron.sc
Substitution2: "'aalt' Access All Alternates lookup 0 subtable" ecaron.sc
EndChar

StartChar: Gbreve
Encoding: 286 286 36
Width: 614
GlyphClass: 2
Flags: MW
HStem: -11 42<281 381 281 385> 324 41<361 499 361 361> 653 41<294.5 381> 767 39<326.5 373.5 326.5 382.5>
VStem: 70 50<238 456 238 463> 499 47<68 324 324 324>
AnchorPoint: "Anchor-11" 339 0 basechar 0
AnchorPoint: "Anchor-10" 0 0 basechar 0
AnchorPoint: "Anchor-9" 351 684 basechar 0
AnchorPoint: "Anchor-8" 0 0 basechar 0
LayerCount: 2
Fore
SplineSet
350 767 m 0
 284 767 236 808 227 859 c 1
 259 867 l 1
 272 831 303 806 350 806 c 0
 397 806 428 831 441 867 c 1
 473 859 l 1
 464 808 415 767 350 767 c 0
349 694 m 0
 428 694 478 673 533 629 c 1
 504 599 l 1
 456 636 412 653 350 653 c 0
 239 653 120 567 120 345 c 0
 120 131 211 31 351 31 c 0
 411 31 455 44 499 68 c 1
 499 324 l 1
 361 324 l 1
 355 365 l 1
 546 365 l 1
 546 44 l 1
 487 9 421 -11 349 -11 c 0
 183 -11 70 108 70 345 c 0
 70 581 210 694 349 694 c 0
EndSplineSet
Substitution2: "'c2sc' Capitals to Small Capitals lookup 23 subtable" gbreve.sc
Substitution2: "'aalt' Access All Alternates lookup 0 subtable" gbreve.sc
Position2: "'cpsp' Capital Spacing lookup 0 subtable" dx=5 dy=0 dh=10 dv=0
EndChar

StartChar: gbreve
Encoding: 287 287 169
Width: 497
GlyphClass: 2
Flags: MW
HStem: -203 40<186.5 313 186.5 325.5> 33 41<174 308 222 301> 185 36<234.5 290.5 204.5 304.5> 495 37<199 246 189 293.5> 501 31 542 20G<471 471> 656 40<226.5 273.5 226.5 282.5>
VStem: 36 44<-107.5 -56> 59 47<322.5 398 313.5 410> 89 45<115.5 140.5> 385 47<313 393 304.5 398> 424 47<-90.5 -29>
AnchorPoint: "Anchor-11" 0 0 basechar 0
AnchorPoint: "Anchor-10" 0 0 basechar 0
AnchorPoint: "Anchor-9" 250 522 basechar 0
AnchorPoint: "Anchor-8" 0 0 basechar 0
LayerCount: 2
Fore
SplineSet
250 656 m 0xf260
 184 656 136 697 127 759 c 1
 159 766 l 1
 172 720 203 696 250 696 c 0
 297 696 328 720 341 766 c 1
 373 759 l 1
 364 697 315 656 250 656 c 0xf260
486 516 m 1xea60
 453 506 409 502 344 501 c 1
 397 476 432 431 432 355 c 0
 432 254 362 185 247 185 c 0
 222 185 198 189 178 196 c 1
 151 181 134 158 134 132 c 0
 134 99 156 74 222 74 c 2xea60
 308 74 l 2
 410 74 471 21 471 -55 c 0
 471 -147 400 -203 251 -203 c 0
 98 -203 36 -159 36 -56 c 1
 80 -56 l 1xf350
 81 -134 122 -163 251 -163 c 0
 375 -163 424 -123 424 -58 c 0
 424 0 378 33 301 33 c 2
 216 33 l 2
 132 33 89 73 89 123 c 0xf250
 89 158 111 188 146 210 c 1
 87 241 59 287 59 358 c 0
 59 462 132 532 246 532 c 0xf2a0
 390 531 424 543 471 562 c 1xf660
 486 516 l 1xea60
247 495 m 0xf2a0
 151 495 106 438 106 358 c 0
 106 269 163 221 246 221 c 0
 335 221 385 270 385 356 c 0
 385 440 340 495 247 495 c 0xf2a0
EndSplineSet
Substitution2: "'smcp' Lowercase to Small Capitals lookup 24 subtable" gbreve.sc
Substitution2: "'aalt' Access All Alternates lookup 0 subtable" gbreve.sc
EndChar

StartChar: Gdotaccent
Encoding: 288 288 39
Width: 614
GlyphClass: 2
Flags: MW
HStem: -11 42<281 381 281 385> 324 41<361 499 361 361> 653 41<294.5 381> 800 70<339 361>
VStem: 70 50<238 456 238 463> 314 72<825.5 844.5> 499 47<68 324 324 324>
AnchorPoint: "Anchor-11" 339 0 basechar 0
AnchorPoint: "Anchor-10" 0 0 basechar 0
AnchorPoint: "Anchor-9" 351 684 basechar 0
AnchorPoint: "Anchor-8" 0 0 basechar 0
LayerCount: 2
Fore
SplineSet
350 870 m 0
 372 870 386 854 386 835 c 0
 386 816 372 800 350 800 c 0
 328 800 314 816 314 835 c 0
 314 854 328 870 350 870 c 0
349 694 m 0
 428 694 478 673 533 629 c 1
 504 599 l 1
 456 636 412 653 350 653 c 0
 239 653 120 567 120 345 c 0
 120 131 211 31 351 31 c 0
 411 31 455 44 499 68 c 1
 499 324 l 1
 361 324 l 1
 355 365 l 1
 546 365 l 1
 546 44 l 1
 487 9 421 -11 349 -11 c 0
 183 -11 70 108 70 345 c 0
 70 581 210 694 349 694 c 0
EndSplineSet
Substitution2: "'c2sc' Capitals to Small Capitals lookup 23 subtable" gdotaccent.sc
Substitution2: "'aalt' Access All Alternates lookup 0 subtable" gdotaccent.sc
Position2: "'cpsp' Capital Spacing lookup 0 subtable" dx=5 dy=0 dh=10 dv=0
EndChar

StartChar: gdotaccent
Encoding: 289 289 172
Width: 497
GlyphClass: 2
Flags: MW
HStem: -203 40<186.5 313 186.5 325.5> 33 41<174 308 222 301> 185 36<234.5 290.5 204.5 304.5> 495 37<199 246 189 293.5> 501 31 542 20G<471 471> 674 70<239 261>
VStem: 36 44<-107.5 -56> 59 47<322.5 398 313.5 410> 89 45<115.5 140.5> 214 72<699.5 718.5> 385 47<313 393 304.5 398> 424 47<-90.5 -29>
AnchorPoint: "Anchor-11" 0 0 basechar 0
AnchorPoint: "Anchor-10" 0 0 basechar 0
AnchorPoint: "Anchor-9" 250 522 basechar 0
AnchorPoint: "Anchor-8" 0 0 basechar 0
LayerCount: 2
Fore
SplineSet
250 744 m 0xf270
 272 744 286 728 286 709 c 0
 286 690 272 674 250 674 c 0
 228 674 214 690 214 709 c 0
 214 728 228 744 250 744 c 0xf270
486 516 m 1xea70
 453 506 409 502 344 501 c 1
 397 476 432 431 432 355 c 0
 432 254 362 185 247 185 c 0
 222 185 198 189 178 196 c 1
 151 181 134 158 134 132 c 0
 134 99 156 74 222 74 c 2xea70
 308 74 l 2
 410 74 471 21 471 -55 c 0
 471 -147 400 -203 251 -203 c 0
 98 -203 36 -159 36 -56 c 1
 80 -56 l 1xf368
 81 -134 122 -163 251 -163 c 0
 375 -163 424 -123 424 -58 c 0
 424 0 378 33 301 33 c 2
 216 33 l 2
 132 33 89 73 89 123 c 0xf268
 89 158 111 188 146 210 c 1
 87 241 59 287 59 358 c 0
 59 462 132 532 246 532 c 0xf2b0
 390 531 424 543 471 562 c 1xf670
 486 516 l 1xea70
247 495 m 0xf2b0
 151 495 106 438 106 358 c 0
 106 269 163 221 246 221 c 0
 335 221 385 270 385 356 c 0
 385 440 340 495 247 495 c 0xf2b0
EndSplineSet
Substitution2: "'smcp' Lowercase to Small Capitals lookup 24 subtable" gdotaccent.sc
Substitution2: "'aalt' Access All Alternates lookup 0 subtable" gdotaccent.sc
EndChar
StartChar: Gcommaaccent
Encoding: 290 290 104
Width: 614
GlyphClass: 2
Flags: MW
HStem: -11 42<281 381 281 385> 324 41<361 499 361 361> 653 41<294.5 381>
VStem: 70 50<238 456 238 463> 298 78<-133 -114.5 -133 -114.5> 499 47<68 324 324 324>
AnchorPoint: "Anchor-14" 0 0 basechar 0
AnchorPoint: "Anchor-13" 0 0 basechar 0
AnchorPoint: "Anchor-12" 351 684 basechar 0
AnchorPoint: "Anchor-11" 0 0 basechar 0
AnchorPoint: "Anchor-10" 339 0 basechar 0
LayerCount: 2
Back
Fore
SplineSet
349 694 m 0
 428 694 478 673 533 629 c 1
 504 599 l 1
 456 636 412 653 350 653 c 0
 239 653 120 567 120 345 c 0
 120 131 211 31 351 31 c 0
 411 31 455 44 499 68 c 1
 499 324 l 1
 361 324 l 1
 355 365 l 1
 546 365 l 1
 546 44 l 1
 487 9 421 -11 349 -11 c 0
 183 -11 70 108 70 345 c 0
 70 581 210 694 349 694 c 0
337 -87 m 0
 362 -87 376 -104 376 -125 c 0
 376 -141 371 -153 356 -187 c 2
 316 -273 l 1
 287 -273 l 1
 320 -159 l 1
 306 -152 298 -142 298 -125 c 0
 298 -104 315 -87 337 -87 c 0
EndSplineSet
Substitution2: "'c2sc' Capitals to Small Capitals lookup 26 subtable" gcommaaccent.sc
Substitution2: "'aalt' Access All Alternates lookup 0 subtable" gcommaaccent.sc
Position2: "'cpsp' Capital Spacing lookup 0 subtable" dx=5 dy=0 dh=10 dv=0
EndChar

StartChar: gcommaaccent
Encoding: 291 291 171
Width: 497
GlyphClass: 2
Flags: MW
HStem: -203 40<186.5 313 186.5 325.5> 33 41<174 308 222 301> 185 36<234.5 290.5 204.5 304.5> 495 37<199 246 189 293.5> 501 31 542 20G<471 471>
VStem: 36 44<-107.5 -56> 59 47<322.5 398 313.5 410> 89 45<115.5 140.5> 211 78<636.5 655> 385 47<313 393 304.5 398> 424 47<-90.5 -29>
AnchorPoint: "Anchor-11" 0 0 basechar 0
AnchorPoint: "Anchor-10" 0 0 basechar 0
AnchorPoint: "Anchor-9" 250 522 basechar 0
AnchorPoint: "Anchor-8" 0 0 basechar 0
LayerCount: 2
Fore
SplineSet
250 609 m 0xf0e0
 225 609 211 626 211 647 c 0
 211 663 216 675 231 709 c 2
 271 795 l 1
 300 795 l 1
 267 681 l 1
 283 674 289 664 289 647 c 0
 289 626 273 609 250 609 c 0xf0e0
486 516 m 1xe8e0
 453 506 409 502 344 501 c 1
 397 476 432 431 432 355 c 0
 432 254 362 185 247 185 c 0
 222 185 198 189 178 196 c 1
 151 181 134 158 134 132 c 0
 134 99 156 74 222 74 c 2xe8e0
 308 74 l 2
 410 74 471 21 471 -55 c 0
 471 -147 400 -203 251 -203 c 0
 98 -203 36 -159 36 -56 c 1
 80 -56 l 1xf2d0
 81 -134 122 -163 251 -163 c 0
 375 -163 424 -123 424 -58 c 0
 424 0 378 33 301 33 c 2
 216 33 l 2
 132 33 89 73 89 123 c 0xf0d0
 89 158 111 188 146 210 c 1
 87 241 59 287 59 358 c 0
 59 462 132 532 246 532 c 0xf160
 390 531 424 543 471 562 c 1xf4e0
 486 516 l 1xe8e0
247 495 m 0xf160
 151 495 106 438 106 358 c 0
 106 269 163 221 246 221 c 0
 335 221 385 270 385 356 c 0
 385 440 340 495 247 495 c 0xf160
EndSplineSet
Substitution2: "'smcp' Lowercase to Small Capitals lookup 24 subtable" gcommaaccent.sc
Substitution2: "'aalt' Access All Alternates lookup 0 subtable" gcommaaccent.sc
EndChar

StartChar: Hcircumflex
Encoding: 292 292 42
Width: 667
GlyphClass: 2
Flags: MW
HStem: 0 21G<115 162 115 115 504 504 504 552> 339 42<162 504 162 504> 664 20G<115 162 162 162 504 552 552 552>
VStem: 115 47<0 339 0 381 381 684> 504 48<0 339 339 339 381 684 0 684>
AnchorPoint: "Anchor-11" 0 0 basechar 0
AnchorPoint: "Anchor-10" 90 684 basechar 0
AnchorPoint: "Anchor-9" 332 684 basechar 0
AnchorPoint: "Anchor-8" 0 0 basechar 0
LayerCount: 2
Fore
SplineSet
332 843 m 1
 211 763 l 1
 190 788 l 1
 318 887 l 1
 345 887 l 1
 472 788 l 1
 451 763 l 1
 332 843 l 1
504 339 m 1
 162 339 l 1
 162 0 l 1
 115 0 l 1
 115 684 l 1
 162 684 l 1
 162 381 l 1
 504 381 l 1
 504 684 l 1
 552 684 l 1
 552 0 l 1
 504 0 l 1
 504 339 l 1
EndSplineSet
Substitution2: "'c2sc' Capitals to Small Capitals lookup 23 subtable" hcircumflex.sc
Substitution2: "'aalt' Access All Alternates lookup 0 subtable" hcircumflex.sc
Position2: "'cpsp' Capital Spacing lookup 0 subtable" dx=5 dy=0 dh=10 dv=0
EndChar
StartChar: hcircumflex
Encoding: 293 293 472
Width: 583
GlyphClass: 2
Flags: MW
HStem: 0 21G<110 156 110 110 432 478 432 432> 494 38<296.5 362> 715 20G<110 110> 721 20G<156 156>
VStem: 110 46<0 381 430 735 735 735> 432 46<0 366 366 372 0 410>
AnchorPoint: "Anchor-14" 295 261 basechar 0
AnchorPoint: "Anchor-13" 386 795 basechar 0
AnchorPoint: "Anchor-12" 294 938 basechar 0
AnchorPoint: "Anchor-11" 0 0 basechar 0
AnchorPoint: "Anchor-10" 295 0 basechar 0
LayerCount: 2
Back
Fore
SplineSet
295 894 m 1xdc
 174 814 l 1
 153 839 l 1
 281 938 l 1
 308 938 l 1
 435 839 l 1
 414 814 l 1
 295 894 l 1xdc
335 532 m 0
 429 532 478 472 478 372 c 2
 478 0 l 1
 432 0 l 1
 432 366 l 2
 432 454 396 494 328 494 c 0
 253 494 201 447 156 381 c 1
 156 0 l 1
 110 0 l 1
 110 735 l 1xec
 156 741 l 1
 156 430 l 1
 200 491 258 532 335 532 c 0
EndSplineSet
Substitution2: "'smcp' Lowercase to Small Capitals lookup 27 subtable" hcircumflex.sc
Substitution2: "'aalt' Access All Alternates lookup 0 subtable" hcircumflex.sc
EndChar

StartChar: Hbar
Encoding: 294 294 41
Width: 661
GlyphClass: 2
Flags: MW
HStem: 0 21G<119 166 119 119 508 556 508 508> 339 42<166 508 166 508> 515 36<50 119 50 119 166 508 556 611> 515 169<50 166 50 166 119 166 119 508>
VStem: 119 47<0 339 0 381 381 515 551 684> 508 48<0 339 339 339 381 515 0 515 551 684>
AnchorPoint: "Anchor-11" 0 0 basechar 0
AnchorPoint: "Anchor-10" 94 684 basechar 0
AnchorPoint: "Anchor-9" 336 684 basechar 0
AnchorPoint: "Anchor-8" 0 0 basechar 0
LayerCount: 2
Fore
SplineSet
611 515 m 1xec
 556 515 l 1
 556 0 l 1
 508 0 l 1
 508 339 l 1
 166 339 l 1
 166 0 l 1
 119 0 l 1
 119 515 l 1
 50 515 l 1
 50 551 l 1
 119 551 l 1xec
 119 684 l 1
 166 684 l 1xdc
 166 551 l 1
 508 551 l 1xec
 508 684 l 1
 556 684 l 1xdc
 556 551 l 1
 611 551 l 1
 611 515 l 1xec
508 515 m 1
 166 515 l 1
 166 381 l 1
 508 381 l 1
 508 515 l 1
EndSplineSet
Substitution2: "'c2sc' Capitals to Small Capitals lookup 23 subtable" hbar.sc
Substitution2: "'aalt' Access All Alternates lookup 0 subtable" hbar.sc
Position2: "'cpsp' Capital Spacing lookup 0 subtable" dx=5 dy=0 dh=10 dv=0
EndChar

StartChar: hbar
Encoding: 295 295 174
Width: 588
GlyphClass: 2
Flags: MW
HStem: 0 21G<115 161 115 115 437 483 437 437> 494 38<301.5 367> 620 38<40 115 40 115 161 329> 715 20G<115 115> 721 20G<161 161>
VStem: 115 46<0 381 430 620 658 735 735 735> 437 46<0 366 366 372 0 410>
AnchorPoint: "Anchor-11" 0 0 basechar 0
AnchorPoint: "Anchor-10" 0 0 basechar 0
AnchorPoint: "Anchor-9" 300 735 basechar 0
AnchorPoint: "Anchor-8" 0 0 basechar 0
LayerCount: 2
Fore
SplineSet
340 532 m 0xee
 434 532 483 472 483 372 c 2
 483 0 l 1
 437 0 l 1
 437 366 l 2
 437 454 401 494 333 494 c 0
 258 494 206 447 161 381 c 1
 161 0 l 1
 115 0 l 1
 115 620 l 1
 40 620 l 1
 40 658 l 1
 115 658 l 1
 115 735 l 1xf6
 161 741 l 1
 161 658 l 1
 336 658 l 1
 329 620 l 1
 161 620 l 1
 161 430 l 1
 206 491 263 532 340 532 c 0xee
EndSplineSet
Substitution2: "'smcp' Lowercase to Small Capitals lookup 24 subtable" hbar.sc
Substitution2: "'aalt' Access All Alternates lookup 0 subtable" hbar.sc
EndChar
StartChar: Itilde
Encoding: 296 296 136
Width: 277
GlyphClass: 2
Flags: MW
HStem: 0 21G<115 162 115 115> 664 20G<115 162 162 162> 796 38<176.5 206.5 176.5 213> 840 38<67.5 96>
VStem: 115 47<0 684 0 684>
AnchorPoint: "Anchor-14" 0 0 basechar 0
AnchorPoint: "Anchor-13" 0 0 basechar 0
AnchorPoint: "Anchor-12" 140 878 basechar 0
AnchorPoint: "Anchor-11" 172 0 basechar 0
AnchorPoint: "Anchor-10" 139 0 basechar 0
LayerCount: 2
Back
Fore
SplineSet
196 796 m 0
 146 796 113 840 79 840 c 0
 56 840 41 829 22 803 c 1
 -7 818 l 1
 15 854 43 878 79 878 c 0xd8
 122 878 157 834 196 834 c 0
 217 834 232 846 253 877 c 1
 282 862 l 1
 259 815 230 796 196 796 c 0
162 684 m 1
 162 0 l 1
 115 0 l 1
 115 684 l 1
 162 684 l 1
EndSplineSet
Substitution2: "'c2sc' Capitals to Small Capitals lookup 26 subtable" itilde.sc
Substitution2: "'aalt' Access All Alternates lookup 0 subtable" itilde.sc
Position2: "'cpsp' Capital Spacing lookup 0 subtable" dx=5 dy=0 dh=10 dv=0
EndChar
StartChar: itilde
Encoding: 297 297 497
Width: 266
GlyphClass: 2
Flags: MW
HStem: 0 21G<110 156 110 110> 502 20G<110 156 156 156> 670 38<171.5 201.5 171.5 208> 672 20G<-12 -12> 714 38<62.5 91> 716 20G<277 277>
VStem: 110 46<0 522 0 522>
AnchorPoint: "Anchor-14" 0 0 basechar 0
AnchorPoint: "Anchor-13" 0 0 basechar 0
AnchorPoint: "Anchor-12" 133 709 basechar 0
AnchorPoint: "Anchor-11" 166 0 basechar 0
AnchorPoint: "Anchor-10" 133 0 basechar 0
LayerCount: 2
Back
Fore
SplineSet
191 670 m 0xe6
 141 670 108 714 74 714 c 0
 51 714 36 703 17 677 c 1
 -12 692 l 1
 10 728 38 752 74 752 c 0xda
 117 752 152 708 191 708 c 0
 212 708 227 720 248 751 c 1xe6
 277 736 l 1xd6
 254 689 225 670 191 670 c 0xe6
156 522 m 1xd6
 156 0 l 1
 110 0 l 1
 110 522 l 1
 156 522 l 1xd6
EndSplineSet
Substitution2: "'smcp' Lowercase to Small Capitals lookup 27 subtable" itilde.sc
Substitution2: "'aalt' Access All Alternates lookup 0 subtable" itilde.sc
EndChar
StartChar: Imacron
Encoding: 298 298 132
Width: 277
GlyphClass: 2
Flags: MW
HStem: 0 21G<115 162 115 115> 664 20G<115 162 162 162> 805 39<23 252 23 252>
VStem: 115 47<0 684 0 684>
AnchorPoint: "Anchor-14" 0 0 basechar 0
AnchorPoint: "Anchor-13" 0 0 basechar 0
AnchorPoint: "Anchor-12" 140 844 basechar 0
AnchorPoint: "Anchor-11" 172 0 basechar 0
AnchorPoint: "Anchor-10" 139 0 basechar 0
LayerCount: 2
Back
Fore
SplineSet
252 805 m 1
 23 805 l 1
 23 844 l 1
 252 844 l 1
 252 805 l 1
162 684 m 1
 162 0 l 1
 115 0 l 1
 115 684 l 1
 162 684 l 1
EndSplineSet
Substitution2: "'c2sc' Capitals to Small Capitals lookup 26 subtable" imacron.sc
Substitution2: "'aalt' Access All Alternates lookup 0 subtable" imacron.sc
Position2: "'cpsp' Capital Spacing lookup 0 subtable" dx=5 dy=0 dh=10 dv=0
EndChar

StartChar: imacron
Encoding: 299 299 185
Width: 266
GlyphClass: 2
Flags: MW
HStem: 0 21G<110 156 110 110> 502 20G<110 156 156 156> 679 39<18 247 18 247>
VStem: 110 46<0 522>
AnchorPoint: "Anchor-11" 0 0 basechar 0
AnchorPoint: "Anchor-10" 0 0 basechar 0
AnchorPoint: "Anchor-9" 133 522 basechar 0
AnchorPoint: "Anchor-8" 166 0 basechar 0
LayerCount: 2
Fore
SplineSet
18 679 m 1
 18 718 l 1
 247 718 l 1
 247 679 l 1
 18 679 l 1
156 0 m 1
 110 0 l 1
 110 522 l 1
 156 522 l 1
 156 0 l 1
EndSplineSet
Substitution2: "'smcp' Lowercase to Small Capitals lookup 24 subtable" imacron.sc
Substitution2: "'aalt' Access All Alternates lookup 0 subtable" imacron.sc
EndChar
StartChar: Ibreve
Encoding: 300 300 121
Width: 277
GlyphClass: 2
Flags: MW
HStem: 0 21G<115 162 115 115> 664 20G<115 162 162 162> 767 39<114.5 161.5 114.5 170.5>
VStem: 115 47<0 684 0 684>
AnchorPoint: "Anchor-14" 0 0 basechar 0
AnchorPoint: "Anchor-13" 0 0 basechar 0
AnchorPoint: "Anchor-12" 140 867 basechar 0
AnchorPoint: "Anchor-11" 172 0 basechar 0
AnchorPoint: "Anchor-10" 139 0 basechar 0
LayerCount: 2
Back
Fore
SplineSet
138 767 m 0
 72 767 24 808 15 859 c 1
 47 867 l 1
 60 831 91 806 138 806 c 0
 185 806 216 831 229 867 c 1
 261 859 l 1
 252 808 203 767 138 767 c 0
162 684 m 1
 162 0 l 1
 115 0 l 1
 115 684 l 1
 162 684 l 1
EndSplineSet
Substitution2: "'c2sc' Capitals to Small Capitals lookup 26 subtable" ibreve.sc
Substitution2: "'aalt' Access All Alternates lookup 0 subtable" ibreve.sc
Position2: "'cpsp' Capital Spacing lookup 0 subtable" dx=5 dy=0 dh=10 dv=0
EndChar
StartChar: ibreve
Encoding: 301 301 481
Width: 266
GlyphClass: 2
Flags: MW
HStem: 0 21G<110 156 110 110> 502 20G<110 156 156 156> 656 40<109.5 156.5 109.5 165.5>
VStem: 110 46<0 522 0 522>
AnchorPoint: "Anchor-14" 0 0 basechar 0
AnchorPoint: "Anchor-13" 0 0 basechar 0
AnchorPoint: "Anchor-12" 135 766 basechar 0
AnchorPoint: "Anchor-11" 166 0 basechar 0
AnchorPoint: "Anchor-10" 133 0 basechar 0
LayerCount: 2
Back
Fore
SplineSet
133 656 m 0
 67 656 19 697 10 759 c 1
 42 766 l 1
 55 720 86 696 133 696 c 0
 180 696 211 720 224 766 c 1
 256 759 l 1
 247 697 198 656 133 656 c 0
156 522 m 1
 156 0 l 1
 110 0 l 1
 110 522 l 1
 156 522 l 1
EndSplineSet
Substitution2: "'smcp' Lowercase to Small Capitals lookup 27 subtable" ibreve.sc
Substitution2: "'aalt' Access All Alternates lookup 0 subtable" ibreve.sc
EndChar

StartChar: Iogonek
Encoding: 302 302 52
Width: 277
GlyphClass: 2
Flags: MW
HStem: -213 41<85.5 113> -206 21G<159 159> 0 21G<163 163> 664 20G<115 163 163 163>
VStem: -4 45<-135 -96> 115 48<7 684 0 684>
AnchorPoint: "Anchor-11" 0 0 basechar 0
AnchorPoint: "Anchor-10" 90 684 basechar 0
AnchorPoint: "Anchor-9" 138 684 basechar 0
AnchorPoint: "Anchor-8" 173 0 basechar 0
LayerCount: 2
Fore
SplineSet
108 -172 m 0xbc
 127 -172 142 -170 164 -166 c 1xbc
 159 -206 l 1x7c
 139 -210 123 -213 103 -213 c 0
 31 -213 -4 -174 -4 -124 c 0
 -4 -68 37 -28 115 7 c 1
 115 684 l 1
 163 684 l 1
 163 0 l 1
 79 -38 41 -68 41 -119 c 0
 41 -151 63 -172 108 -172 c 0xbc
EndSplineSet
Substitution2: "'c2sc' Capitals to Small Capitals lookup 23 subtable" iogonek.sc
Substitution2: "'aalt' Access All Alternates lookup 0 subtable" iogonek.sc
Position2: "'cpsp' Capital Spacing lookup 0 subtable" dx=5 dy=0 dh=10 dv=0
EndChar
StartChar: iogonek
Encoding: 303 303 494
Width: 266
GlyphClass: 2
Flags: MW
HStem: -213 41<76.5 106> -206 21G<152 152> 0 21G<156 156> 502 20G<110 156 156 156> 674 70<122 144>
VStem: -11 45<-135 -96> 97 72<699.5 718.5> 110 46<8 522 0 522>
AnchorPoint: "Anchor-14" 0 0 basechar 0
AnchorPoint: "Anchor-13" 0 0 basechar 0
AnchorPoint: "Anchor-12" 134 680 basechar 0
AnchorPoint: "Anchor-11" 166 0 basechar 0
AnchorPoint: "Anchor-10" 133 0 basechar 0
LayerCount: 2
Back
Fore
SplineSet
133 744 m 0xbe
 155 744 169 728 169 709 c 0
 169 690 155 674 133 674 c 0
 111 674 97 690 97 709 c 0
 97 728 111 744 133 744 c 0xbe
34 -119 m 0
 34 -151 54 -172 99 -172 c 0
 118 -172 135 -170 157 -166 c 1xbd
 152 -206 l 1
 132 -210 116 -213 96 -213 c 0
 24 -213 -11 -174 -11 -124 c 0
 -11 -68 30 -27 110 8 c 1
 110 522 l 1
 156 522 l 1
 156 0 l 1x7d
 72 -38 34 -68 34 -119 c 0
EndSplineSet
Substitution2: "'smcp' Lowercase to Small Capitals lookup 27 subtable" iogonek.sc
Substitution2: "'aalt' Access All Alternates lookup 0 subtable" iogonek.sc
EndChar
StartChar: Idotaccent
Encoding: 304 304 127
Width: 277
GlyphClass: 2
Flags: MW
HStem: 0 21G<115 162 115 115> 664 20G<115 162 162 162> 800 70<127 149>
VStem: 102 72<825.5 844.5> 115 47<0 684 0 684>
AnchorPoint: "Anchor-14" 0 0 basechar 0
AnchorPoint: "Anchor-13" 0 0 basechar 0
AnchorPoint: "Anchor-12" 140 870 basechar 0
AnchorPoint: "Anchor-11" 172 0 basechar 0
AnchorPoint: "Anchor-10" 139 0 basechar 0
LayerCount: 2
Back
Fore
SplineSet
138 870 m 0xf0
 160 870 174 854 174 835 c 0
 174 816 160 800 138 800 c 0
 116 800 102 816 102 835 c 0
 102 854 116 870 138 870 c 0xf0
162 684 m 1xe8
 162 0 l 1
 115 0 l 1
 115 684 l 1
 162 684 l 1xe8
EndSplineSet
Substitution2: "'c2sc' Capitals to Small Capitals lookup 26 subtable" i.sc.loclTRK
Substitution2: "'aalt' Access All Alternates lookup 0 subtable" i.sc.loclTRK
Position2: "'cpsp' Capital Spacing lookup 0 subtable" dx=5 dy=0 dh=10 dv=0
EndChar
StartChar: dotlessi
Encoding: 305 305 479
Width: 266
GlyphClass: 2
Flags: MW
HStem: 0 21G<110 156 110 110> 502 20G<110 156 156 156>
VStem: 110 46<0 522 0 522>
AnchorPoint: "Anchor-14" 0 0 basechar 0
AnchorPoint: "Anchor-13" 0 0 basechar 0
AnchorPoint: "Anchor-12" 133 522 basechar 0
AnchorPoint: "Anchor-11" 166 0 basechar 0
AnchorPoint: "Anchor-10" 133 0 basechar 0
LayerCount: 2
Back
Fore
SplineSet
156 522 m 1
 156 0 l 1
 110 0 l 1
 110 522 l 1
 156 522 l 1
EndSplineSet
Substitution2: "'smcp' Lowercase to Small Capitals lookup 27 subtable" dotlessi.sc
Substitution2: "'aalt' Access All Alternates lookup 0 subtable" dotlessi.sc
EndChar

StartChar: IJ
Encoding: 306 306 44
Width: 563
GlyphClass: 2
Flags: MW
HStem: 0 21G<115 163 115 115> 664 20G<115 163 163 163 406 454 454 454>
VStem: 115 48<0 684> 406 48<93 684>
AnchorPoint: "Anchor-11" 0 0 basechar 0
AnchorPoint: "Anchor-10" 90 684 basechar 0
AnchorPoint: "Anchor-9" 428 684 basechar 0
AnchorPoint: "Anchor-8" 173 0 basechar 0
LayerCount: 2
Fore
SplineSet
163 0 m 1
 115 0 l 1
 115 684 l 1
 163 684 l 1
 163 0 l 1
454 90 m 2
 454 -24 418 -66 306 -113 c 1
 293 -78 l 1
 384 -36 406 0 406 93 c 2
 406 684 l 1
 454 684 l 1
 454 90 l 2
EndSplineSet
Substitution2: "'c2sc' Capitals to Small Capitals lookup 23 subtable" ij.sc
Substitution2: "'aalt' Access All Alternates lookup 0 subtable" ij.sc
Position2: "'cpsp' Capital Spacing lookup 0 subtable" dx=5 dy=0 dh=10 dv=0
EndChar

StartChar: ij
Encoding: 307 307 184
Width: 532
GlyphClass: 2
Flags: MW
HStem: -200 21G<291 291> 0 21G<110 156 110 110> 502 20G<110 156 156 156 376 422 422 422> 674 70<122 144 388 410>
VStem: 97 72<699.5 718.5> 110 46<0 522> 363 72<699.5 718.5> 376 46<13 14 14 522>
AnchorPoint: "Anchor-11" 0 0 basechar 0
AnchorPoint: "Anchor-10" 0 0 basechar 0
AnchorPoint: "Anchor-9" 399 522 basechar 0
AnchorPoint: "Anchor-8" 166 0 basechar 0
LayerCount: 2
Fore
SplineSet
133 744 m 0xfa
 155 744 169 728 169 709 c 0
 169 690 155 674 133 674 c 0
 111 674 97 690 97 709 c 0
 97 728 111 744 133 744 c 0xfa
399 744 m 0
 421 744 435 728 435 709 c 0
 435 690 421 674 399 674 c 0
 377 674 363 690 363 709 c 0
 363 728 377 744 399 744 c 0
156 0 m 1xf5
 110 0 l 1
 110 522 l 1
 156 522 l 1
 156 0 l 1xf5
422 14 m 2
 422 -122 380 -158 291 -200 c 1
 278 -167 l 1
 347 -132 376 -103 376 13 c 2
 376 522 l 1
 422 522 l 1
 422 14 l 2
EndSplineSet
Substitution2: "'smcp' Lowercase to Small Capitals lookup 24 subtable" ij.sc
Substitution2: "'aalt' Access All Alternates lookup 0 subtable" ij.sc
EndChar

StartChar: Jcircumflex
Encoding: 308 308 55
Width: 286
GlyphClass: 2
Flags: MW
HStem: 664 20G<129 177 177 177>
VStem: 129 48<93 684>
AnchorPoint: "Anchor-11" 0 0 basechar 0
AnchorPoint: "Anchor-10" 0 0 basechar 0
AnchorPoint: "Anchor-9" 151 684 basechar 0
AnchorPoint: "Anchor-8" 0 0 basechar 0
LayerCount: 2
Fore
SplineSet
152 843 m 1
 31 763 l 1
 10 788 l 1
 138 887 l 1
 165 887 l 1
 292 788 l 1
 271 763 l 1
 152 843 l 1
177 90 m 2
 177 -24 141 -66 29 -113 c 1
 16 -78 l 1
 107 -36 129 0 129 93 c 2
 129 684 l 1
 177 684 l 1
 177 90 l 2
EndSplineSet
Substitution2: "'c2sc' Capitals to Small Capitals lookup 23 subtable" jcircumflex.sc
Substitution2: "'aalt' Access All Alternates lookup 0 subtable" jcircumflex.sc
Position2: "'cpsp' Capital Spacing lookup 0 subtable" dx=5 dy=0 dh=10 dv=0
EndChar
StartChar: jcircumflex
Encoding: 309 309 501
Width: 266
GlyphClass: 2
Flags: MW
HStem: -200 21G<25 25> 502 20G<110 156 156 156>
VStem: 110 46<13 14 14 522>
AnchorPoint: "Anchor-14" 0 0 basechar 0
AnchorPoint: "Anchor-13" 0 0 basechar 0
AnchorPoint: "Anchor-12" 135 775 basechar 0
AnchorPoint: "Anchor-11" 0 0 basechar 0
AnchorPoint: "Anchor-10" 133 -195 basechar 0
LayerCount: 2
Back
Fore
SplineSet
12 647 m 1
 -9 672 l 1
 118 775 l 1
 145 775 l 1
 273 672 l 1
 252 647 l 1
 132 731 l 1
 12 647 l 1
156 522 m 1
 156 14 l 2
 156 -122 114 -158 25 -200 c 1
 12 -167 l 1
 81 -132 110 -103 110 13 c 2
 110 522 l 1
 156 522 l 1
EndSplineSet
Substitution2: "'smcp' Lowercase to Small Capitals lookup 27 subtable" jcircumflex.sc
Substitution2: "'aalt' Access All Alternates lookup 0 subtable" jcircumflex.sc
EndChar

StartChar: Kcommaaccent
Encoding: 310 310 57
Width: 533
GlyphClass: 2
Flags: MW
HStem: 0 21G<115 162 115 115 474 474 474 533> 664 20G<115 162 162 162 461 516 516 516>
VStem: 115 47<0 684> 263 78<-133 -114.5 -133 -114.5>
AnchorPoint: "Anchor-11" 304 0 basechar 0
AnchorPoint: "Anchor-10" 0 0 basechar 0
AnchorPoint: "Anchor-9" 300 684 basechar 0
AnchorPoint: "Anchor-8" 0 0 basechar 0
LayerCount: 2
Fore
SplineSet
162 0 m 1
 115 0 l 1
 115 684 l 1
 162 684 l 1
 162 0 l 1
224 369 m 1
 533 0 l 1
 474 0 l 1
 166 367 l 1
 461 684 l 1
 516 684 l 1
 224 369 l 1
302 -87 m 0
 327 -87 341 -104 341 -125 c 0
 341 -141 336 -153 321 -187 c 2
 281 -273 l 1
 252 -273 l 1
 285 -159 l 1
 269 -152 263 -142 263 -125 c 0
 263 -104 279 -87 302 -87 c 0
EndSplineSet
Substitution2: "'c2sc' Capitals to Small Capitals lookup 23 subtable" kcommaaccent.sc
Substitution2: "'aalt' Access All Alternates lookup 0 subtable" kcommaaccent.sc
Position2: "'cpsp' Capital Spacing lookup 0 subtable" dx=5 dy=0 dh=10 dv=0
EndChar
StartChar: kcommaaccent
Encoding: 311 311 508
Width: 480
GlyphClass: 2
Flags: MW
HStem: 0 21G<110 156 110 110 413 413 413 469> 502 20G<391 445 445 445> 715 20G<110 110> 721 20G<156 156>
VStem: 110 46<0 735 735 735> 225 78<-133 -114.5 -133 -114.5>
AnchorPoint: "Anchor-14" 0 0 basechar 0
AnchorPoint: "Anchor-13" 0 0 basechar 0
AnchorPoint: "Anchor-12" 265 735 basechar 0
AnchorPoint: "Anchor-11" 0 0 basechar 0
AnchorPoint: "Anchor-10" 265 0 basechar 0
LayerCount: 2
Back
Fore
SplineSet
156 741 m 1xd8
 156 0 l 1
 110 0 l 1
 110 735 l 1xec
 156 741 l 1xd8
445 522 m 1
 217 287 l 1
 469 0 l 1
 413 0 l 1
 162 285 l 1
 391 522 l 1
 445 522 l 1
264 -87 m 0
 289 -87 303 -104 303 -125 c 0
 303 -141 298 -153 283 -187 c 2
 243 -273 l 1
 214 -273 l 1
 247 -159 l 1
 233 -152 225 -142 225 -125 c 0
 225 -104 242 -87 264 -87 c 0
EndSplineSet
Substitution2: "'smcp' Lowercase to Small Capitals lookup 27 subtable" kcommaaccent.sc
Substitution2: "'aalt' Access All Alternates lookup 0 subtable" kcommaaccent.sc
EndChar
StartChar: kgreenlandic
Encoding: 312 312 509
Width: 479
GlyphClass: 2
Flags: MW
HStem: 0 21G<110 156 110 110 412 412 412 468> 502 20G<110 156 156 156 390 445 445 445>
VStem: 110 46<0 522 0 522>
LayerCount: 2
Back
Fore
SplineSet
156 522 m 1
 156 0 l 1
 110 0 l 1
 110 522 l 1
 156 522 l 1
445 522 m 1
 216 277 l 1
 468 0 l 1
 412 0 l 1
 161 275 l 1
 390 522 l 1
 445 522 l 1
EndSplineSet
Substitution2: "'smcp' Lowercase to Small Capitals lookup 27 subtable" kgreenlandic.sc
Substitution2: "'aalt' Access All Alternates lookup 0 subtable" kgreenlandic.sc
EndChar

StartChar: Lacute
Encoding: 313 313 59
Width: 466
GlyphClass: 2
Flags: MW
HStem: 0 44<162 443> 664 20G<115 162 162 162>
VStem: 115 47<44 44 44 684>
AnchorPoint: "Anchor-11" 282 0 basechar 0
AnchorPoint: "Anchor-10" 0 0 basechar 0
AnchorPoint: "Anchor-9" 139 684 basechar 0
AnchorPoint: "Anchor-8" 0 0 basechar 0
LayerCount: 2
Fore
SplineSet
246 836 m 1
 54 759 l 1
 41 788 l 1
 224 880 l 1
 246 836 l 1
162 44 m 1
 450 44 l 1
 443 0 l 1
 115 0 l 1
 115 684 l 1
 162 684 l 1
 162 44 l 1
EndSplineSet
Substitution2: "'c2sc' Capitals to Small Capitals lookup 23 subtable" lacute.sc
Substitution2: "'aalt' Access All Alternates lookup 0 subtable" lacute.sc
Position2: "'cpsp' Capital Spacing lookup 0 subtable" dx=5 dy=0 dh=10 dv=0
EndChar

StartChar: lacute
Encoding: 314 314 195
Width: 281
GlyphClass: 2
Flags: MW
HStem: -11 41<180.5 200> 715 20G<105 105> 721 20G<151 151>
VStem: 105 46<85 735 735 735>
AnchorPoint: "Anchor-11" 134 0 basechar 0
AnchorPoint: "Anchor-10" 0 0 basechar 0
AnchorPoint: "Anchor-9" 0 0 basechar 0
AnchorPoint: "Anchor-8" 0 0 basechar 0
LayerCount: 2
Fore
SplineSet
234 886 m 1xb0
 42 809 l 1
 29 838 l 1
 212 930 l 1
 234 886 l 1xb0
151 84 m 2
 151 48 164 30 197 30 c 0
 209 30 222 33 233 37 c 1
 246 2 l 1
 230 -5 210 -11 190 -11 c 0
 137 -11 105 19 105 85 c 2
 105 735 l 1xd0
 151 741 l 1
 151 84 l 2
EndSplineSet
Substitution2: "'smcp' Lowercase to Small Capitals lookup 24 subtable" lacute.sc
Substitution2: "'aalt' Access All Alternates lookup 0 subtable" lacute.sc
EndChar
StartChar: Lcommaaccent
Encoding: 315 315 150
Width: 470
GlyphClass: 2
Flags: MW
HStem: 0 44<162 443> 664 20G<115 162 162 162>
VStem: 115 47<44 684 44 684 44 684> 241 78<-133 -114.5 -133 -114.5>
AnchorPoint: "Anchor-14" 362 363 basechar 0
AnchorPoint: "Anchor-13" 190 684 basechar 0
AnchorPoint: "Anchor-12" 139 684 basechar 0
AnchorPoint: "Anchor-11" 0 0 basechar 0
AnchorPoint: "Anchor-10" 282 0 basechar 0
LayerCount: 2
Back
Fore
SplineSet
162 684 m 1
 162 44 l 1
 450 44 l 1
 443 0 l 1
 115 0 l 1
 115 684 l 1
 162 684 l 1
280 -87 m 0
 305 -87 319 -104 319 -125 c 0
 319 -141 314 -153 299 -187 c 2
 259 -273 l 1
 230 -273 l 1
 263 -159 l 1
 249 -152 241 -142 241 -125 c 0
 241 -104 258 -87 280 -87 c 0
EndSplineSet
Substitution2: "'c2sc' Capitals to Small Capitals lookup 26 subtable" lcommaaccent.sc
Substitution2: "'aalt' Access All Alternates lookup 0 subtable" lcommaaccent.sc
Position2: "'cpsp' Capital Spacing lookup 0 subtable" dx=5 dy=0 dh=10 dv=0
EndChar

StartChar: lcommaaccent
Encoding: 316 316 197
Width: 281
GlyphClass: 2
Flags: MW
HStem: -11 41<180.5 200> 715 20G<105 105> 721 20G<151 151>
VStem: 94 78<-133 -114.5 -133 -114.5> 105 46<85 735 735 735>
AnchorPoint: "Anchor-11" 134 0 basechar 0
AnchorPoint: "Anchor-10" 0 0 basechar 0
AnchorPoint: "Anchor-9" 0 0 basechar 0
AnchorPoint: "Anchor-8" 0 0 basechar 0
LayerCount: 2
Fore
SplineSet
151 84 m 2xa8
 151 48 164 30 197 30 c 0
 209 30 222 33 233 37 c 1
 246 2 l 1
 230 -5 210 -11 190 -11 c 0
 137 -11 105 19 105 85 c 2
 105 735 l 1xc8
 151 741 l 1
 151 84 l 2xa8
133 -87 m 0xb0
 158 -87 172 -104 172 -125 c 0
 172 -141 167 -153 152 -187 c 2
 112 -273 l 1
 83 -273 l 1
 116 -159 l 1
 100 -152 94 -142 94 -125 c 0
 94 -104 110 -87 133 -87 c 0xb0
EndSplineSet
Substitution2: "'smcp' Lowercase to Small Capitals lookup 24 subtable" lcommaaccent.sc
Substitution2: "'aalt' Access All Alternates lookup 0 subtable" lcommaaccent.sc
EndChar

StartChar: Lcaron
Encoding: 317 317 60
Width: 466
GlyphClass: 2
Flags: MW
HStem: 0 44<162 443> 511 20G<237 237> 663 20G<301 301> 664 20G<115 162 162 162> 669 20G<255 255>
VStem: 115 47<44 44 44 684>
AnchorPoint: "Anchor-11" 282 0 basechar 0
AnchorPoint: "Anchor-10" 0 0 basechar 0
AnchorPoint: "Anchor-9" 139 684 basechar 0
AnchorPoint: "Anchor-8" 0 0 basechar 0
LayerCount: 2
Fore
SplineSet
301 683 m 1xe4
 267 527 l 1
 237 531 l 1
 255 689 l 1xcc
 301 683 l 1xe4
162 44 m 1
 450 44 l 1
 443 0 l 1
 115 0 l 1
 115 684 l 1
 162 684 l 1xd4
 162 44 l 1
EndSplineSet
Substitution2: "'c2sc' Capitals to Small Capitals lookup 23 subtable" lcaron.sc
Substitution2: "'aalt' Access All Alternates lookup 0 subtable" lcaron.sc
Position2: "'cpsp' Capital Spacing lookup 0 subtable" dx=5 dy=0 dh=10 dv=0
EndChar

StartChar: lcaron
Encoding: 318 318 196
Width: 281
GlyphClass: 2
Flags: MW
HStem: -11 41<180.5 200> 714 20G<282 282> 715 20G<105 105> 720 20G<236 236> 721 20G<151 151>
VStem: 105 46<85 735 735 735>
AnchorPoint: "Anchor-11" 134 0 basechar 0
AnchorPoint: "Anchor-10" 0 0 basechar 0
AnchorPoint: "Anchor-9" 0 0 basechar 0
AnchorPoint: "Anchor-8" 0 0 basechar 0
LayerCount: 2
Fore
SplineSet
151 84 m 2x8c
 151 48 164 30 197 30 c 0
 209 30 222 33 233 37 c 1
 246 2 l 1
 230 -5 210 -11 190 -11 c 0
 137 -11 105 19 105 85 c 2
 105 735 l 1xa4
 151 741 l 1
 151 84 l 2x8c
282 734 m 1xc4
 248 578 l 1
 218 582 l 1
 236 740 l 1x94
 282 734 l 1xc4
EndSplineSet
Substitution2: "'smcp' Lowercase to Small Capitals lookup 24 subtable" lcaron.sc
Substitution2: "'aalt' Access All Alternates lookup 0 subtable" lcaron.sc
EndChar

StartChar: Ldot
Encoding: 319 319 62
Width: 466
GlyphClass: 2
Flags: MW
HStem: 0 44<162 443> 328 70<351 373> 664 20G<115 162 162 162>
VStem: 115 47<44 44 44 684> 326 72<353.5 372.5>
AnchorPoint: "Anchor-11" 282 0 basechar 0
AnchorPoint: "Anchor-10" 0 0 basechar 0
AnchorPoint: "Anchor-9" 139 684 basechar 0
AnchorPoint: "Anchor-8" 0 0 basechar 0
LayerCount: 2
Fore
SplineSet
162 44 m 1
 450 44 l 1
 443 0 l 1
 115 0 l 1
 115 684 l 1
 162 684 l 1
 162 44 l 1
362 398 m 0
 384 398 398 382 398 363 c 0
 398 344 384 328 362 328 c 0
 340 328 326 344 326 363 c 0
 326 382 340 398 362 398 c 0
EndSplineSet
Ligature2: "Ligature Substitution lookup 29 subtable" L periodcentered
Substitution2: "'c2sc' Capitals to Small Capitals lookup 23 subtable" ldot.sc
Substitution2: "'aalt' Access All Alternates lookup 0 subtable" ldot.sc
Position2: "'cpsp' Capital Spacing lookup 0 subtable" dx=5 dy=0 dh=10 dv=0
EndChar

StartChar: ldot
Encoding: 320 320 198
Width: 292
GlyphClass: 2
Flags: MW
HStem: -11 41<180.5 200> 341 70<259 281> 715 20G<105 105> 721 20G<151 151>
VStem: 105 46<85 735 735 735> 234 72<366.5 385.5>
AnchorPoint: "Anchor-11" 134 0 basechar 0
AnchorPoint: "Anchor-10" 0 0 basechar 0
AnchorPoint: "Anchor-9" 0 0 basechar 0
AnchorPoint: "Anchor-8" 0 0 basechar 0
LayerCount: 2
Fore
SplineSet
151 84 m 2xd8
 151 48 164 30 197 30 c 0
 209 30 222 33 233 37 c 1
 246 2 l 1
 230 -5 210 -11 190 -11 c 0
 137 -11 105 19 105 85 c 2
 105 735 l 1xe8
 151 741 l 1
 151 84 l 2xd8
270 411 m 0xdc
 292 411 306 395 306 376 c 0
 306 357 292 341 270 341 c 0
 248 341 234 357 234 376 c 0
 234 395 248 411 270 411 c 0xdc
EndSplineSet
Ligature2: "Ligature Substitution lookup 29 subtable" l periodcentered
Substitution2: "'smcp' Lowercase to Small Capitals lookup 24 subtable" ldot.sc
Substitution2: "'aalt' Access All Alternates lookup 0 subtable" ldot.sc
EndChar
StartChar: Lslash
Encoding: 321 321 154
Width: 478
GlyphClass: 2
Flags: MW
HStem: 0 44<171 451> 664 20G<123 171 171 171>
VStem: 123 48<44 44 44 290 290 290 363 684>
AnchorPoint: "Anchor-14" 370 363 basechar 0
AnchorPoint: "Anchor-13" 198 684 basechar 0
AnchorPoint: "Anchor-12" 148 684 basechar 0
AnchorPoint: "Anchor-11" 0 0 basechar 0
AnchorPoint: "Anchor-10" 290 0 basechar 0
LayerCount: 2
Back
Fore
SplineSet
171 44 m 1
 458 44 l 1
 451 0 l 1
 123 0 l 1
 123 290 l 1
 56 248 l 1
 37 280 l 1
 123 333 l 1
 123 684 l 1
 171 684 l 1
 171 363 l 1
 359 481 l 1
 379 449 l 1
 171 320 l 1
 171 44 l 1
EndSplineSet
Substitution2: "'c2sc' Capitals to Small Capitals lookup 26 subtable" lslash.sc
Substitution2: "'aalt' Access All Alternates lookup 0 subtable" lslash.sc
Position2: "'cpsp' Capital Spacing lookup 0 subtable" dx=5 dy=0 dh=10 dv=0
EndChar
StartChar: lslash
Encoding: 322 322 528
Width: 295
GlyphClass: 2
Flags: MW
HStem: -11 41<187.5 208> 715 20G<112 112> 721 20G<158 158>
VStem: 112 46<82 84 84 330 330 330 401 735 735 735>
AnchorPoint: "Anchor-14" 278 376 basechar 0
AnchorPoint: "Anchor-13" 183 735 basechar 0
AnchorPoint: "Anchor-12" 135 735 basechar 0
AnchorPoint: "Anchor-11" 0 0 basechar 0
AnchorPoint: "Anchor-10" 185 0 basechar 0
LayerCount: 2
Back
Fore
SplineSet
202 30 m 0xb0
 216 30 229 33 240 37 c 1
 253 2 l 1
 238 -5 218 -11 198 -11 c 0
 147 -11 112 19 112 82 c 2
 112 330 l 1
 52 293 l 1
 33 324 l 1
 112 373 l 1
 112 735 l 1xd0
 158 741 l 1
 158 401 l 1
 258 462 l 1
 276 431 l 1
 158 358 l 1
 158 84 l 2
 158 48 173 30 202 30 c 0xb0
EndSplineSet
Substitution2: "'smcp' Lowercase to Small Capitals lookup 27 subtable" lslash.sc
Substitution2: "'aalt' Access All Alternates lookup 0 subtable" lslash.sc
EndChar
StartChar: Nacute
Encoding: 323 323 161
Width: 669
GlyphClass: 2
Flags: MW
HStem: 0 53<515 515 515 554 493 515> 631 53<154 154>
VStem: 115 45<0 407 0 684> 509 45<253 684 0 684>
AnchorPoint: "Anchor-14" 0 0 basechar 0
AnchorPoint: "Anchor-13" 0 0 basechar 0
AnchorPoint: "Anchor-12" 345 880 basechar 0
AnchorPoint: "Anchor-11" 0 0 basechar 0
AnchorPoint: "Anchor-10" 335 0 basechar 0
LayerCount: 2
Back
Fore
SplineSet
423 880 m 1
 445 836 l 1
 253 759 l 1
 240 788 l 1
 423 880 l 1
554 684 m 1
 554 0 l 1
 493 0 l 1
 154 631 l 1
 157 587 160 528 160 407 c 2
 160 0 l 1
 115 0 l 1
 115 684 l 1
 176 684 l 1
 515 53 l 1
 513 86 509 163 509 253 c 2
 509 684 l 1
 554 684 l 1
EndSplineSet
Substitution2: "'c2sc' Capitals to Small Capitals lookup 26 subtable" nacute.sc
Substitution2: "'locl' Localized Forms in Latin lookup 7 subtable" Nacute.loclPLK
AlternateSubs2: "'aalt' Access All Alternates lookup 1 subtable" Nacute.loclPLK nacute.sc
Position2: "'cpsp' Capital Spacing lookup 0 subtable" dx=5 dy=0 dh=10 dv=0
EndChar

StartChar: nacute
Encoding: 324 324 202
Width: 583
GlyphClass: 2
Flags: MW
HStem: 0 21G<110 156 110 110 432 478 432 432> 494 38<296 362> 502 20G<110 150 150 150>
VStem: 110 46<0 381 0 522> 432 46<0 366 366 372 0 410.5>
AnchorPoint: "Anchor-11" 290 0 basechar 0
AnchorPoint: "Anchor-10" 100 522 basechar 0
AnchorPoint: "Anchor-9" 297 522 basechar 0
AnchorPoint: "Anchor-8" 0 0 basechar 0
LayerCount: 2
Fore
SplineSet
199 648 m 1xd8
 184 676 l 1
 368 776 l 1
 389 732 l 1
 199 648 l 1xd8
335 532 m 0
 430 532 478 474 478 372 c 2
 478 0 l 1
 432 0 l 1
 432 366 l 2
 432 455 396 494 328 494 c 0xd8
 252 494 201 447 156 381 c 1
 156 0 l 1
 110 0 l 1
 110 522 l 1
 150 522 l 1xb8
 154 429 l 1
 198 490 257 532 335 532 c 0
EndSplineSet
Substitution2: "'smcp' Lowercase to Small Capitals lookup 24 subtable" nacute.sc
Substitution2: "'locl' Localized Forms in Latin lookup 7 subtable" nacute.loclPLK
AlternateSubs2: "'aalt' Access All Alternates lookup 1 subtable" nacute.loclPLK nacute.sc
EndChar

StartChar: Ncommaaccent
Encoding: 325 325 68
Width: 669
GlyphClass: 2
Flags: MW
HStem: 0 53<515 515 515 554 493 515> 631 53<154 154>
VStem: 115 45<0 407 0 684> 294 78<-133 -114.5 -133 -114.5> 509 45<253 684>
AnchorPoint: "Anchor-11" 335 0 basechar 0
AnchorPoint: "Anchor-10" 0 0 basechar 0
AnchorPoint: "Anchor-9" 343 684 basechar 0
AnchorPoint: "Anchor-8" 0 0 basechar 0
LayerCount: 2
Fore
SplineSet
554 0 m 1
 493 0 l 1
 154 631 l 1
 157 587 160 528 160 407 c 2
 160 0 l 1
 115 0 l 1
 115 684 l 1
 176 684 l 1
 515 53 l 1
 513 86 509 163 509 253 c 2
 509 684 l 1
 554 684 l 1
 554 0 l 1
333 -87 m 0
 358 -87 372 -104 372 -125 c 0
 372 -141 367 -153 352 -187 c 2
 312 -273 l 1
 283 -273 l 1
 316 -159 l 1
 300 -152 294 -142 294 -125 c 0
 294 -104 310 -87 333 -87 c 0
EndSplineSet
Substitution2: "'c2sc' Capitals to Small Capitals lookup 23 subtable" ncommaaccent.sc
Substitution2: "'aalt' Access All Alternates lookup 0 subtable" ncommaaccent.sc
Position2: "'cpsp' Capital Spacing lookup 0 subtable" dx=5 dy=0 dh=10 dv=0
EndChar
StartChar: ncommaaccent
Encoding: 326 326 542
Width: 583
GlyphClass: 2
Flags: MW
HStem: 0 21G<110 156 110 110 432 478 432 432> 494 38<296 362> 502 20G<110 150 150 150>
VStem: 110 46<0 381 0 522> 251 78<-133 -114.5 -133 -114.5> 432 46<0 366 366 372 0 410.5>
AnchorPoint: "Anchor-14" 0 0 basechar 0
AnchorPoint: "Anchor-13" 0 0 basechar 0
AnchorPoint: "Anchor-12" 297 522 basechar 0
AnchorPoint: "Anchor-11" 0 0 basechar 0
AnchorPoint: "Anchor-10" 290 0 basechar 0
LayerCount: 2
Back
Fore
SplineSet
335 532 m 0xd4
 430 532 478 474 478 372 c 2
 478 0 l 1
 432 0 l 1
 432 366 l 2
 432 455 396 494 328 494 c 0xd4
 252 494 201 447 156 381 c 1
 156 0 l 1
 110 0 l 1
 110 522 l 1
 150 522 l 1xb4
 154 428 l 1
 198 490 257 532 335 532 c 0xd4
290 -87 m 0xdc
 315 -87 329 -104 329 -125 c 0
 329 -141 324 -153 309 -187 c 2
 269 -273 l 1
 240 -273 l 1
 273 -159 l 1
 259 -152 251 -142 251 -125 c 0
 251 -104 268 -87 290 -87 c 0xdc
EndSplineSet
Substitution2: "'smcp' Lowercase to Small Capitals lookup 27 subtable" ncommaaccent.sc
Substitution2: "'aalt' Access All Alternates lookup 0 subtable" ncommaaccent.sc
EndChar
StartChar: Ncaron
Encoding: 327 327 163
Width: 669
GlyphClass: 2
Flags: MW
HStem: 0 53<515 515 515 554 493 515> 631 53<154 154>
VStem: 115 45<0 407 0 684> 509 45<253 684 0 684>
AnchorPoint: "Anchor-14" 0 0 basechar 0
AnchorPoint: "Anchor-13" 0 0 basechar 0
AnchorPoint: "Anchor-12" 345 880 basechar 0
AnchorPoint: "Anchor-11" 0 0 basechar 0
AnchorPoint: "Anchor-10" 335 0 basechar 0
LayerCount: 2
Back
Fore
SplineSet
462 880 m 1
 483 855 l 1
 356 757 l 1
 329 757 l 1
 201 855 l 1
 222 880 l 1
 343 801 l 1
 462 880 l 1
554 684 m 1
 554 0 l 1
 493 0 l 1
 154 631 l 1
 157 587 160 528 160 407 c 2
 160 0 l 1
 115 0 l 1
 115 684 l 1
 176 684 l 1
 515 53 l 1
 513 86 509 163 509 253 c 2
 509 684 l 1
 554 684 l 1
EndSplineSet
Substitution2: "'c2sc' Capitals to Small Capitals lookup 26 subtable" ncaron.sc
Substitution2: "'aalt' Access All Alternates lookup 0 subtable" ncaron.sc
Position2: "'cpsp' Capital Spacing lookup 0 subtable" dx=5 dy=0 dh=10 dv=0
EndChar
StartChar: ncaron
Encoding: 328 328 540
Width: 583
GlyphClass: 2
Flags: MW
HStem: 0 21G<110 156 110 110 432 478 432 432> 494 38<296 362> 502 20G<110 150 150 150> 719 20G<156 156 438 438>
VStem: 110 46<0 381 0 522> 432 46<0 366 366 372 0 410.5>
AnchorPoint: "Anchor-14" 0 0 basechar 0
AnchorPoint: "Anchor-13" 0 0 basechar 0
AnchorPoint: "Anchor-12" 300 763 basechar 0
AnchorPoint: "Anchor-11" 0 0 basechar 0
AnchorPoint: "Anchor-10" 290 0 basechar 0
LayerCount: 2
Back
Fore
SplineSet
311 635 m 1xdc
 284 635 l 1
 156 739 l 1
 177 763 l 1
 298 679 l 1
 417 763 l 1
 438 739 l 1
 311 635 l 1xdc
335 532 m 0
 430 532 478 474 478 372 c 2
 478 0 l 1
 432 0 l 1
 432 366 l 2
 432 455 396 494 328 494 c 0xdc
 252 494 201 447 156 381 c 1
 156 0 l 1
 110 0 l 1
 110 522 l 1
 150 522 l 1xbc
 154 428 l 1
 198 490 257 532 335 532 c 0
EndSplineSet
Substitution2: "'smcp' Lowercase to Small Capitals lookup 27 subtable" ncaron.sc
Substitution2: "'aalt' Access All Alternates lookup 0 subtable" ncaron.sc
EndChar

StartChar: napostrophe
Encoding: 329 329 203
Width: 583
GlyphClass: 2
Flags: MW
HStem: 0 21G<110 156 110 110 432 478 432 432> 494 38<296 362> 502 20G<110 150 150 150> 721 20G<99.5 123.5>
VStem: 72 78<695.5 714.5> 110 46<0 381 0 522> 432 46<0 366 366 372 0 410.5>
AnchorPoint: "Anchor-11" 290 0 basechar 0
AnchorPoint: "Anchor-10" 100 522 basechar 0
AnchorPoint: "Anchor-9" 297 522 basechar 0
AnchorPoint: "Anchor-8" 0 0 basechar 0
LayerCount: 2
Fore
SplineSet
150 704 m 0xda
 150 687 144 677 130 641 c 2
 95 551 l 1
 66 551 l 1
 94 669 l 1
 78 676 72 687 72 704 c 0
 72 725 88 741 111 741 c 0
 136 741 150 725 150 704 c 0xda
335 532 m 0
 430 532 478 474 478 372 c 2
 478 0 l 1
 432 0 l 1
 432 366 l 2
 432 455 396 494 328 494 c 0xd6
 252 494 201 447 156 381 c 1
 156 0 l 1
 110 0 l 1
 110 522 l 1
 150 522 l 1xb6
 154 429 l 1xd6
 198 490 257 532 335 532 c 0
EndSplineSet
Substitution2: "'smcp' Lowercase to Small Capitals lookup 24 subtable" napostrophe.sc
Substitution2: "'aalt' Access All Alternates lookup 0 subtable" napostrophe.sc
EndChar
StartChar: Eng
Encoding: 330 330 169
Width: 669
GlyphClass: 2
Flags: MW
HStem: -203 41<419.5 456.5 419.5 472> 0 21G<115 160 115 115 493 507 493 493> 631 53<154 154>
VStem: 115 45<0 407 0 684> 509 45<253 684>
AnchorPoint: "Anchor-14" 0 0 basechar 0
AnchorPoint: "Anchor-13" 0 0 basechar 0
AnchorPoint: "Anchor-12" 343 684 basechar 0
AnchorPoint: "Anchor-11" 0 0 basechar 0
AnchorPoint: "Anchor-10" 335 0 basechar 0
LayerCount: 2
Back
Fore
SplineSet
554 684 m 1
 554 -76 l 2
 554 -161 506 -203 438 -203 c 0
 394 -203 362 -186 341 -170 c 1
 361 -138 l 1
 381 -152 402 -162 437 -162 c 0
 476 -162 507 -140 507 -76 c 2
 507 0 l 1
 493 0 l 1
 154 631 l 1
 157 587 160 528 160 407 c 2
 160 0 l 1
 115 0 l 1
 115 684 l 1
 176 684 l 1
 515 53 l 1
 513 86 509 163 509 253 c 2
 509 684 l 1
 554 684 l 1
EndSplineSet
Substitution2: "'ss01' Style Set 1 lookup 33 subtable" Eng.ss01
Substitution2: "'salt' Stylistic Alternatives lookup 32 subtable" Eng.ss01
Substitution2: "'c2sc' Capitals to Small Capitals lookup 26 subtable" eng.sc
AlternateSubs2: "'aalt' Access All Alternates lookup 1 subtable" eng.sc Eng.ss01
Position2: "'cpsp' Capital Spacing lookup 0 subtable" dx=5 dy=0 dh=10 dv=0
EndChar
StartChar: eng
Encoding: 331 331 547
Width: 583
GlyphClass: 2
Flags: MW
HStem: -203 40<343.5 380.5 343.5 396> 0 21G<110 156 110 110> 494 38<296 362> 502 20G<110 150 150 150>
VStem: 110 46<0 381 0 522> 432 46<-77 -76 -76 366 366 372>
AnchorPoint: "Anchor-14" 0 0 basechar 0
AnchorPoint: "Anchor-13" 0 0 basechar 0
AnchorPoint: "Anchor-12" 297 522 basechar 0
AnchorPoint: "Anchor-11" 0 0 basechar 0
AnchorPoint: "Anchor-10" 290 -195 basechar 0
LayerCount: 2
Back
Fore
SplineSet
478 372 m 2xec
 478 -76 l 2
 478 -161 430 -203 362 -203 c 0
 318 -203 286 -186 265 -170 c 1
 285 -140 l 1
 305 -153 326 -163 361 -163 c 0
 400 -163 432 -142 432 -77 c 2
 432 366 l 2
 432 455 396 494 328 494 c 0xec
 252 494 201 447 156 381 c 1
 156 0 l 1
 110 0 l 1
 110 522 l 1
 150 522 l 1xdc
 154 428 l 1
 198 490 257 532 335 532 c 0
 430 532 478 474 478 372 c 2xec
EndSplineSet
Substitution2: "'smcp' Lowercase to Small Capitals lookup 27 subtable" eng.sc
Substitution2: "'aalt' Access All Alternates lookup 0 subtable" eng.sc
EndChar

StartChar: Omacron
Encoding: 332 332 78
Width: 691
GlyphClass: 2
Flags: MW
HStem: -11 42<278.5 415 278.5 429> 653 41<278 413.5> 803 39<220 449 220 449>
VStem: 70 50<236.5 445.5 236.5 453> 220 229<803 842 803 842> 571 50<237 446.5>
AnchorPoint: "Anchor-11" 0 0 basechar 0
AnchorPoint: "Anchor-10" 106 684 basechar 0
AnchorPoint: "Anchor-9" 335 684 basechar 0
AnchorPoint: "Anchor-8" 0 0 basechar 0
LayerCount: 2
Fore
SplineSet
220 803 m 1
 220 842 l 1
 449 842 l 1
 449 803 l 1
 220 803 l 1
345 694 m 0
 509 694 621 572 621 341 c 0
 621 117 513 -11 345 -11 c 0
 182 -11 70 113 70 340 c 0
 70 566 183 694 345 694 c 0
345 653 m 0
 211 653 120 551 120 340 c 0
 120 133 212 31 345 31 c 0
 485 31 571 133 571 341 c 0
 571 552 482 653 345 653 c 0
EndSplineSet
Substitution2: "'c2sc' Capitals to Small Capitals lookup 23 subtable" omacron.sc
Substitution2: "'aalt' Access All Alternates lookup 0 subtable" omacron.sc
Position2: "'cpsp' Capital Spacing lookup 0 subtable" dx=5 dy=0 dh=10 dv=0
EndChar
StartChar: omacron
Encoding: 333 333 582
Width: 567
GlyphClass: 2
Flags: MW
HStem: -11 40<230.5 335 230.5 350> 492 40<232.5 337> 679 39<169 398 169 398>
VStem: 67 48<185 337 185 345> 169 229<679 718 679 718> 452 48<186 338.5>
AnchorPoint: "Anchor-14" 0 0 basechar 0
AnchorPoint: "Anchor-13" 459 522 basechar 0
AnchorPoint: "Anchor-12" 286 718 basechar 0
AnchorPoint: "Anchor-11" 361 0 basechar 0
AnchorPoint: "Anchor-10" 284 0 basechar 0
LayerCount: 2
Back
Fore
SplineSet
398 679 m 1
 169 679 l 1
 169 718 l 1
 398 718 l 1
 398 679 l 1
284 532 m 0
 419 532 500 435 500 263 c 0
 500 92 417 -11 283 -11 c 0
 148 -11 67 92 67 260 c 0
 67 430 151 532 284 532 c 0
284 492 m 0
 181 492 115 414 115 260 c 0
 115 110 178 29 283 29 c 0
 387 29 452 109 452 263 c 0
 452 414 390 492 284 492 c 0
EndSplineSet
Substitution2: "'smcp' Lowercase to Small Capitals lookup 27 subtable" omacron.sc
Substitution2: "'aalt' Access All Alternates lookup 0 subtable" omacron.sc
EndChar
StartChar: Obreve
Encoding: 334 334 180
Width: 691
GlyphClass: 2
Flags: MW
HStem: -11 42<278.5 415 278.5 429> 653 41<278 413.5> 767 39<321.5 368.5 321.5 377.5>
VStem: 70 50<236.5 445.5 236.5 453> 571 50<237 446.5>
AnchorPoint: "Anchor-14" 0 0 basechar 0
AnchorPoint: "Anchor-13" 539 684 basechar 0
AnchorPoint: "Anchor-12" 347 867 basechar 0
AnchorPoint: "Anchor-11" 434 0 basechar 0
AnchorPoint: "Anchor-10" 345 0 basechar 0
LayerCount: 2
Back
Fore
SplineSet
345 767 m 0
 279 767 231 808 222 859 c 1
 254 867 l 1
 267 831 298 806 345 806 c 0
 392 806 423 831 436 867 c 1
 468 859 l 1
 459 808 410 767 345 767 c 0
345 694 m 0
 509 694 621 572 621 341 c 0
 621 117 513 -11 345 -11 c 0
 182 -11 70 113 70 340 c 0
 70 566 183 694 345 694 c 0
345 653 m 0
 211 653 120 551 120 340 c 0
 120 133 212 31 345 31 c 0
 485 31 571 133 571 341 c 0
 571 552 482 653 345 653 c 0
EndSplineSet
Substitution2: "'c2sc' Capitals to Small Capitals lookup 26 subtable" obreve.sc
Substitution2: "'aalt' Access All Alternates lookup 0 subtable" obreve.sc
Position2: "'cpsp' Capital Spacing lookup 0 subtable" dx=5 dy=0 dh=10 dv=0
EndChar
StartChar: Ohungarumlaut
Encoding: 336 336 203
Width: 691
GlyphClass: 2
Flags: MW
HStem: -11 42<278.5 415 278.5 429> 653 41<278 413.5>
VStem: 70 50<236.5 445.5 236.5 453> 571 50<237 446.5>
AnchorPoint: "Anchor-14" 0 0 basechar 0
AnchorPoint: "Anchor-13" 539 684 basechar 0
AnchorPoint: "Anchor-12" 345 684 basechar 0
AnchorPoint: "Anchor-11" 434 0 basechar 0
AnchorPoint: "Anchor-10" 345 0 basechar 0
LayerCount: 2
Back
Fore
SplineSet
451 930 m 1
 494 907 l 1
 406 771 l 1
 375 786 l 1
 451 930 l 1
330 929 m 1
 373 907 l 1
 292 775 l 1
 261 790 l 1
 330 929 l 1
345 694 m 0
 509 694 621 572 621 341 c 0
 621 117 513 -11 345 -11 c 0
 182 -11 70 113 70 340 c 0
 70 566 183 694 345 694 c 0
345 653 m 0
 211 653 120 551 120 340 c 0
 120 133 212 31 345 31 c 0
 485 31 571 133 571 341 c 0
 571 552 482 653 345 653 c 0
EndSplineSet
Substitution2: "'c2sc' Capitals to Small Capitals lookup 26 subtable" ohungarumlaut.sc
Substitution2: "'aalt' Access All Alternates lookup 0 subtable" ohungarumlaut.sc
Position2: "'cpsp' Capital Spacing lookup 0 subtable" dx=5 dy=0 dh=10 dv=0
EndChar

StartChar: OE
Encoding: 338 338 82
Width: 863
GlyphClass: 2
Flags: MW
HStem: -11 42<273.5 346> 0 31<273.5 817 273.5 403> 0 41<478 817 478 817> 336 41<601 766 601 601> 643 41<480 805 480 480> 653 31<273 811> 653 41<273 346.5 258.5 398.5>
VStem: 70 50<236.5 445.5 236.5 453> 551 50<336 336 336 450>
LayerCount: 2
Fore
SplineSet
817 0 m 1x3980
 403 0 l 1x3980
 381 -7 358 -11 334 -11 c 0
 182 -11 70 113 70 340 c 0
 70 566 183 694 334 694 c 0x9380
 359 694 382 691 404 684 c 1
 811 684 l 1
 805 643 l 1
 480 643 l 1
 552 593 595 502 600 377 c 1
 766 377 l 1
 766 336 l 1
 601 336 l 1
 599 193 554 93 478 41 c 1
 817 41 l 1
 817 0 l 1x3980
120 340 m 0x5580
 120 133 212 31 335 31 c 0
 465 31 551 133 551 348 c 0
 551 552 462 653 335 653 c 0
 211 653 120 551 120 340 c 0x5580
EndSplineSet
Substitution2: "'c2sc' Capitals to Small Capitals lookup 23 subtable" oe.sc
Substitution2: "'aalt' Access All Alternates lookup 0 subtable" oe.sc
Position2: "'cpsp' Capital Spacing lookup 0 subtable" dx=5 dy=0 dh=10 dv=0
EndChar

StartChar: oe
Encoding: 339 339 219
Width: 920
GlyphClass: 2
Flags: MW
HStem: -11 40<230.5 329.5> 241 37<500 811 500 855 500 811> 492 40<232.5 331.5 217.5 337>
VStem: 67 48<185 337 185 345> 452 48<241 241 241 278 241 338.5> 811 46<278 297 297 355.5>
AnchorPoint: "Anchor-11" 0 0 basechar 0
AnchorPoint: "Anchor-10" 0 0 basechar 0
AnchorPoint: "Anchor-9" 475 522 basechar 0
AnchorPoint: "Anchor-8" 0 0 basechar 0
LayerCount: 2
Fore
SplineSet
857 282 m 0
 857 266 856 251 855 241 c 1
 500 241 l 1
 507 93 577 30 671 30 c 0
 730 30 768 48 813 83 c 1
 836 53 l 1
 789 13 738 -11 669 -11 c 0
 575 -11 508 42 475 130 c 1
 442 43 376 -11 283 -11 c 0
 148 -11 67 92 67 260 c 0
 67 430 151 532 284 532 c 0
 379 532 444 480 477 393 c 1
 509 478 571 532 657 532 c 0
 790 532 857 433 857 282 c 0
811 278 m 1
 811 297 l 2
 811 414 763 493 659 493 c 0
 575 493 506 429 500 278 c 1
 811 278 l 1
283 29 m 0
 387 29 452 109 452 263 c 0
 452 414 390 492 284 492 c 0
 181 492 115 414 115 260 c 0
 115 110 178 29 283 29 c 0
EndSplineSet
Substitution2: "'smcp' Lowercase to Small Capitals lookup 24 subtable" oe.sc
Substitution2: "'aalt' Access All Alternates lookup 0 subtable" oe.sc
EndChar

StartChar: Racute
Encoding: 340 340 87
Width: 584
GlyphClass: 2
Flags: MW
HStem: 0 21G<115 162 115 115 490 490 490 548> 313 40<162 283 283 310 162 283> 643 41<162 273 162 162>
VStem: 115 47<0 313 0 353 353 643> 463 50<449.5 547.5>
AnchorPoint: "Anchor-11" 306 0 basechar 0
AnchorPoint: "Anchor-10" 0 0 basechar 0
AnchorPoint: "Anchor-9" 292 684 basechar 0
AnchorPoint: "Anchor-8" 0 0 basechar 0
LayerCount: 2
Fore
SplineSet
207 759 m 1
 194 788 l 1
 377 880 l 1
 399 836 l 1
 207 759 l 1
310 313 m 1
 162 313 l 1
 162 0 l 1
 115 0 l 1
 115 684 l 1
 276 684 l 2
 438 684 513 619 513 501 c 0
 513 397 455 345 359 321 c 1
 548 0 l 1
 490 0 l 1
 310 313 l 1
283 353 m 2
 397 353 463 398 463 501 c 0
 463 594 411 643 273 643 c 2
 162 643 l 1
 162 353 l 1
 283 353 l 2
EndSplineSet
Substitution2: "'c2sc' Capitals to Small Capitals lookup 23 subtable" racute.sc
Substitution2: "'aalt' Access All Alternates lookup 0 subtable" racute.sc
Position2: "'cpsp' Capital Spacing lookup 0 subtable" dx=5 dy=0 dh=10 dv=0
EndChar

StartChar: Rcommaaccent
Encoding: 342 342 89
Width: 584
GlyphClass: 2
Flags: MW
HStem: 0 21G<115 162 115 115 490 548 490 490> 313 40<162 283 283 310 162 283> 643 41<162 273 162 162>
VStem: 115 47<0 313 0 353 353 643> 265 78<-133 -114.5 -133 -114.5> 463 50<449.5 547.5>
AnchorPoint: "Anchor-11" 306 0 basechar 0
AnchorPoint: "Anchor-10" 0 0 basechar 0
AnchorPoint: "Anchor-9" 292 684 basechar 0
AnchorPoint: "Anchor-8" 0 0 basechar 0
LayerCount: 2
Fore
SplineSet
548 0 m 1
 490 0 l 1
 310 313 l 1
 162 313 l 1
 162 0 l 1
 115 0 l 1
 115 684 l 1
 276 684 l 2
 438 684 513 619 513 501 c 0
 513 397 455 345 359 321 c 1
 548 0 l 1
283 353 m 2
 397 353 463 398 463 501 c 0
 463 594 411 643 273 643 c 2
 162 643 l 1
 162 353 l 1
 283 353 l 2
304 -87 m 0
 329 -87 343 -104 343 -125 c 0
 343 -141 338 -153 323 -187 c 2
 283 -273 l 1
 254 -273 l 1
 287 -159 l 1
 271 -152 265 -142 265 -125 c 0
 265 -104 281 -87 304 -87 c 0
EndSplineSet
Substitution2: "'c2sc' Capitals to Small Capitals lookup 23 subtable" rcommaaccent.sc
Substitution2: "'aalt' Access All Alternates lookup 0 subtable" rcommaaccent.sc
Position2: "'cpsp' Capital Spacing lookup 0 subtable" dx=5 dy=0 dh=10 dv=0
EndChar

StartChar: Rcaron
Encoding: 344 344 88
Width: 584
GlyphClass: 2
Flags: MW
HStem: 0 21G<115 162 115 115 490 490 490 548> 313 40<162 283 283 310 162 283> 643 41<162 273 162 162>
VStem: 115 47<0 313 0 353 353 643> 463 50<449.5 547.5>
AnchorPoint: "Anchor-11" 306 0 basechar 0
AnchorPoint: "Anchor-10" 0 0 basechar 0
AnchorPoint: "Anchor-9" 292 684 basechar 0
AnchorPoint: "Anchor-8" 0 0 basechar 0
LayerCount: 2
Fore
SplineSet
283 757 m 1
 155 855 l 1
 176 880 l 1
 297 801 l 1
 416 880 l 1
 437 855 l 1
 310 757 l 1
 283 757 l 1
310 313 m 1
 162 313 l 1
 162 0 l 1
 115 0 l 1
 115 684 l 1
 276 684 l 2
 438 684 513 619 513 501 c 0
 513 397 455 345 359 321 c 1
 548 0 l 1
 490 0 l 1
 310 313 l 1
283 353 m 2
 397 353 463 398 463 501 c 0
 463 594 411 643 273 643 c 2
 162 643 l 1
 162 353 l 1
 283 353 l 2
EndSplineSet
Substitution2: "'c2sc' Capitals to Small Capitals lookup 23 subtable" rcaron.sc
Substitution2: "'aalt' Access All Alternates lookup 0 subtable" rcaron.sc
Position2: "'cpsp' Capital Spacing lookup 0 subtable" dx=5 dy=0 dh=10 dv=0
EndChar

StartChar: rcaron
Encoding: 345 345 225
Width: 369
GlyphClass: 2
Flags: MW
HStem: 0 21G<110 156 110 110> 489 43<265.5 309> 502 20G<110 150 150 150> 506 20G<355 355> 721 20G<94 94 376 376>
VStem: 110 46<0 326 0 522>
AnchorPoint: "Anchor-11" 132 0 basechar 0
AnchorPoint: "Anchor-10" 0 0 basechar 0
AnchorPoint: "Anchor-9" 231 522 basechar 0
AnchorPoint: "Anchor-8" 0 0 basechar 0
LayerCount: 2
Fore
SplineSet
222 637 m 1xcc
 94 741 l 1
 115 765 l 1
 236 681 l 1
 355 765 l 1
 376 741 l 1
 249 637 l 1
 222 637 l 1xcc
153 401 m 1
 181 489 228 532 303 532 c 0xcc
 325 532 343 530 355 526 c 1x9c
 346 483 l 1
 333 487 318 489 300 489 c 0xcc
 225 489 185 435 156 326 c 1
 156 0 l 1
 110 0 l 1
 110 522 l 1
 150 522 l 1xac
 153 401 l 1
EndSplineSet
Substitution2: "'smcp' Lowercase to Small Capitals lookup 24 subtable" rcaron.sc
Substitution2: "'aalt' Access All Alternates lookup 0 subtable" rcaron.sc
EndChar

StartChar: sacute
Encoding: 347 347 228
Width: 463
GlyphClass: 2
Flags: MW
HStem: -11 40<192.5 265 192.5 278.5> 493 39<198 261.5>
VStem: 64 47<371 427.5 371 438> 361 48<102 170>
AnchorPoint: "Anchor-11" 231 0 basechar 0
AnchorPoint: "Anchor-10" 0 0 basechar 0
AnchorPoint: "Anchor-9" 238 522 basechar 0
AnchorPoint: "Anchor-8" 0 0 basechar 0
LayerCount: 2
Fore
SplineSet
330 732 m 1
 140 648 l 1
 125 676 l 1
 309 776 l 1
 330 732 l 1
233 532 m 0
 297 532 346 513 395 475 c 1
 372 443 l 1
 327 477 289 493 234 493 c 0
 162 493 111 457 111 398 c 0
 111 344 147 320 243 294 c 0
 359 263 409 227 409 138 c 0
 409 46 330 -11 227 -11 c 0
 143 -11 89 18 44 56 c 1
 70 86 l 1
 115 50 159 29 226 29 c 0
 304 29 361 68 361 136 c 0
 361 204 331 228 220 258 c 0
 109 287 64 326 64 399 c 0
 64 477 137 532 233 532 c 0
EndSplineSet
Substitution2: "'smcp' Lowercase to Small Capitals lookup 24 subtable" sacute.sc
Substitution2: "'locl' Localized Forms in Latin lookup 7 subtable" sacute.loclPLK
AlternateSubs2: "'aalt' Access All Alternates lookup 1 subtable" sacute.loclPLK sacute.sc
EndChar
StartChar: Scircumflex
Encoding: 348 348 241
Width: 537
GlyphClass: 2
Flags: MW
HStem: -11 42<216 307.5 216 324> 653 41<222.5 299.5>
VStem: 71 48<493.5 567.5 493.5 577> 430 48<136 228>
AnchorPoint: "Anchor-14" 0 0 basechar 0
AnchorPoint: "Anchor-13" 361 744 basechar 0
AnchorPoint: "Anchor-12" 269 887 basechar 0
AnchorPoint: "Anchor-11" 0 0 basechar 0
AnchorPoint: "Anchor-10" 263 0 basechar 0
LayerCount: 2
Back
Fore
SplineSet
389 763 m 1
 270 843 l 1
 149 763 l 1
 128 788 l 1
 256 887 l 1
 283 887 l 1
 410 788 l 1
 389 763 l 1
266 694 m 0
 353 694 405 666 457 620 c 1
 429 589 l 1
 378 634 332 653 267 653 c 0
 178 653 119 604 119 531 c 0
 119 456 160 423 282 386 c 0
 410 347 478 302 478 185 c 0
 478 69 390 -11 258 -11 c 0
 166 -11 99 22 44 74 c 1
 72 105 l 1
 122 60 175 31 257 31 c 0
 358 31 430 88 430 184 c 0
 430 272 387 308 263 346 c 0
 125 388 71 435 71 530 c 0
 71 624 149 694 266 694 c 0
EndSplineSet
Substitution2: "'c2sc' Capitals to Small Capitals lookup 26 subtable" scircumflex.sc
Substitution2: "'aalt' Access All Alternates lookup 0 subtable" scircumflex.sc
Position2: "'cpsp' Capital Spacing lookup 0 subtable" dx=5 dy=0 dh=10 dv=0
EndChar
StartChar: Scedilla
Encoding: 350 350 240
Width: 537
GlyphClass: 2
Flags: MW
HStem: -222 35<253 281.5 253 293.5> -202 21G<191 191> -95 28<234 274> -10 41<241 241 274 274> 653 41<222.5 299.5>
VStem: 71 48<493.5 567.5 493.5 577> 237.5 36.5 323 43<-156 -125> 430 48<136 228>
AnchorPoint: "Anchor-14" 0 0 basechar 0
AnchorPoint: "Anchor-13" 0 0 basechar 0
AnchorPoint: "Anchor-12" 270 684 basechar 0
AnchorPoint: "Anchor-11" 0 0 basechar 0
AnchorPoint: "Anchor-10" 281 -222 basechar 0
LayerCount: 2
Back
Fore
SplineSet
478 185 m 0x7f80
 478 74 397 -4 274 -10 c 1
 274 -67 l 1
 338 -72 366 -99 366 -140 c 0
 366 -193 320 -222 267 -222 c 0xbf80
 234 -222 209 -213 191 -202 c 1x7f80
 207 -172 l 1
 222 -180 240 -187 266 -187 c 0xbf80
 297 -187 323 -172 323 -140 c 0
 323 -110 297 -95 234 -95 c 1
 241 -10 l 1
 158 -6 96 26 44 74 c 1
 72 105 l 1
 122 60 175 31 257 31 c 0
 358 31 430 88 430 184 c 0
 430 272 387 308 263 346 c 0
 125 388 71 435 71 530 c 0
 71 624 149 694 266 694 c 0
 353 694 405 666 457 620 c 1
 429 589 l 1
 378 634 332 653 267 653 c 0
 178 653 119 604 119 531 c 0
 119 456 160 423 282 386 c 0
 410 347 478 302 478 185 c 0x7f80
EndSplineSet
Substitution2: "'c2sc' Capitals to Small Capitals lookup 26 subtable" scedilla.sc
Substitution2: "'locl' Localized Forms in Latin lookup 5 subtable" Scommaaccent
Substitution2: "'locl' Localized Forms in Latin lookup 4 subtable" Scommaaccent
AlternateSubs2: "'aalt' Access All Alternates lookup 1 subtable" Scommaaccent scedilla.sc
Position2: "'cpsp' Capital Spacing lookup 0 subtable" dx=5 dy=0 dh=10 dv=0
EndChar
StartChar: scedilla
Encoding: 351 351 628
Width: 463
GlyphClass: 2
Flags: MW
HStem: -222 35<222 250.5 222 262.5> -202 21G<160 160> -95 28<203 243> -10 39<210 210 243 243> 493 39<198 261.5>
VStem: 64 47<371 427.5 371 437.5> 206.5 36.5 292 43<-156 -125> 361 48<102.5 170.5>
AnchorPoint: "Anchor-14" 0 0 basechar 0
AnchorPoint: "Anchor-13" 0 0 basechar 0
AnchorPoint: "Anchor-12" 238 522 basechar 0
AnchorPoint: "Anchor-11" 0 0 basechar 0
AnchorPoint: "Anchor-10" 250 -222 basechar 0
LayerCount: 2
Back
Fore
SplineSet
409 138 m 0x7e80
 409 51 338 -4 243 -10 c 1
 243 -67 l 1
 307 -72 335 -99 335 -140 c 0
 335 -193 289 -222 236 -222 c 0xbf80
 203 -222 178 -213 160 -202 c 1x7e80
 176 -172 l 1
 191 -180 209 -187 235 -187 c 0
 266 -187 292 -172 292 -140 c 0xbf80
 292 -110 266 -95 203 -95 c 1
 210 -10 l 1
 136 -6 86 21 44 56 c 1
 70 86 l 1
 115 50 159 29 226 29 c 0
 304 29 361 68 361 137 c 0
 361 204 331 228 220 258 c 0
 109 287 64 326 64 398 c 0
 64 477 137 532 233 532 c 0
 297 532 346 513 395 475 c 1
 372 444 l 1
 327 477 289 493 234 493 c 0
 162 493 111 457 111 398 c 0
 111 344 147 320 243 294 c 0
 359 263 409 227 409 138 c 0x7e80
EndSplineSet
Substitution2: "'smcp' Lowercase to Small Capitals lookup 27 subtable" scedilla.sc
Substitution2: "'locl' Localized Forms in Latin lookup 5 subtable" scommaaccent
Substitution2: "'locl' Localized Forms in Latin lookup 4 subtable" scommaaccent
AlternateSubs2: "'aalt' Access All Alternates lookup 1 subtable" scommaaccent scedilla.sc
EndChar
StartChar: scaron
Encoding: 353 353 627
Width: 463
GlyphClass: 2
Flags: MW
HStem: -11 40<192.5 265 192.5 278.5> 493 39<198 261.5> 719 20G<96 96 378 378>
VStem: 64 47<371 427.5 371 437.5> 361 48<102.5 170.5>
AnchorPoint: "Anchor-14" 0 0 basechar 0
AnchorPoint: "Anchor-13" 0 0 basechar 0
AnchorPoint: "Anchor-12" 240 763 basechar 0
AnchorPoint: "Anchor-11" 0 0 basechar 0
AnchorPoint: "Anchor-10" 231 0 basechar 0
LayerCount: 2
Back
Fore
SplineSet
357 763 m 1
 378 739 l 1
 251 635 l 1
 224 635 l 1
 96 739 l 1
 117 763 l 1
 238 679 l 1
 357 763 l 1
233 532 m 0
 297 532 346 513 395 475 c 1
 372 444 l 1
 327 477 289 493 234 493 c 0
 162 493 111 457 111 398 c 0
 111 344 147 320 243 294 c 0
 359 263 409 227 409 138 c 0
 409 46 330 -11 227 -11 c 0
 143 -11 89 18 44 56 c 1
 70 86 l 1
 115 50 159 29 226 29 c 0
 304 29 361 68 361 137 c 0
 361 204 331 228 220 258 c 0
 109 287 64 326 64 398 c 0
 64 477 137 532 233 532 c 0
EndSplineSet
Substitution2: "'smcp' Lowercase to Small Capitals lookup 27 subtable" scaron.sc
Substitution2: "'aalt' Access All Alternates lookup 0 subtable" scaron.sc
EndChar
StartChar: uni0162
Encoding: 354 354 250
Width: 487
GlyphClass: 2
Flags: MW
HStem: -222 35<246.5 275 246.5 287> -202 21G<185 185> -95 28<228 268> 0 21G<220 236 220 220> 641 43<15 220 15 477 267 471 267 267>
VStem: 220 47<16 641 16 641 16 641> 232 36 317 43<-156 -125>
AnchorPoint: "Anchor-14" 244 347 basechar 0
AnchorPoint: "Anchor-13" 0 0 basechar 0
AnchorPoint: "Anchor-12" 244 684 basechar 0
AnchorPoint: "Anchor-11" 0 0 basechar 0
AnchorPoint: "Anchor-10" 244 0 basechar 0
LayerCount: 2
Back
Fore
SplineSet
471 641 m 1x7d
 267 641 l 1
 267 16 l 1
 268 16 l 1
 268 -67 l 1
 331 -72 360 -99 360 -140 c 0
 360 -193 314 -222 260 -222 c 0xbd
 227 -222 203 -213 185 -202 c 1x7d
 201 -172 l 1
 216 -180 234 -187 259 -187 c 0
 291 -187 317 -172 317 -140 c 0
 317 -110 291 -95 228 -95 c 1
 236 0 l 1xbb
 220 0 l 1
 220 641 l 1
 15 641 l 1
 15 684 l 1
 477 684 l 1
 471 641 l 1x7d
EndSplineSet
Substitution2: "'c2sc' Capitals to Small Capitals lookup 26 subtable" uni0163.sc
Substitution2: "'locl' Localized Forms in Latin lookup 5 subtable" uni021A
Substitution2: "'locl' Localized Forms in Latin lookup 4 subtable" uni021A
AlternateSubs2: "'aalt' Access All Alternates lookup 1 subtable" uni021A uni0163.sc
Position2: "'cpsp' Capital Spacing lookup 0 subtable" dx=5 dy=0 dh=10 dv=0
EndChar
StartChar: uni0163
Encoding: 355 355 642
Width: 334
GlyphClass: 2
Flags: MW
HStem: -222 35<216 244.5 216 256.5> -202 21G<154 154> -95 28<197 237> -10 40<237 237> 483 39<21 108 21 108 154 286>
VStem: 108 46<123 126 126 483 522 649 649 649> 200.5 36.5 286 43<-156 -125>
AnchorPoint: "Anchor-14" 163 261 basechar 0
AnchorPoint: "Anchor-13" 165 738 basechar 0
AnchorPoint: "Anchor-12" 131 649 basechar 0
AnchorPoint: "Anchor-11" 0 0 basechar 0
AnchorPoint: "Anchor-10" 244 -222 basechar 0
LayerCount: 2
Back
Fore
SplineSet
237 -67 m 1x7f
 301 -72 329 -99 329 -140 c 0
 329 -193 283 -222 230 -222 c 0xbf
 197 -222 172 -213 154 -202 c 1x7f
 170 -172 l 1
 185 -180 203 -187 229 -187 c 0xbf
 260 -187 286 -172 286 -140 c 0
 286 -110 260 -95 197 -95 c 1
 204 -9 l 1
 144 1 108 45 108 123 c 2
 108 483 l 1
 21 483 l 1
 21 522 l 1
 108 522 l 1
 108 649 l 1
 154 654 l 1
 154 522 l 1
 292 522 l 1
 286 483 l 1
 154 483 l 1
 154 126 l 2
 154 62 180 30 235 30 c 0
 266 30 293 39 319 54 c 1
 338 21 l 1
 309 3 276 -9 237 -10 c 1
 237 -67 l 1x7f
EndSplineSet
Substitution2: "'smcp' Lowercase to Small Capitals lookup 27 subtable" uni0163.sc
Substitution2: "'locl' Localized Forms in Latin lookup 5 subtable" uni021B
Substitution2: "'locl' Localized Forms in Latin lookup 4 subtable" uni021B
AlternateSubs2: "'aalt' Access All Alternates lookup 1 subtable" uni021B uni0163.sc
EndChar
StartChar: Tcaron
Encoding: 356 356 249
Width: 487
GlyphClass: 2
Flags: MW
HStem: 0 21G<220 267 220 220> 641 43<15 220 15 477 267 471 267 267>
VStem: 220 47<0 641 0 641>
AnchorPoint: "Anchor-14" 244 347 basechar 0
AnchorPoint: "Anchor-13" 0 0 basechar 0
AnchorPoint: "Anchor-12" 247 880 basechar 0
AnchorPoint: "Anchor-11" 0 0 basechar 0
AnchorPoint: "Anchor-10" 244 0 basechar 0
LayerCount: 2
Back
Fore
SplineSet
364 880 m 1
 385 855 l 1
 258 757 l 1
 231 757 l 1
 103 855 l 1
 124 880 l 1
 245 801 l 1
 364 880 l 1
477 684 m 1
 471 641 l 1
 267 641 l 1
 267 0 l 1
 220 0 l 1
 220 641 l 1
 15 641 l 1
 15 684 l 1
 477 684 l 1
EndSplineSet
Substitution2: "'c2sc' Capitals to Small Capitals lookup 26 subtable" tcaron.sc
Substitution2: "'aalt' Access All Alternates lookup 0 subtable" tcaron.sc
Position2: "'cpsp' Capital Spacing lookup 0 subtable" dx=5 dy=0 dh=10 dv=0
EndChar
StartChar: tcaron
Encoding: 357 357 640
Width: 334
GlyphClass: 2
Flags: MW
HStem: -11 41<207.5 250.5 207.5 251> 483 39<21 108 21 108 154 286> 718 20G<269 269> 724 20G<223 223>
VStem: 108 46<123 126 126 483 522 649 649 649>
AnchorPoint: "Anchor-14" 163 261 basechar 0
AnchorPoint: "Anchor-13" 165 738 basechar 0
AnchorPoint: "Anchor-12" 131 649 basechar 0
AnchorPoint: "Anchor-11" 0 0 basechar 0
AnchorPoint: "Anchor-10" 225 0 basechar 0
LayerCount: 2
Back
Fore
SplineSet
269 738 m 1xe8
 234 582 l 1
 204 586 l 1
 223 744 l 1xd8
 269 738 l 1xe8
319 54 m 1
 338 21 l 1
 307 1 272 -11 230 -11 c 0
 155 -11 108 34 108 123 c 2
 108 483 l 1
 21 483 l 1
 21 522 l 1
 108 522 l 1
 108 649 l 1
 154 654 l 1
 154 522 l 1
 292 522 l 1
 286 483 l 1
 154 483 l 1
 154 126 l 2
 154 62 180 30 235 30 c 0
 266 30 293 39 319 54 c 1
EndSplineSet
Substitution2: "'smcp' Lowercase to Small Capitals lookup 27 subtable" tcaron.sc
Substitution2: "'aalt' Access All Alternates lookup 0 subtable" tcaron.sc
EndChar
StartChar: Tbar
Encoding: 358 358 248
Width: 494
GlyphClass: 2
Flags: MW
HStem: -1 21G<220 267 220 220> 344 39<96 220 96 220 267 392> 640 43<15 220 15 477 267 471 267 267>
VStem: 220 47<-1 344 -1 344 383 640>
AnchorPoint: "Anchor-14" 244 347 basechar 0
AnchorPoint: "Anchor-13" 0 0 basechar 0
AnchorPoint: "Anchor-12" 244 683 basechar 0
AnchorPoint: "Anchor-11" 0 0 basechar 0
AnchorPoint: "Anchor-10" 244 -1 basechar 0
LayerCount: 2
Back
Fore
SplineSet
471 640 m 1
 267 640 l 1
 267 383 l 1
 392 383 l 1
 392 344 l 1
 267 344 l 1
 267 -1 l 1
 220 -1 l 1
 220 344 l 1
 96 344 l 1
 96 383 l 1
 220 383 l 1
 220 640 l 1
 15 640 l 1
 15 683 l 1
 477 683 l 1
 471 640 l 1
EndSplineSet
Substitution2: "'c2sc' Capitals to Small Capitals lookup 26 subtable" tbar.sc
Substitution2: "'aalt' Access All Alternates lookup 0 subtable" tbar.sc
Position2: "'cpsp' Capital Spacing lookup 0 subtable" dx=5 dy=0 dh=10 dv=0
EndChar

StartChar: Utilde
Encoding: 360 360 111
Width: 648
GlyphClass: 2
Flags: MW
HStem: -11 43<264 384.5 264 398.5> 664 20G<105 152 152 152 495 543 543 543> 796 38<366 396 366 404> 840 38<254 285.5>
VStem: 105 47<211 215 215 684> 495 48<215 684>
AnchorPoint: "Anchor-11" 0 0 basechar 0
AnchorPoint: "Anchor-10" 0 0 basechar 0
AnchorPoint: "Anchor-9" 327 684 basechar 0
AnchorPoint: "Anchor-8" 412 0 basechar 0
LayerCount: 2
Fore
SplineSet
389 796 m 0
 332 796 303 840 268 840 c 0
 240 840 230 829 211 803 c 1
 182 818 l 1
 204 854 230 878 268 878 c 0xdc
 311 878 346 834 386 834 c 0
 406 834 421 846 442 877 c 1
 471 862 l 1
 448 815 419 796 389 796 c 0
543 211 m 2
 543 82 473 -11 324 -11 c 0
 173 -11 105 82 105 211 c 2
 105 684 l 1
 152 684 l 1
 152 215 l 2
 152 103 204 32 324 32 c 0
 445 32 495 105 495 215 c 2
 495 684 l 1
 543 684 l 1
 543 211 l 2
EndSplineSet
Substitution2: "'c2sc' Capitals to Small Capitals lookup 23 subtable" utilde.sc
Substitution2: "'aalt' Access All Alternates lookup 0 subtable" utilde.sc
Position2: "'cpsp' Capital Spacing lookup 0 subtable" dx=5 dy=0 dh=10 dv=0
EndChar
StartChar: utilde
Encoding: 361 361 688
Width: 578
GlyphClass: 2
Flags: MW
HStem: -11 40<226 294.5> 0 21G<429 468 429 429> 502 20G<105 151 151 151 422 468 468 468> 670 38<325.5 355.5 325.5 362> 672 20G<142 142> 714 38<216.5 245> 716 20G<431 431>
VStem: 105 46<149 153 153 522> 422 46<141 522 0 522>
AnchorPoint: "Anchor-14" 0 0 basechar 0
AnchorPoint: "Anchor-13" 478 522 basechar 0
AnchorPoint: "Anchor-12" 287 709 basechar 0
AnchorPoint: "Anchor-11" 478 0 basechar 0
AnchorPoint: "Anchor-10" 287 0 basechar 0
LayerCount: 2
Back
Fore
SplineSet
345 670 m 0xb380
 295 670 262 714 228 714 c 0
 205 714 190 703 171 677 c 1
 142 692 l 1
 164 728 192 752 228 752 c 0xad80
 271 752 306 708 345 708 c 0
 366 708 381 720 402 751 c 1xb380
 431 736 l 1xab80
 408 689 379 670 345 670 c 0xb380
468 522 m 1xab80
 468 0 l 1
 429 0 l 1x6b80
 426 97 l 1
 391 35 336 -11 253 -11 c 0
 159 -11 105 46 105 149 c 2
 105 522 l 1
 151 522 l 1
 151 153 l 2
 151 66 190 29 262 29 c 0
 335 29 385 76 422 141 c 1
 422 522 l 1
 468 522 l 1xab80
EndSplineSet
Substitution2: "'smcp' Lowercase to Small Capitals lookup 27 subtable" utilde.sc
Substitution2: "'aalt' Access All Alternates lookup 0 subtable" utilde.sc
EndChar

StartChar: Umacron
Encoding: 362 362 108
Width: 648
GlyphClass: 2
Flags: MW
HStem: -11 43<264 384.5 264 398.5> 664 20G<105 152 152 152 495 543 543 543> 803 39<212 441 212 441>
VStem: 105 47<211 215 215 684> 212 229<803 842 803 842> 495 48<215 684>
AnchorPoint: "Anchor-11" 0 0 basechar 0
AnchorPoint: "Anchor-10" 0 0 basechar 0
AnchorPoint: "Anchor-9" 327 684 basechar 0
AnchorPoint: "Anchor-8" 412 0 basechar 0
LayerCount: 2
Fore
SplineSet
212 803 m 1
 212 842 l 1
 441 842 l 1
 441 803 l 1
 212 803 l 1
543 211 m 2
 543 82 473 -11 324 -11 c 0
 173 -11 105 82 105 211 c 2
 105 684 l 1
 152 684 l 1
 152 215 l 2
 152 103 204 32 324 32 c 0
 445 32 495 105 495 215 c 2
 495 684 l 1
 543 684 l 1
 543 211 l 2
EndSplineSet
Substitution2: "'c2sc' Capitals to Small Capitals lookup 23 subtable" umacron.sc
Substitution2: "'aalt' Access All Alternates lookup 0 subtable" umacron.sc
Position2: "'cpsp' Capital Spacing lookup 0 subtable" dx=5 dy=0 dh=10 dv=0
EndChar

StartChar: umacron
Encoding: 363 363 246
Width: 578
GlyphClass: 2
Flags: MW
HStem: -11 40<226 294.5> 0 21G<429 468 429 429> 502 20G<105 151 151 151 422 468 468 468> 679 39<172 401 172 401>
VStem: 105 46<149 153 153 522> 172 229<679 718 679 718> 422 46<141 522>
AnchorPoint: "Anchor-11" 0 0 basechar 0
AnchorPoint: "Anchor-10" 0 0 basechar 0
AnchorPoint: "Anchor-9" 287 522 basechar 0
AnchorPoint: "Anchor-8" 478 0 basechar 0
LayerCount: 2
Fore
SplineSet
172 679 m 1xbe
 172 718 l 1
 401 718 l 1
 401 679 l 1
 172 679 l 1xbe
468 0 m 1x7a
 429 0 l 1x7a
 426 97 l 1
 391 35 336 -11 253 -11 c 0
 159 -11 105 46 105 149 c 2
 105 522 l 1
 151 522 l 1
 151 153 l 2
 151 66 190 29 262 29 c 0xba
 335 29 385 76 422 141 c 1
 422 522 l 1
 468 522 l 1
 468 0 l 1x7a
EndSplineSet
Substitution2: "'smcp' Lowercase to Small Capitals lookup 24 subtable" umacron.sc
Substitution2: "'aalt' Access All Alternates lookup 0 subtable" umacron.sc
EndChar
StartChar: ubreve
Encoding: 365 365 664
Width: 578
GlyphClass: 2
Flags: MW
HStem: -11 40<226 294.5> 0 21G<429 468 429 429> 502 20G<105 151 151 151 422 468 468 468> 656 40<263.5 310.5 263.5 319.5>
VStem: 105 46<149 153 153 522> 422 46<141 522 0 522>
AnchorPoint: "Anchor-14" 0 0 basechar 0
AnchorPoint: "Anchor-13" 478 522 basechar 0
AnchorPoint: "Anchor-12" 289 766 basechar 0
AnchorPoint: "Anchor-11" 478 0 basechar 0
AnchorPoint: "Anchor-10" 287 0 basechar 0
LayerCount: 2
Back
Fore
SplineSet
287 656 m 0xbc
 221 656 173 697 164 759 c 1
 196 766 l 1
 209 720 240 696 287 696 c 0
 334 696 365 720 378 766 c 1
 410 759 l 1
 401 697 352 656 287 656 c 0xbc
468 522 m 1
 468 0 l 1
 429 0 l 1x7c
 426 97 l 1
 391 35 336 -11 253 -11 c 0
 159 -11 105 46 105 149 c 2
 105 522 l 1
 151 522 l 1
 151 153 l 2
 151 66 190 29 262 29 c 0
 335 29 385 76 422 141 c 1
 422 522 l 1
 468 522 l 1
EndSplineSet
Substitution2: "'smcp' Lowercase to Small Capitals lookup 27 subtable" ubreve.sc
Substitution2: "'aalt' Access All Alternates lookup 0 subtable" ubreve.sc
EndChar
